  0
SECTION
  2
HEADER
  9
$ACADVER
  1
AC1009
  9
$DWGCODEPAGE
  3
ansi_1252
  9
$INSBASE
 10
0.0
 20
0.0
 30
0.0
  9
$EXTMIN
 10
-22.86917717371844
 20
-19.50066891940981
 30
0.0
  9
$EXTMAX
 10
23.23099006895704
 20
18.90931305291868
 30
0.0
  9
$LIMMIN
 10
0.0
 20
0.0
  9
$LIMMAX
 10
12.0
 20
9.0
  9
$ORTHOMODE
 70
     0
  9
$REGENMODE
 70
     1
  9
$FILLMODE
 70
     1
  9
$QTEXTMODE
 70
     0
  9
$MIRRTEXT
 70
     1
  9
$DRAGMODE
 70
     2
  9
$LTSCALE
 40
1.0
  9
$OSMODE
 70
    37
  9
$ATTMODE
 70
     1
  9
$TEXTSIZE
 40
0.2
  9
$TRACEWID
 40
0.05
  9
$TEXTSTYLE
  7
STANDARD
  9
$CLAYER
  8
0
  9
$CELTYPE
  6
BYLAYER
  9
$CECOLOR
 62
   256
  9
$DIMSCALE
 40
1.0
  9
$DIMASZ
 40
0.18
  9
$DIMEXO
 40
0.0625
  9
$DIMDLI
 40
0.38
  9
$DIMRND
 40
0.0
  9
$DIMDLE
 40
0.0
  9
$DIMEXE
 40
0.18
  9
$DIMTP
 40
0.0
  9
$DIMTM
 40
0.0
  9
$DIMTXT
 40
0.18
  9
$DIMCEN
 40
0.09
  9
$DIMTSZ
 40
0.0
  9
$DIMTOL
 70
     0
  9
$DIMLIM
 70
     0
  9
$DIMTIH
 70
     1
  9
$DIMTOH
 70
     1
  9
$DIMSE1
 70
     0
  9
$DIMSE2
 70
     0
  9
$DIMTAD
 70
     0
  9
$DIMZIN
 70
     0
  9
$DIMBLK
  1

  9
$DIMASO
 70
     1
  9
$DIMSHO
 70
     1
  9
$DIMPOST
  1

  9
$DIMAPOST
  1

  9
$DIMALT
 70
     0
  9
$DIMALTD
 70
     2
  9
$DIMALTF
 40
25.4
  9
$DIMLFAC
 40
1.0
  9
$DIMTOFL
 70
     0
  9
$DIMTVP
 40
0.0
  9
$DIMTIX
 70
     0
  9
$DIMSOXD
 70
     0
  9
$DIMSAH
 70
     0
  9
$DIMBLK1
  1

  9
$DIMBLK2
  1

  9
$DIMSTYLE
  2
STANDARD
  9
$DIMCLRD
 70
     0
  9
$DIMCLRE
 70
     0
  9
$DIMCLRT
 70
     0
  9
$DIMTFAC
 40
1.0
  9
$DIMGAP
 40
0.09
  9
$LUNITS
 70
     2
  9
$LUPREC
 70
     4
  9
$SKETCHINC
 40
0.1
  9
$FILLETRAD
 40
0.5
  9
$AUNITS
 70
     0
  9
$AUPREC
 70
     0
  9
$MENU
  1
.
  9
$ELEVATION
 40
0.0
  9
$PELEVATION
 40
0.0
  9
$THICKNESS
 40
0.0
  9
$LIMCHECK
 70
     0
  9
$CHAMFERA
 40
0.0
  9
$CHAMFERB
 40
0.0
  9
$SKPOLY
 70
     0
  9
$TDCREATE
 40
2454910.5
  9
$TDUPDATE
 40
2460385.733396169
  9
$TDINDWG
 40
0.0000000116
  9
$TDUSRTIMER
 40
0.0000000116
  9
$USRTIMER
 70
     1
  9
$ANGBASE
 50
0.0
  9
$ANGDIR
 70
     0
  9
$PDMODE
 70
     0
  9
$PDSIZE
 40
0.0
  9
$PLINEWID
 40
0.0
  9
$COORDS
 70
     1
  9
$SPLFRAME
 70
     0
  9
$SPLINETYPE
 70
     6
  9
$SPLINESEGS
 70
     8
  9
$ATTDIA
 70
     0
  9
$ATTREQ
 70
     1
  9
$HANDLING
 70
     1
  9
$HANDSEED
  5
5F4
  9
$SURFTAB1
 70
     6
  9
$SURFTAB2
 70
     6
  9
$SURFTYPE
 70
     6
  9
$SURFU
 70
     6
  9
$SURFV
 70
     6
  9
$UCSNAME
  2

  9
$UCSORG
 10
0.0
 20
0.0
 30
0.0
  9
$UCSXDIR
 10
1.0
 20
0.0
 30
0.0
  9
$UCSYDIR
 10
0.0
 20
1.0
 30
0.0
  9
$PUCSNAME
  2

  9
$PUCSORG
 10
0.0
 20
0.0
 30
0.0
  9
$PUCSXDIR
 10
1.0
 20
0.0
 30
0.0
  9
$PUCSYDIR
 10
0.0
 20
1.0
 30
0.0
  9
$USERI1
 70
     0
  9
$USERI2
 70
     0
  9
$USERI3
 70
     0
  9
$USERI4
 70
     0
  9
$USERI5
 70
     0
  9
$USERR1
 40
0.0
  9
$USERR2
 40
0.0
  9
$USERR3
 40
0.0
  9
$USERR4
 40
0.0
  9
$USERR5
 40
0.0
  9
$WORLDVIEW
 70
     1
  9
$SHADEDGE
 70
     3
  9
$SHADEDIF
 70
    70
  9
$TILEMODE
 70
     1
  9
$MAXACTVP
 70
    64
  9
$PLIMCHECK
 70
     0
  9
$PEXTMIN
 10
1.000000000000000E+20
 20
1.000000000000000E+20
 30
1.000000000000000E+20
  9
$PEXTMAX
 10
-1.000000000000000E+20
 20
-1.000000000000000E+20
 30
-1.000000000000000E+20
  9
$PLIMMIN
 10
0.0
 20
0.0
  9
$PLIMMAX
 10
12.0
 20
9.0
  9
$UNITMODE
 70
     0
  9
$VISRETAIN
 70
     1
  9
$PLINEGEN
 70
     0
  9
$PSLTSCALE
 70
     1
  0
ENDSEC
  0
SECTION
  2
TABLES
  0
TABLE
  2
VPORT
 70
     1
  0
VPORT
  2
*ACTIVE
 70
     0
 10
0.0
 20
0.0
 11
1.0
 21
1.0
 12
10.42990654205607
 22
4.5
 13
0.0
 23
0.0
 14
0.5
 24
0.5
 15
0.5
 25
0.5
 16
0.0
 26
0.0
 36
1.0
 17
0.0
 27
0.0
 37
0.0
 40
9.0
 41
1.972972972850329
 42
50.0
 43
0.0
 44
0.0
 50
0.0
 51
0.0
 71
     0
 72
   100
 73
     1
 74
     3
 75
     0
 76
     0
 77
     0
 78
     0
  0
ENDTAB
  0
TABLE
  2
LTYPE
 70
     2
  0
LTYPE
  2
CONTINUOUS
 70
     0
  3
Solid line
 72
    65
 73
     0
 40
0.0
  0
LTYPE
  2
CONTINUOUS2
 70
     0
  3
Solid Line
 72
    65
 73
     0
 40
0.0
  0
ENDTAB
  0
TABLE
  2
LAYER
 70
     3
  0
LAYER
  2
0
 70
     0
 62
     7
  6
CONTINUOUS
  0
LAYER
  2
DISEGNO
 70
     0
 62
    18
  6
CONTINUOUS
  0
LAYER
  2
QUOTE
 70
     0
 62
    18
  6
CONTINUOUS
  0
ENDTAB
  0
TABLE
  2
STYLE
 70
     1
  0
STYLE
  2
STANDARD
 70
     0
 40
0.0
 41
1.0
 50
0.0
 71
     0
 42
0.2
  3
txt
  4

  0
ENDTAB
  0
TABLE
  2
VIEW
 70
     0
  0
ENDTAB
  0
TABLE
  2
UCS
 70
     0
  0
ENDTAB
  0
TABLE
  2
APPID
 70
     1
  0
APPID
  2
ACAD
 70
     0
  0
ENDTAB
  0
TABLE
  2
DIMSTYLE
 70
     1
  0
DIMSTYLE
  2
STANDARD
 70
     0
  3

  4

  5

  6

  7

 40
1.0
 41
0.18
 42
0.0625
 43
0.38
 44
0.18
 45
0.0
 46
0.0
 47
0.0
 48
0.0
140
0.18
141
0.09
142
0.0
143
25.4
144
1.0
145
0.0
146
1.0
147
0.09
 71
     0
 72
     0
 73
     1
 74
     1
 75
     0
 76
     0
 77
     0
 78
     0
170
     0
171
     2
172
     0
173
     0
174
     0
175
     0
176
     0
177
     0
178
     0
  0
ENDTAB
  0
ENDSEC
  0
SECTION
  2
BLOCKS
  0
BLOCK
  8
0
  2
$MODEL_SPACE
 70
     0
 10
0.0
 20
0.0
 30
0.0
  3
$MODEL_SPACE
  1

  0
ENDBLK
  5
21
  8
0
  0
BLOCK
 67
     1
  8
0
  2
$PAPER_SPACE
 70
     0
 10
0.0
 20
0.0
 30
0.0
  3
$PAPER_SPACE
  1

  0
ENDBLK
  5
1D
 67
     1
  8
0
  0
ENDSEC
  0
SECTION
  2
ENTITIES
  0
POLYLINE
  5
70
  8
DISEGNO
 66
     1
 10
0.0
 20
0.0
 30
0.0
  0
VERTEX
  5
A9
  8
DISEGNO
 10
-8.059720470433124
 20
8.428565021628376
 30
0.0
  0
VERTEX
  5
AA
  8
DISEGNO
 10
-3.41728313312143
 20
8.428565021628376
 30
0.0
  0
SEQEND
  5
5C3
  8
DISEGNO
  0
POLYLINE
  5
71
  8
DISEGNO
 66
     1
 10
0.0
 20
0.0
 30
0.0
  0
VERTEX
  5
AB
  8
DISEGNO
 10
6.652585491265553
 20
8.428565021628376
 30
0.0
  0
VERTEX
  5
AC
  8
DISEGNO
 10
11.29502282857725
 20
8.428565021628376
 30
0.0
  0
SEQEND
  5
5C4
  8
DISEGNO
  0
POLYLINE
  5
72
  8
DISEGNO
 66
     1
 10
0.0
 20
0.0
 30
0.0
  0
VERTEX
  5
AD
  8
DISEGNO
 10
3.867113900395045
 20
-1.058888736805006
 30
0.0
  0
VERTEX
  5
AE
  8
DISEGNO
 10
-0.7753234369166473
 20
-1.058888736805006
 30
0.0
  0
SEQEND
  5
5C5
  8
DISEGNO
  0
POLYLINE
  5
73
  8
DISEGNO
 66
     1
 10
0.0
 20
0.0
 30
0.0
 70
     1
  0
VERTEX
  5
AF
  8
DISEGNO
 10
-2.307318569746101
 20
9.698904693020014
 30
0.0
  0
VERTEX
  5
B0
  8
DISEGNO
 10
-4.41751735943321
 20
9.698904693020014
 30
0.0
  0
VERTEX
  5
B1
  8
DISEGNO
 10
-4.388517211410687
 20
9.834538608490577
 30
0.0
  0
VERTEX
  5
B2
  8
DISEGNO
 10
-4.359325341139124
 20
9.969888912885052
 30
0.0
  0
VERTEX
  5
B3
  8
DISEGNO
 10
-4.329750026369545
 20
10.10467199512729
 30
0.0
  0
VERTEX
  5
B4
  8
DISEGNO
 10
-4.314758664095196
 20
10.17176219948004
 30
0.0
  0
VERTEX
  5
B5
  8
DISEGNO
 10
-4.299599544852933
 20
10.23860424414121
 30
0.0
  0
VERTEX
  5
B6
  8
DISEGNO
 10
-4.284248703361696
 20
10.30516267772628
 30
0.0
  0
VERTEX
  5
B7
  8
DISEGNO
 10
-4.268682174340311
 20
10.37140204885071
 30
0.0
  0
VERTEX
  5
B8
  8
DISEGNO
 10
-4.252875992507654
 20
10.43728690612998
 30
0.0
  0
VERTEX
  5
B9
  8
DISEGNO
 10
-4.236806192582637
 20
10.50278179817963
 30
0.0
  0
VERTEX
  5
BA
  8
DISEGNO
 10
-4.220448809284095
 20
10.56785127361514
 30
0.0
  0
VERTEX
  5
BB
  8
DISEGNO
 10
-4.203779877330899
 20
10.63245988105195
 30
0.0
  0
VERTEX
  5
BC
  8
DISEGNO
 10
-4.18677543144196
 20
10.69657216910556
 30
0.0
  0
VERTEX
  5
BD
  8
DISEGNO
 10
-4.169411506336113
 20
10.76015268639147
 30
0.0
  0
VERTEX
  5
BE
  8
DISEGNO
 10
-4.151664136732229
 20
10.82316598152517
 30
0.0
  0
VERTEX
  5
BF
  8
DISEGNO
 10
-4.133509357349224
 20
10.88557660312213
 30
0.0
  0
VERTEX
  5
C0
  8
DISEGNO
 10
-4.114923202905969
 20
10.94734909979786
 30
0.0
  0
VERTEX
  5
C1
  8
DISEGNO
 10
-4.095881708121295
 20
11.00844802016781
 30
0.0
  0
VERTEX
  5
C2
  8
DISEGNO
 10
-4.076360907714097
 20
11.06883791284748
 30
0.0
  0
VERTEX
  5
C3
  8
DISEGNO
 10
-4.056336836403268
 20
11.12848332645242
 30
0.0
  0
VERTEX
  5
C4
  8
DISEGNO
 10
-4.035785528907638
 20
11.18734880959804
 30
0.0
  0
VERTEX
  5
C5
  8
DISEGNO
 10
-4.02530467244017
 20
11.21647799869093
 30
0.0
  0
VERTEX
  5
C6
  8
DISEGNO
 10
-4.014683019946123
 20
11.24539891089982
 30
0.0
  0
VERTEX
  5
C7
  8
DISEGNO
 10
-4.003917575765273
 20
11.27410711480165
 30
0.0
  0
VERTEX
  5
C8
  8
DISEGNO
 10
-3.993005344237574
 20
11.30259817897329
 30
0.0
  0
VERTEX
  5
C9
  8
DISEGNO
 10
-3.981943329702819
 20
11.33086767199175
 30
0.0
  0
VERTEX
  5
CA
  8
DISEGNO
 10
-3.970728536500864
 20
11.35891116243394
 30
0.0
  0
VERTEX
  5
CB
  8
DISEGNO
 10
-3.959357968971601
 20
11.38672421887676
 30
0.0
  0
VERTEX
  5
CC
  8
DISEGNO
 10
-3.947828631454886
 20
11.41430240989722
 30
0.0
  0
VERTEX
  5
CD
  8
DISEGNO
 10
-3.936137528290571
 20
11.44164130407217
 30
0.0
  0
VERTEX
  5
CE
  8
DISEGNO
 10
-3.924281663818492
 20
11.4687364699786
 30
0.0
  0
VERTEX
  5
CF
  8
DISEGNO
 10
-3.912258042378562
 20
11.49558347619346
 30
0.0
  0
VERTEX
  5
D0
  8
DISEGNO
 10
-3.900063668310576
 20
11.52217789129366
 30
0.0
  0
VERTEX
  5
D1
  8
DISEGNO
 10
-3.887695545954447
 20
11.54851528385609
 30
0.0
  0
VERTEX
  5
D2
  8
DISEGNO
 10
-3.875150679650011
 20
11.57459122245779
 30
0.0
  0
VERTEX
  5
D3
  8
DISEGNO
 10
-3.862426073737138
 20
11.6004012756756
 30
0.0
  0
VERTEX
  5
D4
  8
DISEGNO
 10
-3.849518732555667
 20
11.62594101208652
 30
0.0
  0
VERTEX
  5
D5
  8
DISEGNO
 10
-3.836425660445469
 20
11.65120600026745
 30
0.0
  0
VERTEX
  5
D6
  8
DISEGNO
 10
-3.823143861746379
 20
11.67619180879532
 30
0.0
  0
VERTEX
  5
D7
  8
DISEGNO
 10
-3.809670340798313
 20
11.7008940062471
 30
0.0
  0
VERTEX
  5
D8
  8
DISEGNO
 10
-3.796002101941102
 20
11.7253081611997
 30
0.0
  0
VERTEX
  5
D9
  8
DISEGNO
 10
-3.78213614951458
 20
11.74942984223007
 30
0.0
  0
VERTEX
  5
DA
  8
DISEGNO
 10
-3.768069487858623
 20
11.77325461791512
 30
0.0
  0
VERTEX
  5
DB
  8
DISEGNO
 10
-3.753799121313106
 20
11.79677805683181
 30
0.0
  0
VERTEX
  5
DC
  8
DISEGNO
 10
-3.739322054217901
 20
11.81999572755709
 30
0.0
  0
VERTEX
  5
DD
  8
DISEGNO
 10
-3.724635290912802
 20
11.84290319866787
 30
0.0
  0
VERTEX
  5
DE
  8
DISEGNO
 10
-3.709735835737725
 20
11.86549603874107
 30
0.0
  0
VERTEX
  5
DF
  8
DISEGNO
 10
-3.694620693032501
 20
11.88776981635369
 30
0.0
  0
VERTEX
  5
E0
  8
DISEGNO
 10
-3.679286867137007
 20
11.90972010008259
 30
0.0
  0
VERTEX
  5
E1
  8
DISEGNO
 10
-3.663731362391117
 20
11.93134245850473
 30
0.0
  0
VERTEX
  5
E2
  8
DISEGNO
 10
-3.647951183134662
 20
11.95263246019707
 30
0.0
  0
VERTEX
  5
E3
  8
DISEGNO
 10
-3.631943333707479
 20
11.97358567373653
 30
0.0
  0
VERTEX
  5
E4
  8
DISEGNO
 10
-3.615704818449483
 20
11.99419766770007
 30
0.0
  0
VERTEX
  5
E5
  8
DISEGNO
 10
-3.599232641700505
 20
12.01446401066456
 30
0.0
  0
VERTEX
  5
E6
  8
DISEGNO
 10
-3.582523807800401
 20
12.03438027120703
 30
0.0
  0
VERTEX
  5
E7
  8
DISEGNO
 10
-3.565575321089025
 20
12.05394201790433
 30
0.0
  0
VERTEX
  5
E8
  8
DISEGNO
 10
-3.548384185906269
 20
12.07314481933342
 30
0.0
  0
VERTEX
  5
E9
  8
DISEGNO
 10
-3.530947406591951
 20
12.09198424407126
 30
0.0
  0
VERTEX
  5
EA
  8
DISEGNO
 10
-3.513261987485981
 20
12.11045586069478
 30
0.0
  0
VERTEX
  5
EB
  8
DISEGNO
 10
-3.495324932928156
 20
12.1285552377809
 30
0.0
  0
VERTEX
  5
EC
  8
DISEGNO
 10
-3.47713324725839
 20
12.14627794390657
 30
0.0
  0
VERTEX
  5
ED
  8
DISEGNO
 10
-3.458683934816495
 20
12.16361954764871
 30
0.0
  0
VERTEX
  5
EE
  8
DISEGNO
 10
-3.439973999942367
 20
12.18057561758425
 30
0.0
  0
VERTEX
  5
EF
  8
DISEGNO
 10
-3.421000446975839
 20
12.19714172229015
 30
0.0
  0
VERTEX
  5
F0
  8
DISEGNO
 10
-3.401760280256786
 20
12.21331343034336
 30
0.0
  0
VERTEX
  5
F1
  8
DISEGNO
 10
-3.382250504125061
 20
12.22908631032077
 30
0.0
  0
VERTEX
  5
F2
  8
DISEGNO
 10
-3.362468122920559
 20
12.24445593079934
 30
0.0
  0
VERTEX
  5
F3
  8
DISEGNO
 10
-3.342410140983073
 20
12.25941786035604
 30
0.0
  0
VERTEX
  5
F4
  8
DISEGNO
 10
-3.322073562652498
 20
12.27396766756772
 30
0.0
  0
VERTEX
  5
F5
  8
DISEGNO
 10
-3.301455392268689
 20
12.28810092101139
 30
0.0
  0
VERTEX
  5
F6
  8
DISEGNO
 10
-3.28055263417154
 20
12.30181318926395
 30
0.0
  0
VERTEX
  5
F7
  8
DISEGNO
 10
-3.259362292700843
 20
12.31510004090235
 30
0.0
  0
VERTEX
  5
F8
  8
DISEGNO
 10
-3.237881587996105
 20
12.32795739515982
 30
0.0
  0
VERTEX
  5
F9
  8
DISEGNO
 10
-3.216111395897322
 20
12.34038711147693
 30
0.0
  0
VERTEX
  5
FA
  8
DISEGNO
 10
-3.194055641973401
 20
12.35239600484836
 30
0.0
  0
VERTEX
  5
FB
  8
DISEGNO
 10
-3.171718345149149
 20
12.36399104196445
 30
0.0
  0
VERTEX
  5
FC
  8
DISEGNO
 10
-3.149103524349488
 20
12.37517918951548
 30
0.0
  0
VERTEX
  5
FD
  8
DISEGNO
 10
-3.126215198499207
 20
12.38596741419184
 30
0.0
  0
VERTEX
  5
FE
  8
DISEGNO
 10
-3.103057386523211
 20
12.39636268268388
 30
0.0
  0
VERTEX
  5
FF
  8
DISEGNO
 10
-3.079634107346385
 20
12.40637196168186
 30
0.0
  0
VERTEX
  5
100
  8
DISEGNO
 10
-3.055949379893514
 20
12.41600221787616
 30
0.0
  0
VERTEX
  5
101
  8
DISEGNO
 10
-3.032007223089504
 20
12.42526041795709
 30
0.0
  0
VERTEX
  5
102
  8
DISEGNO
 10
-3.007811655859223
 20
12.43415352861499
 30
0.0
  0
VERTEX
  5
103
  8
DISEGNO
 10
-2.983366697127492
 20
12.44268851654022
 30
0.0
  0
VERTEX
  5
104
  8
DISEGNO
 10
-2.958676365819221
 20
12.45087234842306
 30
0.0
  0
VERTEX
  5
105
  8
DISEGNO
 10
-2.933744680859233
 20
12.45871199095386
 30
0.0
  0
VERTEX
  5
106
  8
DISEGNO
 10
-2.908575661172394
 20
12.46621441082298
 30
0.0
  0
VERTEX
  5
107
  8
DISEGNO
 10
-2.88317332568357
 20
12.47338657472072
 30
0.0
  0
VERTEX
  5
108
  8
DISEGNO
 10
-2.857541693317627
 20
12.48023544933743
 30
0.0
  0
VERTEX
  5
109
  8
DISEGNO
 10
-2.831684782999409
 20
12.48676800136345
 30
0.0
  0
VERTEX
  5
10A
  8
DISEGNO
 10
-2.805606613653802
 20
12.49299119748907
 30
0.0
  0
VERTEX
  5
10B
  8
DISEGNO
 10
-2.779311204205614
 20
12.49891200440468
 30
0.0
  0
VERTEX
  5
10C
  8
DISEGNO
 10
-2.752802573579748
 20
12.50453738880053
 30
0.0
  0
VERTEX
  5
10D
  8
DISEGNO
 10
-2.726084740701049
 20
12.50987431736705
 30
0.0
  0
VERTEX
  5
10E
  8
DISEGNO
 10
-2.699161724494385
 20
12.51492975679451
 30
0.0
  0
VERTEX
  5
10F
  8
DISEGNO
 10
-2.67203754388462
 20
12.51971067377325
 30
0.0
  0
VERTEX
  5
110
  8
DISEGNO
 10
-2.644716217796582
 20
12.5242240349936
 30
0.0
  0
VERTEX
  5
111
  8
DISEGNO
 10
-2.617201765155173
 20
12.52847680714591
 30
0.0
  0
VERTEX
  5
112
  8
DISEGNO
 10
-2.589498204885221
 20
12.53247595692054
 30
0.0
  0
VERTEX
  5
113
  8
DISEGNO
 10
-2.56160955591163
 20
12.53622845100774
 30
0.0
  0
VERTEX
  5
114
  8
DISEGNO
 10
-2.533539837159188
 20
12.53974125609792
 30
0.0
  0
VERTEX
  5
115
  8
DISEGNO
 10
-2.505293067552797
 20
12.54302133888134
 30
0.0
  0
VERTEX
  5
116
  8
DISEGNO
 10
-2.476873266017325
 20
12.5460756660484
 30
0.0
  0
VERTEX
  5
117
  8
DISEGNO
 10
-2.448284451477619
 20
12.54891120428938
 30
0.0
  0
VERTEX
  5
118
  8
DISEGNO
 10
-2.419530642858541
 20
12.55153492029467
 30
0.0
  0
VERTEX
  5
119
  8
DISEGNO
 10
-2.390615859084958
 20
12.55395378075455
 30
0.0
  0
VERTEX
  5
11A
  8
DISEGNO
 10
-2.361544119081698
 20
12.55617475235933
 30
0.0
  0
VERTEX
  5
11B
  8
DISEGNO
 10
-2.302945846085681
 20
12.5600508957651
 30
0.0
  0
VERTEX
  5
11C
  8
DISEGNO
 10
-2.243767975269355
 20
12.56321908403461
 30
0.0
  0
VERTEX
  5
11D
  8
DISEGNO
 10
-2.184042658031604
 20
12.56573505069051
 30
0.0
  0
VERTEX
  5
11E
  8
DISEGNO
 10
-2.123802045771333
 20
12.56765452925547
 30
0.0
  0
VERTEX
  5
11F
  8
DISEGNO
 10
-2.063078289887388
 20
12.56903325325212
 30
0.0
  0
VERTEX
  5
120
  8
DISEGNO
 10
-2.001903541778633
 20
12.56992695620314
 30
0.0
  0
VERTEX
  5
121
  8
DISEGNO
 10
-1.94030995284397
 20
12.57039137163116
 30
0.0
  0
VERTEX
  5
122
  8
DISEGNO
 10
-1.878329674482268
 20
12.57048223305888
 30
0.0
  0
VERTEX
  5
123
  8
DISEGNO
 10
-1.815994858092429
 20
12.57025527400891
 30
0.0
  0
VERTEX
  5
124
  8
DISEGNO
 10
-1.753337655073299
 20
12.56976622800392
 30
0.0
  0
VERTEX
  5
125
  8
DISEGNO
 10
-1.690390216823742
 20
12.56907082856656
 30
0.0
  0
VERTEX
  5
126
  8
DISEGNO
 10
-1.627184694742662
 20
12.56822480921951
 30
0.0
  0
VERTEX
  5
127
  8
DISEGNO
 10
-1.500128004681475
 20
12.56630384488693
 30
0.0
  0
VERTEX
  5
128
  8
DISEGNO
 10
-1.372424796080676
 20
12.56444920318737
 30
0.0
  0
VERTEX
  5
129
  8
DISEGNO
 10
-1.244332280131321
 20
12.56310675230211
 30
0.0
  0
VERTEX
  5
12A
  8
DISEGNO
 10
-1.180220410398118
 20
12.56276693222146
 30
0.0
  0
VERTEX
  5
12B
  8
DISEGNO
 10
-1.116107668024389
 20
12.5627223604124
 30
0.0
  0
VERTEX
  5
12C
  8
DISEGNO
 10
-1.05202620440908
 20
12.5630287703975
 30
0.0
  0
VERTEX
  5
12D
  8
DISEGNO
 10
-0.9880081709509769
 20
12.56374189569947
 30
0.0
  0
VERTEX
  5
12E
  8
DISEGNO
 10
-0.9240857190490017
 20
12.56491746984092
 30
0.0
  0
VERTEX
  5
12F
  8
DISEGNO
 10
-0.8602910001020219
 20
12.56661122634456
 30
0.0
  0
VERTEX
  5
130
  8
DISEGNO
 10
-0.7966561655089193
 20
12.568878898733
 30
0.0
  0
VERTEX
  5
131
  8
DISEGNO
 10
-0.7332133666685812
 20
12.57177622052892
 30
0.0
  0
VERTEX
  5
132
  8
DISEGNO
 10
-0.6699947549798522
 20
12.57535892525496
 30
0.0
  0
VERTEX
  5
133
  8
DISEGNO
 10
-0.6070324818416746
 20
12.57968274643381
 30
0.0
  0
VERTEX
  5
134
  8
DISEGNO
 10
-0.5443586986528344
 20
12.58480341758808
 30
0.0
  0
VERTEX
  5
135
  8
DISEGNO
 10
-0.4820055568122774
 20
12.59077667224045
 30
0.0
  0
VERTEX
  5
136
  8
DISEGNO
 10
-0.450959273709737
 20
12.59410043510426
 30
0.0
  0
VERTEX
  5
137
  8
DISEGNO
 10
-0.4200052077188661
 20
12.59765824391357
 30
0.0
  0
VERTEX
  5
138
  8
DISEGNO
 10
-0.389147289058082
 20
12.601456821827
 30
0.0
  0
VERTEX
  5
139
  8
DISEGNO
 10
-0.3583868633406324
 20
12.60549579630981
 30
0.0
  0
VERTEX
  5
13A
  8
DISEGNO
 10
-0.3277223472373996
 20
12.60976675380165
 30
0.0
  0
VERTEX
  5
13B
  8
DISEGNO
 10
-0.2971519995075733
 20
12.61426084721658
 30
0.0
  0
VERTEX
  5
13C
  8
DISEGNO
 10
-0.2362868442050063
 20
12.62388305347139
 30
0.0
  0
VERTEX
  5
13D
  8
DISEGNO
 10
-0.1757774675064321
 20
12.63429163838607
 30
0.0
  0
VERTEX
  5
13E
  8
DISEGNO
 10
-0.1156099394855377
 20
12.64541582527232
 30
0.0
  0
VERTEX
  5
13F
  8
DISEGNO
 10
-0.0557703302158876
 20
12.65718483744197
 30
0.0
  0
VERTEX
  5
140
  8
DISEGNO
 10
0.003755290228918
 20
12.66952789820676
 30
0.0
  0
VERTEX
  5
141
  8
DISEGNO
 10
0.0629808517753128
 20
12.68237423087851
 30
0.0
  0
VERTEX
  5
142
  8
DISEGNO
 10
0.1219202843496718
 20
12.69565305876896
 30
0.0
  0
VERTEX
  5
143
  8
DISEGNO
 10
0.1805875178783951
 20
12.70929360518989
 30
0.0
  0
VERTEX
  5
144
  8
DISEGNO
 10
0.2389964822879163
 20
12.72322509345307
 30
0.0
  0
VERTEX
  5
145
  8
DISEGNO
 10
0.2971611075046334
 20
12.73737674687032
 30
0.0
  0
VERTEX
  5
146
  8
DISEGNO
 10
0.3550953234549199
 20
12.75167778875335
 30
0.0
  0
VERTEX
  5
147
  8
DISEGNO
 10
0.4703282472619088
 20
12.78044493116396
 30
0.0
  0
VERTEX
  5
148
  8
DISEGNO
 10
0.5848066931201392
 20
12.80896030717913
 30
0.0
  0
VERTEX
  5
149
  8
DISEGNO
 10
0.6417978116345038
 20
12.82294664106788
 30
0.0
  0
VERTEX
  5
14A
  8
DISEGNO
 10
0.6986421004408567
 20
12.83665770329308
 30
0.0
  0
VERTEX
  5
14B
  8
DISEGNO
 10
0.7553534894656531
 20
12.85002271716653
 30
0.0
  0
VERTEX
  5
14C
  8
DISEGNO
 10
0.8119459086352714
 20
12.86297090599996
 30
0.0
  0
VERTEX
  5
14D
  8
DISEGNO
 10
0.8684332878761454
 20
12.87543149310521
 30
0.0
  0
VERTEX
  5
14E
  8
DISEGNO
 10
0.9248295571146536
 20
12.88733370179402
 30
0.0
  0
VERTEX
  5
14F
  8
DISEGNO
 10
0.9811486462772103
 20
12.89860675537817
 30
0.0
  0
VERTEX
  5
150
  8
DISEGNO
 10
1.037404485290233
 20
12.90917987716945
 30
0.0
  0
VERTEX
  5
151
  8
DISEGNO
 10
1.093611004080117
 20
12.9189822904796
 30
0.0
  0
VERTEX
  5
152
  8
DISEGNO
 10
1.149782132573239
 20
12.92794321862044
 30
0.0
  0
VERTEX
  5
153
  8
DISEGNO
 10
1.205931800696056
 20
12.93599188490373
 30
0.0
  0
VERTEX
  5
154
  8
DISEGNO
 10
1.234002940220586
 20
12.93965200213372
 30
0.0
  0
VERTEX
  5
155
  8
DISEGNO
 10
1.262073938374943
 20
12.94305751264121
 30
0.0
  0
VERTEX
  5
156
  8
DISEGNO
 10
1.290146536399916
 20
12.94619956934022
 30
0.0
  0
VERTEX
  5
157
  8
DISEGNO
 10
1.318222475536297
 20
12.94906932514472
 30
0.0
  0
VERTEX
  5
158
  8
DISEGNO
 10
1.346303497024912
 20
12.95165793296865
 30
0.0
  0
VERTEX
  5
159
  8
DISEGNO
 10
1.374391342106554
 20
12.95395654572597
 30
0.0
  0
VERTEX
  5
15A
  8
DISEGNO
 10
1.40248775202201
 20
12.95595631633071
 30
0.0
  0
VERTEX
  5
15B
  8
DISEGNO
 10
1.430594442805242
 20
12.95764867254133
 30
0.0
  0
VERTEX
  5
15C
  8
DISEGNO
 10
1.458712524793112
 20
12.9590316463772
 30
0.0
  0
VERTEX
  5
15D
  8
DISEGNO
 10
1.486842487853876
 20
12.96011003517968
 30
0.0
  0
VERTEX
  5
15E
  8
DISEGNO
 10
1.514984793694156
 20
12.96088894335272
 30
0.0
  0
VERTEX
  5
15F
  8
DISEGNO
 10
1.543139904020618
 20
12.96137347530021
 30
0.0
  0
VERTEX
  5
160
  8
DISEGNO
 10
1.571308280539844
 20
12.96156873542611
 30
0.0
  0
VERTEX
  5
161
  8
DISEGNO
 10
1.599490384958541
 20
12.9614798281344
 30
0.0
  0
VERTEX
  5
162
  8
DISEGNO
 10
1.627686678983272
 20
12.961111857829
 30
0.0
  0
VERTEX
  5
163
  8
DISEGNO
 10
1.655897624320696
 20
12.96046992891384
 30
0.0
  0
VERTEX
  5
164
  8
DISEGNO
 10
1.684123682677422
 20
12.95955914579288
 30
0.0
  0
VERTEX
  5
165
  8
DISEGNO
 10
1.712365315760113
 20
12.95838461287006
 30
0.0
  0
VERTEX
  5
166
  8
DISEGNO
 10
1.740622985275392
 20
12.95695143454936
 30
0.0
  0
VERTEX
  5
167
  8
DISEGNO
 10
1.768897152929861
 20
12.95526471523465
 30
0.0
  0
VERTEX
  5
168
  8
DISEGNO
 10
1.797188280430166
 20
12.95332955932991
 30
0.0
  0
VERTEX
  5
169
  8
DISEGNO
 10
1.825496829482931
 20
12.95115107123912
 30
0.0
  0
VERTEX
  5
16A
  8
DISEGNO
 10
1.882168039072434
 20
12.94608451611506
 30
0.0
  0
VERTEX
  5
16B
  8
DISEGNO
 10
1.93891447535138
 20
12.94010588509397
 30
0.0
  0
VERTEX
  5
16C
  8
DISEGNO
 10
1.995739831972818
 20
12.93325601340744
 30
0.0
  0
VERTEX
  5
16D
  8
DISEGNO
 10
2.052647802589759
 20
12.925575736287
 30
0.0
  0
VERTEX
  5
16E
  8
DISEGNO
 10
2.109642080855314
 20
12.91710588896422
 30
0.0
  0
VERTEX
  5
16F
  8
DISEGNO
 10
2.166726360422471
 20
12.90788730667063
 30
0.0
  0
VERTEX
  5
170
  8
DISEGNO
 10
2.223904334944306
 20
12.89796082463782
 30
0.0
  0
VERTEX
  5
171
  8
DISEGNO
 10
2.281179698073823
 20
12.88736727809729
 30
0.0
  0
VERTEX
  5
172
  8
DISEGNO
 10
2.338556143464116
 20
12.87614750228063
 30
0.0
  0
VERTEX
  5
173
  8
DISEGNO
 10
2.396037364768214
 20
12.86434233241934
 30
0.0
  0
VERTEX
  5
174
  8
DISEGNO
 10
2.453627055639148
 20
12.85199260374504
 30
0.0
  0
VERTEX
  5
175
  8
DISEGNO
 10
2.511328909729965
 20
12.83913915148925
 30
0.0
  0
VERTEX
  5
176
  8
DISEGNO
 10
2.56914662069372
 20
12.82582281088352
 30
0.0
  0
VERTEX
  5
177
  8
DISEGNO
 10
2.627083882183463
 20
12.81208441715935
 30
0.0
  0
VERTEX
  5
178
  8
DISEGNO
 10
2.685144387852201
 20
12.79796480554839
 30
0.0
  0
VERTEX
  5
179
  8
DISEGNO
 10
2.743331831353027
 20
12.78350481128211
 30
0.0
  0
VERTEX
  5
17A
  8
DISEGNO
 10
2.80164990633895
 20
12.76874526959211
 30
0.0
  0
VERTEX
  5
17B
  8
DISEGNO
 10
2.860102306463
 20
12.75372701570991
 30
0.0
  0
VERTEX
  5
17C
  8
DISEGNO
 10
2.977424856737807
 20
12.72307771229521
 30
0.0
  0
VERTEX
  5
17D
  8
DISEGNO
 10
3.095329031401707
 20
12.69188358289032
 30
0.0
  0
VERTEX
  5
17E
  8
DISEGNO
 10
3.213844379679125
 20
12.66047130934769
 30
0.0
  0
VERTEX
  5
17F
  8
DISEGNO
 10
3.333000450794385
 20
12.62916757351979
 30
0.0
  0
VERTEX
  5
180
  8
DISEGNO
 10
3.452826793971846
 20
12.59829905725894
 30
0.0
  0
VERTEX
  5
181
  8
DISEGNO
 10
3.513000551716503
 20
12.58313009454509
 30
0.0
  0
VERTEX
  5
182
  8
DISEGNO
 10
3.573352958435853
 20
12.56819244241761
 30
0.0
  0
VERTEX
  5
183
  8
DISEGNO
 10
3.633887702884023
 20
12.55352692253773
 30
0.0
  0
VERTEX
  5
184
  8
DISEGNO
 10
3.694602928008718
 20
12.539158994226
 30
0.0
  0
VERTEX
  5
185
  8
DISEGNO
 10
3.755480584426328
 20
12.52506926271102
 30
0.0
  0
VERTEX
  5
186
  8
DISEGNO
 10
3.816499683375307
 20
12.51123019090265
 30
0.0
  0
VERTEX
  5
187
  8
DISEGNO
 10
3.938878253821306
 20
12.48419387804468
 30
0.0
  0
VERTEX
  5
188
  8
DISEGNO
 10
4.061570729254603
 20
12.4578297589305
 30
0.0
  0
VERTEX
  5
189
  8
DISEGNO
 10
4.184409199583071
 20
12.43191753683857
 30
0.0
  0
VERTEX
  5
18A
  8
DISEGNO
 10
4.429852484556926
 20
12.38056759683475
 30
0.0
  0
VERTEX
  5
18B
  8
DISEGNO
 10
4.552121479018078
 20
12.35468928547965
 30
0.0
  0
VERTEX
  5
18C
  8
DISEGNO
 10
4.673864828005835
 20
12.32838168426028
 30
0.0
  0
VERTEX
  5
18D
  8
DISEGNO
 10
4.734486913543437
 20
12.31499805722597
 30
0.0
  0
VERTEX
  5
18E
  8
DISEGNO
 10
4.794914621428115
 20
12.30142449645499
 30
0.0
  0
VERTEX
  5
18F
  8
DISEGNO
 10
4.855126962898391
 20
12.28763346485715
 30
0.0
  0
VERTEX
  5
190
  8
DISEGNO
 10
4.915102949192745
 20
12.2735974253422
 30
0.0
  0
VERTEX
  5
191
  8
DISEGNO
 10
4.974821591549658
 20
12.25928884081999
 30
0.0
  0
VERTEX
  5
192
  8
DISEGNO
 10
5.034261901207627
 20
12.24468017420029
 30
0.0
  0
VERTEX
  5
193
  8
DISEGNO
 10
5.093402889405114
 20
12.22974388839293
 30
0.0
  0
VERTEX
  5
194
  8
DISEGNO
 10
5.152223567380622
 20
12.21445244630761
 30
0.0
  0
VERTEX
  5
195
  8
DISEGNO
 10
5.210702946372608
 20
12.19877831085425
 30
0.0
  0
VERTEX
  5
196
  8
DISEGNO
 10
5.26882003761955
 20
12.18269394494257
 30
0.0
  0
VERTEX
  5
197
  8
DISEGNO
 10
5.326553852359977
 20
12.16617181148243
 30
0.0
  0
VERTEX
  5
198
  8
DISEGNO
 10
5.383883401832337
 20
12.14918437338355
 30
0.0
  0
VERTEX
  5
199
  8
DISEGNO
 10
5.440787697275121
 20
12.13170409355581
 30
0.0
  0
VERTEX
  5
19A
  8
DISEGNO
 10
5.497245749926824
 20
12.11370343490898
 30
0.0
  0
VERTEX
  5
19B
  8
DISEGNO
 10
5.553236571025908
 20
12.09515486035279
 30
0.0
  0
VERTEX
  5
19C
  8
DISEGNO
 10
5.608739171810873
 20
12.07603083279711
 30
0.0
  0
VERTEX
  5
19D
  8
DISEGNO
 10
5.663732563520218
 20
12.05630381515175
 30
0.0
  0
VERTEX
  5
19E
  8
DISEGNO
 10
5.718195757392385
 20
12.03594627032643
 30
0.0
  0
VERTEX
  5
19F
  8
DISEGNO
 10
5.772107764665888
 20
12.01493066123102
 30
0.0
  0
VERTEX
  5
1A0
  8
DISEGNO
 10
5.825447596579179
 20
11.99322945077531
 30
0.0
  0
VERTEX
  5
1A1
  8
DISEGNO
 10
5.878194264370789
 20
11.9708151018691
 30
0.0
  0
VERTEX
  5
1A2
  8
DISEGNO
 10
5.904338602732969
 20
11.95933189515631
 30
0.0
  0
VERTEX
  5
1A3
  8
DISEGNO
 10
5.930326779279165
 20
11.9476600774221
 30
0.0
  0
VERTEX
  5
1A4
  8
DISEGNO
 10
5.956156170414166
 20
11.93579620653019
 30
0.0
  0
VERTEX
  5
1A5
  8
DISEGNO
 10
5.981824152542819
 20
11.92373684034424
 30
0.0
  0
VERTEX
  5
1A6
  8
DISEGNO
 10
6.007328102069875
 20
11.91147853672803
 30
0.0
  0
VERTEX
  5
1A7
  8
DISEGNO
 10
6.032665395400199
 20
11.89901785354524
 30
0.0
  0
VERTEX
  5
1A8
  8
DISEGNO
 10
6.057833408938562
 20
11.88635134865963
 30
0.0
  0
VERTEX
  5
1A9
  8
DISEGNO
 10
6.082829519089819
 20
11.87347557993492
 30
0.0
  0
VERTEX
  5
1AA
  8
DISEGNO
 10
6.107651102258716
 20
11.86038710523479
 30
0.0
  0
VERTEX
  5
1AB
  8
DISEGNO
 10
6.132295534850128
 20
11.84708248242306
 30
0.0
  0
VERTEX
  5
1AC
  8
DISEGNO
 10
6.156760193268825
 20
11.83355826936336
 30
0.0
  0
VERTEX
  5
1AD
  8
DISEGNO
 10
6.181042453919636
 20
11.81981102391948
 30
0.0
  0
VERTEX
  5
1AE
  8
DISEGNO
 10
6.20513969320737
 20
11.80583730395511
 30
0.0
  0
VERTEX
  5
1AF
  8
DISEGNO
 10
6.229049287536848
 20
11.79163366733394
 30
0.0
  0
VERTEX
  5
1B0
  8
DISEGNO
 10
6.252768613312844
 20
11.77719667191978
 30
0.0
  0
VERTEX
  5
1B1
  8
DISEGNO
 10
6.276295046940183
 20
11.76252287557628
 30
0.0
  0
VERTEX
  5
1B2
  8
DISEGNO
 10
6.299625964823717
 20
11.74760883616719
 30
0.0
  0
VERTEX
  5
1B3
  8
DISEGNO
 10
6.322758743368182
 20
11.73245111155628
 30
0.0
  0
VERTEX
  5
1B4
  8
DISEGNO
 10
6.345690758978462
 20
11.71704625960722
 30
0.0
  0
VERTEX
  5
1B5
  8
DISEGNO
 10
6.368419388059307
 20
11.70139083818376
 30
0.0
  0
VERTEX
  5
1B6
  8
DISEGNO
 10
6.39094200701558
 20
11.68548140514961
 30
0.0
  0
VERTEX
  5
1B7
  8
DISEGNO
 10
6.41325599225206
 20
11.66931451836849
 30
0.0
  0
VERTEX
  5
1B8
  8
DISEGNO
 10
6.435358720173559
 20
11.65288673570412
 30
0.0
  0
VERTEX
  5
1B9
  8
DISEGNO
 10
6.457247567184895
 20
11.63619461502027
 30
0.0
  0
VERTEX
  5
1BA
  8
DISEGNO
 10
6.478919909690889
 20
11.61923471418064
 30
0.0
  0
VERTEX
  5
1BB
  8
DISEGNO
 10
6.500373124096315
 20
11.6020035910489
 30
0.0
  0
VERTEX
  5
1BC
  8
DISEGNO
 10
6.521604586806033
 20
11.58449780348887
 30
0.0
  0
VERTEX
  5
1BD
  8
DISEGNO
 10
6.542611674224782
 20
11.56671390936418
 30
0.0
  0
VERTEX
  5
1BE
  8
DISEGNO
 10
6.563391762757478
 20
11.54864846653866
 30
0.0
  0
VERTEX
  5
1BF
  8
DISEGNO
 10
6.583942228808814
 20
11.53029803287593
 30
0.0
  0
VERTEX
  5
1C0
  8
DISEGNO
 10
6.604261138350656
 20
11.51166004430298
 30
0.0
  0
VERTEX
  5
1C1
  8
DISEGNO
 10
6.624350396440173
 20
11.49273682526335
 30
0.0
  0
VERTEX
  5
1C2
  8
DISEGNO
 10
6.644213236342635
 20
11.47353239148026
 30
0.0
  0
VERTEX
  5
1C3
  8
DISEGNO
 10
6.663852892603577
 20
11.45405076030719
 30
0.0
  0
VERTEX
  5
1C4
  8
DISEGNO
 10
6.68327259976847
 20
11.43429594909759
 30
0.0
  0
VERTEX
  5
1C5
  8
DISEGNO
 10
6.702475592382873
 20
11.41427197520498
 30
0.0
  0
VERTEX
  5
1C6
  8
DISEGNO
 10
6.721465104992346
 20
11.39398285598282
 30
0.0
  0
VERTEX
  5
1C7
  8
DISEGNO
 10
6.740244372142397
 20
11.3734326087846
 30
0.0
  0
VERTEX
  5
1C8
  8
DISEGNO
 10
6.758816628378531
 20
11.35262525096373
 30
0.0
  0
VERTEX
  5
1C9
  8
DISEGNO
 10
6.777185108246305
 20
11.3315647998738
 30
0.0
  0
VERTEX
  5
1CA
  8
DISEGNO
 10
6.795353046291259
 20
11.3102552728682
 30
0.0
  0
VERTEX
  5
1CB
  8
DISEGNO
 10
6.813323677058891
 20
11.28870068730045
 30
0.0
  0
VERTEX
  5
1CC
  8
DISEGNO
 10
6.831100235094768
 20
11.26690506052401
 30
0.0
  0
VERTEX
  5
1CD
  8
DISEGNO
 10
6.848685954944392
 20
11.2448724098924
 30
0.0
  0
VERTEX
  5
1CE
  8
DISEGNO
 10
6.866084071153272
 20
11.22260675275901
 30
0.0
  0
VERTEX
  5
1CF
  8
DISEGNO
 10
6.883297818266994
 20
11.20011210647738
 30
0.0
  0
VERTEX
  5
1D0
  8
DISEGNO
 10
6.900330430831046
 20
11.17739248840099
 30
0.0
  0
VERTEX
  5
1D1
  8
DISEGNO
 10
6.917185143390968
 20
11.15445191588333
 30
0.0
  0
VERTEX
  5
1D2
  8
DISEGNO
 10
6.933865190492307
 20
11.13129440627783
 30
0.0
  0
VERTEX
  5
1D3
  8
DISEGNO
 10
6.950373806680572
 20
11.10792397693799
 30
0.0
  0
VERTEX
  5
1D4
  8
DISEGNO
 10
6.966714226501301
 20
11.08434464521729
 30
0.0
  0
VERTEX
  5
1D5
  8
DISEGNO
 10
6.982889684499989
 20
11.06056042846919
 30
0.0
  0
VERTEX
  5
1D6
  8
DISEGNO
 10
6.998903415222236
 20
11.03657534404722
 30
0.0
  0
VERTEX
  5
1D7
  8
DISEGNO
 10
7.014758653213532
 20
11.01239340930486
 30
0.0
  0
VERTEX
  5
1D8
  8
DISEGNO
 10
7.030458633019355
 20
10.98801864159551
 30
0.0
  0
VERTEX
  5
1D9
  8
DISEGNO
 10
7.046006589185337
 20
10.96345505827267
 30
0.0
  0
VERTEX
  5
1DA
  8
DISEGNO
 10
7.076659368779714
 20
10.91377751420054
 30
0.0
  0
VERTEX
  5
1DB
  8
DISEGNO
 10
7.106742868360888
 20
10.86339291591629
 30
0.0
  0
VERTEX
  5
1DC
  8
DISEGNO
 10
7.136282964293082
 20
10.81233340224771
 30
0.0
  0
VERTEX
  5
1DD
  8
DISEGNO
 10
7.16530553294052
 20
10.76063111202263
 30
0.0
  0
VERTEX
  5
1DE
  8
DISEGNO
 10
7.193836450667488
 20
10.70831818406892
 30
0.0
  0
VERTEX
  5
1DF
  8
DISEGNO
 10
7.221901593838174
 20
10.65542675721434
 30
0.0
  0
VERTEX
  5
1E0
  8
DISEGNO
 10
7.249526838816854
 20
10.60198897028676
 30
0.0
  0
VERTEX
  5
1E1
  8
DISEGNO
 10
7.276738061967704
 20
10.54803696211398
 30
0.0
  0
VERTEX
  5
1E2
  8
DISEGNO
 10
7.303561139655057
 20
10.49360287152385
 30
0.0
  0
VERTEX
  5
1E3
  8
DISEGNO
 10
7.330021948243045
 20
10.43871883734415
 30
0.0
  0
VERTEX
  5
1E4
  8
DISEGNO
 10
7.356146364095972
 20
10.38341699840274
 30
0.0
  0
VERTEX
  5
1E5
  8
DISEGNO
 10
7.381960263578085
 20
10.32772949352746
 30
0.0
  0
VERTEX
  5
1E6
  8
DISEGNO
 10
7.407489523053561
 20
10.2716884615461
 30
0.0
  0
VERTEX
  5
1E7
  8
DISEGNO
 10
7.432760018886674
 20
10.21532604128648
 30
0.0
  0
VERTEX
  5
1E8
  8
DISEGNO
 10
7.457797627441641
 20
10.15867437157642
 30
0.0
  0
VERTEX
  5
1E9
  8
DISEGNO
 10
7.482628225082747
 20
10.10176559124381
 30
0.0
  0
VERTEX
  5
1EA
  8
DISEGNO
 10
7.507277688174186
 20
10.0446318391164
 30
0.0
  0
VERTEX
  5
1EB
  8
DISEGNO
 10
7.556136716165019
 20
9.929817974788607
 30
0.0
  0
VERTEX
  5
1EC
  8
DISEGNO
 10
7.604581722328055
 20
9.814489889215595
 30
0.0
  0
VERTEX
  5
1ED
  8
DISEGNO
 10
7.652819717577215
 20
9.698904693020014
 30
0.0
  0
VERTEX
  5
1EE
  8
DISEGNO
 10
5.542620927890082
 20
9.698904693020014
 30
0.0
  0
VERTEX
  5
1EF
  8
DISEGNO
 10
3.867113900395045
 20
-1.058888736805006
 30
0.0
  0
VERTEX
  5
1F0
  8
DISEGNO
 10
-0.7753234369166473
 20
-1.058888736805006
 30
0.0
  0
SEQEND
  5
5C6
  8
DISEGNO
  0
POLYLINE
  5
74
  8
DISEGNO
 66
     1
 10
0.0
 20
0.0
 30
0.0
 70
     1
  0
VERTEX
  5
1F1
  8
DISEGNO
 10
-11.84542628761517
 20
-2.329228408196665
 30
0.0
  0
VERTEX
  5
1F2
  8
DISEGNO
 10
-9.735227497928038
 20
-2.329228408196665
 30
0.0
  0
VERTEX
  5
1F3
  8
DISEGNO
 10
-8.059720470433124
 20
8.428565021628376
 30
0.0
  0
VERTEX
  5
1F4
  8
DISEGNO
 10
-3.41728313312143
 20
8.428565021628376
 30
0.0
  0
VERTEX
  5
1F5
  8
DISEGNO
 10
-1.885288000291995
 20
-2.329228408196665
 30
0.0
  0
VERTEX
  5
1F6
  8
DISEGNO
 10
4.977078463770662
 20
-2.329228408196665
 30
0.0
  0
VERTEX
  5
1F7
  8
DISEGNO
 10
6.652585491265553
 20
8.428565021628376
 30
0.0
  0
VERTEX
  5
1F8
  8
DISEGNO
 10
11.29502282857725
 20
8.428565021628376
 30
0.0
  0
VERTEX
  5
1F9
  8
DISEGNO
 10
12.8270179614067
 20
-2.329228408196665
 30
0.0
  0
VERTEX
  5
1FA
  8
DISEGNO
 10
14.93721675109383
 20
-2.329228408196665
 30
0.0
  0
VERTEX
  5
1FB
  8
DISEGNO
 10
14.78917725764466
 20
-2.577569533503473
 30
0.0
  0
VERTEX
  5
1FC
  8
DISEGNO
 10
14.64092987156175
 20
-2.825178651526657
 30
0.0
  0
VERTEX
  5
1FD
  8
DISEGNO
 10
14.4922667002115
 20
-3.071323754982574
 30
0.0
  0
VERTEX
  5
1FE
  8
DISEGNO
 10
14.41771422861303
 20
-3.193618548971656
 30
0.0
  0
VERTEX
  5
1FF
  8
DISEGNO
 10
14.34297985096011
 20
-3.31527283658758
 30
0.0
  0
VERTEX
  5
200
  8
DISEGNO
 10
14.2680375806735
 20
-3.43619511691984
 30
0.0
  0
VERTEX
  5
201
  8
DISEGNO
 10
14.19286143117394
 20
-3.556293889058051
 30
0.0
  0
VERTEX
  5
202
  8
DISEGNO
 10
14.11742541588229
 20
-3.675477652091728
 30
0.0
  0
VERTEX
  5
203
  8
DISEGNO
 10
14.04170354821927
 20
-3.793654905110364
 30
0.0
  0
VERTEX
  5
204
  8
DISEGNO
 10
13.9656698416057
 20
-3.910734147203575
 30
0.0
  0
VERTEX
  5
205
  8
DISEGNO
 10
13.8892983094624
 20
-4.026623877460896
 30
0.0
  0
VERTEX
  5
206
  8
DISEGNO
 10
13.81256296521011
 20
-4.141232594971839
 30
0.0
  0
VERTEX
  5
207
  8
DISEGNO
 10
13.73543782226967
 20
-4.25446879882596
 30
0.0
  0
VERTEX
  5
208
  8
DISEGNO
 10
13.65789689406179
 20
-4.366240988112834
 30
0.0
  0
VERTEX
  5
209
  8
DISEGNO
 10
13.5799141940073
 20
-4.476457661921996
 30
0.0
  0
VERTEX
  5
20A
  8
DISEGNO
 10
13.50146373552699
 20
-4.585027319342958
 30
0.0
  0
VERTEX
  5
20B
  8
DISEGNO
 10
13.42251953204167
 20
-4.691858459465278
 30
0.0
  0
VERTEX
  5
20C
  8
DISEGNO
 10
13.3430555969721
 20
-4.796859581378548
 30
0.0
  0
VERTEX
  5
20D
  8
DISEGNO
 10
13.26304594373905
 20
-4.899939184172263
 30
0.0
  0
VERTEX
  5
20E
  8
DISEGNO
 10
13.18246458576333
 20
-5.001005766935998
 30
0.0
  0
VERTEX
  5
20F
  8
DISEGNO
 10
13.14195139669097
 20
-5.050755581772108
 30
0.0
  0
VERTEX
  5
210
  8
DISEGNO
 10
13.10128553646571
 20
-5.099967828759288
 30
0.0
  0
VERTEX
  5
211
  8
DISEGNO
 10
13.06046375676521
 20
-5.148631070283756
 30
0.0
  0
VERTEX
  5
212
  8
DISEGNO
 10
13.01948280926702
 20
-5.196733868731688
 30
0.0
  0
VERTEX
  5
213
  8
DISEGNO
 10
12.97833944564876
 20
-5.244264786489259
 30
0.0
  0
VERTEX
  5
214
  8
DISEGNO
 10
12.93703041758802
 20
-5.291212385942689
 30
0.0
  0
VERTEX
  5
215
  8
DISEGNO
 10
12.89555247676237
 20
-5.337565229478193
 30
0.0
  0
VERTEX
  5
216
  8
DISEGNO
 10
12.85390237484947
 20
-5.38331187948193
 30
0.0
  0
VERTEX
  5
217
  8
DISEGNO
 10
12.8120768635269
 20
-5.428440898340093
 30
0.0
  0
VERTEX
  5
218
  8
DISEGNO
 10
12.7700726944722
 20
-5.472940848438882
 30
0.0
  0
VERTEX
  5
219
  8
DISEGNO
 10
12.72788661936304
 20
-5.516800292164493
 30
0.0
  0
VERTEX
  5
21A
  8
DISEGNO
 10
12.68551538987699
 20
-5.560007791903121
 30
0.0
  0
VERTEX
  5
21B
  8
DISEGNO
 10
12.64295575769165
 20
-5.602551910040967
 30
0.0
  0
VERTEX
  5
21C
  8
DISEGNO
 10
12.60020447448463
 20
-5.644421208964183
 30
0.0
  0
VERTEX
  5
21D
  8
DISEGNO
 10
12.55725829193348
 20
-5.685604251059029
 30
0.0
  0
VERTEX
  5
21E
  8
DISEGNO
 10
12.51411396171587
 20
-5.726089598711641
 30
0.0
  0
VERTEX
  5
21F
  8
DISEGNO
 10
12.47076823550934
 20
-5.765865814308236
 30
0.0
  0
VERTEX
  5
220
  8
DISEGNO
 10
12.42721786499155
 20
-5.80492146023503
 30
0.0
  0
VERTEX
  5
221
  8
DISEGNO
 10
12.38345960184004
 20
-5.843245098878139
 30
0.0
  0
VERTEX
  5
222
  8
DISEGNO
 10
12.33949019773244
 20
-5.880825292623864
 30
0.0
  0
VERTEX
  5
223
  8
DISEGNO
 10
12.29530640434632
 20
-5.917650603858297
 30
0.0
  0
VERTEX
  5
224
  8
DISEGNO
 10
12.2509049733593
 20
-5.953709594967696
 30
0.0
  0
VERTEX
  5
225
  8
DISEGNO
 10
12.20628265644896
 20
-5.98899082833824
 30
0.0
  0
VERTEX
  5
226
  8
DISEGNO
 10
12.16143620529294
 20
-6.023482866356105
 30
0.0
  0
VERTEX
  5
227
  8
DISEGNO
 10
12.11636237156881
 20
-6.057174271407506
 30
0.0
  0
VERTEX
  5
228
  8
DISEGNO
 10
12.07105790695415
 20
-6.090053605878621
 30
0.0
  0
VERTEX
  5
229
  8
DISEGNO
 10
12.02551956312659
 20
-6.122109432155627
 30
0.0
  0
VERTEX
  5
22A
  8
DISEGNO
 10
11.97974409176373
 20
-6.153330312624782
 30
0.0
  0
VERTEX
  5
22B
  8
DISEGNO
 10
11.93372824454313
 20
-6.183704809672199
 30
0.0
  0
VERTEX
  5
22C
  8
DISEGNO
 10
11.88746877314244
 20
-6.213221485684119
 30
0.0
  0
VERTEX
  5
22D
  8
DISEGNO
 10
11.84096242923922
 20
-6.241868903046737
 30
0.0
  0
VERTEX
  5
22E
  8
DISEGNO
 10
11.79420596451105
 20
-6.26963562414623
 30
0.0
  0
VERTEX
  5
22F
  8
DISEGNO
 10
11.74719613063559
 20
-6.296510211368794
 30
0.0
  0
VERTEX
  5
230
  8
DISEGNO
 10
11.69992967929042
 20
-6.322481227100607
 30
0.0
  0
VERTEX
  5
231
  8
DISEGNO
 10
11.65240336215311
 20
-6.347537233727886
 30
0.0
  0
VERTEX
  5
232
  8
DISEGNO
 10
11.60461393090129
 20
-6.371666793636827
 30
0.0
  0
VERTEX
  5
233
  8
DISEGNO
 10
11.55655813721252
 20
-6.394858469213606
 30
0.0
  0
VERTEX
  5
234
  8
DISEGNO
 10
11.50823273276444
 20
-6.417100822844422
 30
0.0
  0
VERTEX
  5
235
  8
DISEGNO
 10
11.45963446923461
 20
-6.43838241691547
 30
0.0
  0
VERTEX
  5
236
  8
DISEGNO
 10
11.41076009830066
 20
-6.458691813812948
 30
0.0
  0
VERTEX
  5
237
  8
DISEGNO
 10
11.36160637164018
 20
-6.478017575923031
 30
0.0
  0
VERTEX
  5
238
  8
DISEGNO
 10
11.31217004093077
 20
-6.496348265631939
 30
0.0
  0
VERTEX
  5
239
  8
DISEGNO
 10
11.26244785785001
 20
-6.513672445325846
 30
0.0
  0
VERTEX
  5
23A
  8
DISEGNO
 10
11.21243657407551
 20
-6.52997867739095
 30
0.0
  0
VERTEX
  5
23B
  8
DISEGNO
 10
11.16213294128486
 20
-6.545255524213447
 30
0.0
  0
VERTEX
  5
23C
  8
DISEGNO
 10
11.11153371115571
 20
-6.559491548179535
 30
0.0
  0
VERTEX
  5
23D
  8
DISEGNO
 10
11.06063563536559
 20
-6.57267531167537
 30
0.0
  0
VERTEX
  5
23E
  8
DISEGNO
 10
11.00943546559214
 20
-6.584795377087209
 30
0.0
  0
VERTEX
  5
23F
  8
DISEGNO
 10
10.95792995351292
 20
-6.595840306801189
 30
0.0
  0
VERTEX
  5
240
  8
DISEGNO
 10
10.90611585080558
 20
-6.605798663203526
 30
0.0
  0
VERTEX
  5
241
  8
DISEGNO
 10
10.85398990914767
 20
-6.614659008680438
 30
0.0
  0
VERTEX
  5
242
  8
DISEGNO
 10
10.80154888021683
 20
-6.622409905618062
 30
0.0
  0
VERTEX
  5
243
  8
DISEGNO
 10
10.74878969909556
 20
-6.629040748685369
 30
0.0
  0
VERTEX
  5
244
  8
DISEGNO
 10
10.69571337791614
 20
-6.634559434004439
 30
0.0
  0
VERTEX
  5
245
  8
DISEGNO
 10
10.64232492889118
 20
-6.638992009868133
 30
0.0
  0
VERTEX
  5
246
  8
DISEGNO
 10
10.58862953224278
 20
-6.642365286987474
 30
0.0
  0
VERTEX
  5
247
  8
DISEGNO
 10
10.53463236819297
 20
-6.644706076073585
 30
0.0
  0
VERTEX
  5
248
  8
DISEGNO
 10
10.48033861696379
 20
-6.64604118783751
 30
0.0
  0
VERTEX
  5
249
  8
DISEGNO
 10
10.42575345877726
 20
-6.646397432990333
 30
0.0
  0
VERTEX
  5
24A
  8
DISEGNO
 10
10.37088207385545
 20
-6.645801622243118
 30
0.0
  0
VERTEX
  5
24B
  8
DISEGNO
 10
10.31572964242036
 20
-6.644280566306968
 30
0.0
  0
VERTEX
  5
24C
  8
DISEGNO
 10
10.26030134469404
 20
-6.641861075892927
 30
0.0
  0
VERTEX
  5
24D
  8
DISEGNO
 10
10.20460236089859
 20
-6.638569961712078
 30
0.0
  0
VERTEX
  5
24E
  8
DISEGNO
 10
10.14863787125597
 20
-6.634434034475507
 30
0.0
  0
VERTEX
  5
24F
  8
DISEGNO
 10
10.09241305598827
 20
-6.629480104894275
 30
0.0
  0
VERTEX
  5
250
  8
DISEGNO
 10
10.03593309531751
 20
-6.623734983679467
 30
0.0
  0
VERTEX
  5
251
  8
DISEGNO
 10
9.979203169465725
 20
-6.617225481542125
 30
0.0
  0
VERTEX
  5
252
  8
DISEGNO
 10
9.922228458654933
 20
-6.609978409193396
 30
0.0
  0
VERTEX
  5
253
  8
DISEGNO
 10
9.865014143107265
 20
-6.602020577344281
 30
0.0
  0
VERTEX
  5
254
  8
DISEGNO
 10
9.80756540304464
 20
-6.593378796705864
 30
0.0
  0
VERTEX
  5
255
  8
DISEGNO
 10
9.749887418689196
 20
-6.584079877989272
 30
0.0
  0
VERTEX
  5
256
  8
DISEGNO
 10
9.691985370262946
 20
-6.574150631905503
 30
0.0
  0
VERTEX
  5
257
  8
DISEGNO
 10
9.633864437987887
 20
-6.563617869165725
 30
0.0
  0
VERTEX
  5
258
  8
DISEGNO
 10
9.575529802086079
 20
-6.5525084004809
 30
0.0
  0
VERTEX
  5
259
  8
DISEGNO
 10
9.51698664277959
 20
-6.540849036562212
 30
0.0
  0
VERTEX
  5
25A
  8
DISEGNO
 10
9.458240140290444
 20
-6.528666588120644
 30
0.0
  0
VERTEX
  5
25B
  8
DISEGNO
 10
9.34015782665231
 20
-6.502839680513346
 30
0.0
  0
VERTEX
  5
25C
  8
DISEGNO
 10
9.22132430294804
 20
-6.475242163347576
 30
0.0
  0
VERTEX
  5
25D
  8
DISEGNO
 10
9.10178101095394
 20
-6.446088522311902
 30
0.0
  0
VERTEX
  5
25E
  8
DISEGNO
 10
8.981569392446287
 20
-6.415593243094974
 30
0.0
  0
VERTEX
  5
25F
  8
DISEGNO
 10
8.860730889201468
 20
-6.383970811385383
 30
0.0
  0
VERTEX
  5
260
  8
DISEGNO
 10
8.739306942995723
 20
-6.351435712871677
 30
0.0
  0
VERTEX
  5
261
  8
DISEGNO
 10
8.61733899560546
 20
-6.318202433242486
 30
0.0
  0
VERTEX
  5
262
  8
DISEGNO
 10
8.371936864376464
 20
-6.250499273392006
 30
0.0
  0
VERTEX
  5
263
  8
DISEGNO
 10
8.124856029725015
 20
-6.182577217342683
 30
0.0
  0
VERTEX
  5
264
  8
DISEGNO
 10
8.00078970305673
 20
-6.14907031746493
 30
0.0
  0
VERTEX
  5
265
  8
DISEGNO
 10
7.876428025861729
 20
-6.11615215060329
 30
0.0
  0
VERTEX
  5
266
  8
DISEGNO
 10
7.751812439916419
 20
-6.084037202446292
 30
0.0
  0
VERTEX
  5
267
  8
DISEGNO
 10
7.626984386997107
 20
-6.052939958682545
 30
0.0
  0
VERTEX
  5
268
  8
DISEGNO
 10
7.501985308880071
 20
-6.02307490500066
 30
0.0
  0
VERTEX
  5
269
  8
DISEGNO
 10
7.376856647341667
 20
-5.994656527089245
 30
0.0
  0
VERTEX
  5
26A
  8
DISEGNO
 10
7.251639844158211
 20
-5.96789931063687
 30
0.0
  0
VERTEX
  5
26B
  8
DISEGNO
 10
7.126376341106022
 20
-5.943017741332126
 30
0.0
  0
VERTEX
  5
26C
  8
DISEGNO
 10
7.063740027684252
 20
-5.931347351137809
 30
0.0
  0
VERTEX
  5
26D
  8
DISEGNO
 10
7.001107579961404
 20
-5.9202263048636
 30
0.0
  0
VERTEX
  5
26E
  8
DISEGNO
 10
6.938484178159536
 20
-5.909681413220644
 30
0.0
  0
VERTEX
  5
26F
  8
DISEGNO
 10
6.87587500250069
 20
-5.899739486919944
 30
0.0
  0
VERTEX
  5
270
  8
DISEGNO
 10
6.813285233206892
 20
-5.890427336672603
 30
0.0
  0
VERTEX
  5
271
  8
DISEGNO
 10
6.750720050500179
 20
-5.881771773189686
 30
0.0
  0
VERTEX
  5
272
  8
DISEGNO
 10
6.688184634602619
 20
-5.873799607182275
 30
0.0
  0
VERTEX
  5
273
  8
DISEGNO
 10
6.625684165736216
 20
-5.866537649361436
 30
0.0
  0
VERTEX
  5
274
  8
DISEGNO
 10
6.563223824123044
 20
-5.860012710438291
 30
0.0
  0
VERTEX
  5
275
  8
DISEGNO
 10
6.500808542131322
 20
-5.854249698517066
 30
0.0
  0
VERTEX
  5
276
  8
DISEGNO
 10
6.438440273702936
 20
-5.849250658328274
 30
0.0
  0
VERTEX
  5
277
  8
DISEGNO
 10
6.376119004066764
 20
-5.845002522117207
 30
0.0
  0
VERTEX
  5
278
  8
DISEGNO
 10
6.31384468345488
 20
-5.84149195348337
 30
0.0
  0
VERTEX
  5
279
  8
DISEGNO
 10
6.251617262099428
 20
-5.838705616026227
 30
0.0
  0
VERTEX
  5
27A
  8
DISEGNO
 10
6.189436690232631
 20
-5.836630173345323
 30
0.0
  0
VERTEX
  5
27B
  8
DISEGNO
 10
6.127302918086512
 20
-5.835252289040119
 30
0.0
  0
VERTEX
  5
27C
  8
DISEGNO
 10
6.065215895893337
 20
-5.834558626710124
 30
0.0
  0
VERTEX
  5
27D
  8
DISEGNO
 10
6.003175573885189
 20
-5.834535849954839
 30
0.0
  0
VERTEX
  5
27E
  8
DISEGNO
 10
5.941181902294185
 20
-5.835170622373749
 30
0.0
  0
VERTEX
  5
27F
  8
DISEGNO
 10
5.879234831352532
 20
-5.836449607566358
 30
0.0
  0
VERTEX
  5
280
  8
DISEGNO
 10
5.817334311292315
 20
-5.838359469132172
 30
0.0
  0
VERTEX
  5
281
  8
DISEGNO
 10
5.755480292345736
 20
-5.840886870670672
 30
0.0
  0
VERTEX
  5
282
  8
DISEGNO
 10
5.693672724744912
 20
-5.844018475781365
 30
0.0
  0
VERTEX
  5
283
  8
DISEGNO
 10
5.631911558721976
 20
-5.847740948063774
 30
0.0
  0
VERTEX
  5
284
  8
DISEGNO
 10
5.570196744509085
 20
-5.852040951117344
 30
0.0
  0
VERTEX
  5
285
  8
DISEGNO
 10
5.508528232338383
 20
-5.856905148541617
 30
0.0
  0
VERTEX
  5
286
  8
DISEGNO
 10
5.446905972442009
 20
-5.86232020393606
 30
0.0
  0
VERTEX
  5
287
  8
DISEGNO
 10
5.385329915052116
 20
-5.868272780900177
 30
0.0
  0
VERTEX
  5
288
  8
DISEGNO
 10
5.262316208720302
 20
-5.881737153935445
 30
0.0
  0
VERTEX
  5
289
  8
DISEGNO
 10
5.139486715200144
 20
-5.897191576443377
 30
0.0
  0
VERTEX
  5
28A
  8
DISEGNO
 10
5.016841036348788
 20
-5.914529357220006
 30
0.0
  0
VERTEX
  5
28B
  8
DISEGNO
 10
4.894378774023336
 20
-5.933643805061246
 30
0.0
  0
VERTEX
  5
28C
  8
DISEGNO
 10
4.772099530081013
 20
-5.95442822876313
 30
0.0
  0
VERTEX
  5
28D
  8
DISEGNO
 10
4.650002906378882
 20
-5.976775937121594
 30
0.0
  0
VERTEX
  5
28E
  8
DISEGNO
 10
4.528088504774169
 20
-6.00058023893265
 30
0.0
  0
VERTEX
  5
28F
  8
DISEGNO
 10
4.406355927124059
 20
-6.025734442992231
 30
0.0
  0
VERTEX
  5
290
  8
DISEGNO
 10
4.284804775285613
 20
-6.052131858096374
 30
0.0
  0
VERTEX
  5
291
  8
DISEGNO
 10
4.163434651116019
 20
-6.07966579304103
 30
0.0
  0
VERTEX
  5
292
  8
DISEGNO
 10
4.042245156472477
 20
-6.108229556622153
 30
0.0
  0
VERTEX
  5
293
  8
DISEGNO
 10
3.921235893212076
 20
-6.137716457635779
 30
0.0
  0
VERTEX
  5
294
  8
DISEGNO
 10
3.800406463192013
 20
-6.168019804877799
 30
0.0
  0
VERTEX
  5
295
  8
DISEGNO
 10
3.679756468269398
 20
-6.199032907144289
 30
0.0
  0
VERTEX
  5
296
  8
DISEGNO
 10
3.438993191145263
 20
-6.262761611934453
 30
0.0
  0
VERTEX
  5
297
  8
DISEGNO
 10
3.198942876696828
 20
-6.328049042374039
 30
0.0
  0
VERTEX
  5
298
  8
DISEGNO
 10
2.959602339781418
 20
-6.394041668830898
 30
0.0
  0
VERTEX
  5
299
  8
DISEGNO
 10
2.720968395256191
 20
-6.459885961672861
 30
0.0
  0
VERTEX
  5
29A
  8
DISEGNO
 10
2.483037857978401
 20
-6.524728391267759
 30
0.0
  0
VERTEX
  5
29B
  8
DISEGNO
 10
2.36433537170017
 20
-6.556507179337523
 30
0.0
  0
VERTEX
  5
29C
  8
DISEGNO
 10
2.245807542805277
 20
-6.587715427983422
 30
0.0
  0
VERTEX
  5
29D
  8
DISEGNO
 10
2.127453973150844
 20
-6.61824644600147
 30
0.0
  0
VERTEX
  5
29E
  8
DISEGNO
 10
2.009274264594037
 20
-6.647993542187661
 30
0.0
  0
VERTEX
  5
29F
  8
DISEGNO
 10
1.891268018992017
 20
-6.676850025337949
 30
0.0
  0
VERTEX
  5
2A0
  8
DISEGNO
 10
1.773434838201931
 20
-6.704709204248307
 30
0.0
  0
VERTEX
  5
2A1
  8
DISEGNO
 10
1.655774324080964
 20
-6.73146438771475
 30
0.0
  0
VERTEX
  5
2A2
  8
DISEGNO
 10
1.538286078486175
 20
-6.757008884533211
 30
0.0
  0
VERTEX
  5
2A3
  8
DISEGNO
 10
1.420969703274831
 20
-6.781236003499703
 30
0.0
  0
VERTEX
  5
2A4
  8
DISEGNO
 10
1.303824800304019
 20
-6.804039053410182
 30
0.0
  0
VERTEX
  5
2A5
  8
DISEGNO
 10
1.1868509714309
 20
-6.82531134306064
 30
0.0
  0
VERTEX
  5
2A6
  8
DISEGNO
 10
1.070047818512659
 20
-6.844946181247051
 30
0.0
  0
VERTEX
  5
2A7
  8
DISEGNO
 10
0.9534149434064199
 20
-6.86283687676539
 30
0.0
  0
VERTEX
  5
2A8
  8
DISEGNO
 10
0.8369519479693464
 20
-6.878876738411649
 30
0.0
  0
VERTEX
  5
2A9
  8
DISEGNO
 10
0.7206584340585829
 20
-6.892959074981784
 30
0.0
  0
VERTEX
  5
2AA
  8
DISEGNO
 10
0.6045340035312952
 20
-6.904977195271787
 30
0.0
  0
VERTEX
  5
2AB
  8
DISEGNO
 10
0.5465350701168299
 20
-6.91017883331047
 30
0.0
  0
VERTEX
  5
2AC
  8
DISEGNO
 10
0.4885782582446472
 20
-6.914824408077633
 30
0.0
  0
VERTEX
  5
2AD
  8
DISEGNO
 10
0.4306635181469092
 20
-6.91890058317274
 30
0.0
  0
VERTEX
  5
2AE
  8
DISEGNO
 10
0.3727908000557603
 20
-6.922394022195295
 30
0.0
  0
VERTEX
  5
2AF
  8
DISEGNO
 10
0.3149600542033431
 20
-6.925291388744824
 30
0.0
  0
VERTEX
  5
2B0
  8
DISEGNO
 10
0.2571712308218197
 20
-6.927579346420788
 30
0.0
  0
VERTEX
  5
2B1
  8
DISEGNO
 10
0.199424280143276
 20
-6.929244558822694
 30
0.0
  0
VERTEX
  5
2B2
  8
DISEGNO
 10
0.1417191523999326
 20
-6.930273689550044
 30
0.0
  0
VERTEX
  5
2B3
  8
DISEGNO
 10
0.0840557978239127
 20
-6.930653402202345
 30
0.0
  0
VERTEX
  5
2B4
  8
DISEGNO
 10
0.0264341666473198
 20
-6.930370360379059
 30
0.0
  0
VERTEX
  5
2B5
  8
DISEGNO
 10
-0.0311457908976644
 20
-6.929411227679731
 30
0.0
  0
VERTEX
  5
2B6
  8
DISEGNO
 10
-0.0886847590831812
 20
-6.927767517116717
 30
0.0
  0
VERTEX
  5
2B7
  8
DISEGNO
 10
-0.1461860870879177
 20
-6.925451109150686
 30
0.0
  0
VERTEX
  5
2B8
  8
DISEGNO
 10
-0.2036538236097203
 20
-6.922479230552989
 30
0.0
  0
VERTEX
  5
2B9
  8
DISEGNO
 10
-0.261092017349281
 20
-6.918869108116961
 30
0.0
  0
VERTEX
  5
2BA
  8
DISEGNO
 10
-0.3185047170073381
 20
-6.914637968635891
 30
0.0
  0
VERTEX
  5
2BB
  8
DISEGNO
 10
-0.3758959712845054
 20
-6.909803038903115
 30
0.0
  0
VERTEX
  5
2BC
  8
DISEGNO
 10
-0.4332698288815424
 20
-6.904381545711861
 30
0.0
  0
VERTEX
  5
2BD
  8
DISEGNO
 10
-0.4906303384991217
 20
-6.898390715855526
 30
0.0
  0
VERTEX
  5
2BE
  8
DISEGNO
 10
-0.5479815488379194
 20
-6.891847776127359
 30
0.0
  0
VERTEX
  5
2BF
  8
DISEGNO
 10
-0.6626722664819769
 20
-6.877174474228782
 30
0.0
  0
VERTEX
  5
2C0
  8
DISEGNO
 10
-0.7773743714193009
 20
-6.860499454362528
 30
0.0
  0
VERTEX
  5
2C1
  8
DISEGNO
 10
-0.8921202532553976
 20
-6.841960530875077
 30
0.0
  0
VERTEX
  5
2C2
  8
DISEGNO
 10
-1.006942301595857
 20
-6.821695518112847
 30
0.0
  0
VERTEX
  5
2C3
  8
DISEGNO
 10
-1.121872906046202
 20
-6.799842230422216
 30
0.0
  0
VERTEX
  5
2C4
  8
DISEGNO
 10
-1.236944456212003
 20
-6.776538482149684
 30
0.0
  0
VERTEX
  5
2C5
  8
DISEGNO
 10
-1.352189341698782
 20
-6.751922087641629
 30
0.0
  0
VERTEX
  5
2C6
  8
DISEGNO
 10
-1.467639952112112
 20
-6.726130861244508
 30
0.0
  0
VERTEX
  5
2C7
  8
DISEGNO
 10
-1.583328677057516
 20
-6.699302617304721
 30
0.0
  0
VERTEX
  5
2C8
  8
DISEGNO
 10
-1.699287906140562
 20
-6.671575170168706
 30
0.0
  0
VERTEX
  5
2C9
  8
DISEGNO
 10
-1.815550028966776
 20
-6.643086334182902
 30
0.0
  0
VERTEX
  5
2CA
  8
DISEGNO
 10
-1.932147435141724
 20
-6.613973923693707
 30
0.0
  0
VERTEX
  5
2CB
  8
DISEGNO
 10
-2.166477655960058
 20
-6.55442963659094
 30
0.0
  0
VERTEX
  5
2CC
  8
DISEGNO
 10
-2.402537685439855
 20
-6.494044823631812
 30
0.0
  0
VERTEX
  5
2CD
  8
DISEGNO
 10
-2.521297352441705
 20
-6.463881755822162
 30
0.0
  0
VERTEX
  5
2CE
  8
DISEGNO
 10
-2.640586640425552
 20
-6.433921999587712
 30
0.0
  0
VERTEX
  5
2CF
  8
DISEGNO
 10
-2.760437938996981
 20
-6.404303369274881
 30
0.0
  0
VERTEX
  5
2D0
  8
DISEGNO
 10
-2.880883637761542
 20
-6.375163679230108
 30
0.0
  0
VERTEX
  5
2D1
  8
DISEGNO
 10
-3.00195612632476
 20
-6.34664074379979
 30
0.0
  0
VERTEX
  5
2D2
  8
DISEGNO
 10
-3.123687794292183
 20
-6.318872377330389
 30
0.0
  0
VERTEX
  5
2D3
  8
DISEGNO
 10
-3.246111031269376
 20
-6.291996394168279
 30
0.0
  0
VERTEX
  5
2D4
  8
DISEGNO
 10
-3.369258226861865
 20
-6.266150608659961
 30
0.0
  0
VERTEX
  5
2D5
  8
DISEGNO
 10
-3.49316177067522
 20
-6.241472835151814
 30
0.0
  0
VERTEX
  5
2D6
  8
DISEGNO
 10
-3.617854052314987
 20
-6.218100887990276
 30
0.0
  0
VERTEX
  5
2D7
  8
DISEGNO
 10
-3.743367461386713
 20
-6.196172581521784
 30
0.0
  0
VERTEX
  5
2D8
  8
DISEGNO
 10
-3.869734387495944
 20
-6.175825730092739
 30
0.0
  0
VERTEX
  5
2D9
  8
DISEGNO
 10
-3.996987220248206
 20
-6.157198148049577
 30
0.0
  0
VERTEX
  5
2DA
  8
DISEGNO
 10
-4.125158349249089
 20
-6.140427649738739
 30
0.0
  0
VERTEX
  5
2DB
  8
DISEGNO
 10
-4.189598396594482
 20
-6.132781873966215
 30
0.0
  0
VERTEX
  5
2DC
  8
DISEGNO
 10
-4.254280164104117
 20
-6.125652049506662
 30
0.0
  0
VERTEX
  5
2DD
  8
DISEGNO
 10
-4.31920770047865
 20
-6.119055403153395
 30
0.0
  0
VERTEX
  5
2DE
  8
DISEGNO
 10
-4.384385054418818
 20
-6.113009161699746
 30
0.0
  0
VERTEX
  5
2DF
  8
DISEGNO
 10
-4.449816273304407
 20
-6.107530548823979
 30
0.0
  0
VERTEX
  5
2E0
  8
DISEGNO
 10
-4.515502334865294
 20
-6.102629549220594
 30
0.0
  0
VERTEX
  5
2E1
  8
DISEGNO
 10
-4.58143458962428
 20
-6.09829344427952
 30
0.0
  0
VERTEX
  5
2E2
  8
DISEGNO
 10
-4.647602505747331
 20
-6.094505076333813
 30
0.0
  0
VERTEX
  5
2E3
  8
DISEGNO
 10
-4.71399555140046
 20
-6.091247287716573
 30
0.0
  0
VERTEX
  5
2E4
  8
DISEGNO
 10
-4.780603194749675
 20
-6.088502920760941
 30
0.0
  0
VERTEX
  5
2E5
  8
DISEGNO
 10
-4.914420147200262
 20
-6.084485821166851
 30
0.0
  0
VERTEX
  5
2E6
  8
DISEGNO
 10
-5.048969108427092
 20
-6.082316516216355
 30
0.0
  0
VERTEX
  5
2E7
  8
DISEGNO
 10
-5.184165823758146
 20
-6.081857744574265
 30
0.0
  0
VERTEX
  5
2E8
  8
DISEGNO
 10
-5.319926038521361
 20
-6.082972244905474
 30
0.0
  0
VERTEX
  5
2E9
  8
DISEGNO
 10
-5.456165498044759
 20
-6.085522755874752
 30
0.0
  0
VERTEX
  5
2EA
  8
DISEGNO
 10
-5.592799947656298
 20
-6.089372016146934
 30
0.0
  0
VERTEX
  5
2EB
  8
DISEGNO
 10
-5.729745132683956
 20
-6.09438276438693
 30
0.0
  0
VERTEX
  5
2EC
  8
DISEGNO
 10
-5.866916798455694
 20
-6.100417739259453
 30
0.0
  0
VERTEX
  5
2ED
  8
DISEGNO
 10
-6.004230690299512
 20
-6.107339679429435
 30
0.0
  0
VERTEX
  5
2EE
  8
DISEGNO
 10
-6.141602553543345
 20
-6.115011323561649
 30
0.0
  0
VERTEX
  5
2EF
  8
DISEGNO
 10
-6.278948133515197
 20
-6.123295410320986
 30
0.0
  0
VERTEX
  5
2F0
  8
DISEGNO
 10
-6.55322342495483
 20
-6.141151866380179
 30
0.0
  0
VERTEX
  5
2F1
  8
DISEGNO
 10
-6.826382527242224
 20
-6.159810956925733
 30
0.0
  0
VERTEX
  5
2F2
  8
DISEGNO
 10
-6.962332870773751
 20
-6.169098336792949
 30
0.0
  0
VERTEX
  5
2F3
  8
DISEGNO
 10
-7.097751403001151
 20
-6.178174591276263
 30
0.0
  0
VERTEX
  5
2F4
  8
DISEGNO
 10
-7.232553869252364
 20
-6.186902459040465
 30
0.0
  0
VERTEX
  5
2F5
  8
DISEGNO
 10
-7.366656014855407
 20
-6.195144678750428
 30
0.0
  0
VERTEX
  5
2F6
  8
DISEGNO
 10
-7.499973585138222
 20
-6.202763989070944
 30
0.0
  0
VERTEX
  5
2F7
  8
DISEGNO
 10
-7.632422325428787
 20
-6.209623128666905
 30
0.0
  0
VERTEX
  5
2F8
  8
DISEGNO
 10
-7.763917981055101
 20
-6.215584836203084
 30
0.0
  0
VERTEX
  5
2F9
  8
DISEGNO
 10
-7.894376297345103
 20
-6.220511850344332
 30
0.0
  0
VERTEX
  5
2FA
  8
DISEGNO
 10
-8.023713019626793
 20
-6.224266909755502
 30
0.0
  0
VERTEX
  5
2FB
  8
DISEGNO
 10
-8.151843893228152
 20
-6.226712753101386
 30
0.0
  0
VERTEX
  5
2FC
  8
DISEGNO
 10
-8.278684663477135
 20
-6.227712119046855
 30
0.0
  0
VERTEX
  5
2FD
  8
DISEGNO
 10
-8.34159493025948
 20
-6.227626478827182
 30
0.0
  0
VERTEX
  5
2FE
  8
DISEGNO
 10
-8.404151075701703
 20
-6.227127746256723
 30
0.0
  0
VERTEX
  5
2FF
  8
DISEGNO
 10
-8.466342567969841
 20
-6.226198763668556
 30
0.0
  0
VERTEX
  5
300
  8
DISEGNO
 10
-8.52815887522988
 20
-6.224822373395821
 30
0.0
  0
VERTEX
  5
301
  8
DISEGNO
 10
-8.589589465647789
 20
-6.222981417771597
 30
0.0
  0
VERTEX
  5
302
  8
DISEGNO
 10
-8.650623807389598
 20
-6.220658739128982
 30
0.0
  0
VERTEX
  5
303
  8
DISEGNO
 10
-8.711251368621278
 20
-6.217837179801116
 30
0.0
  0
VERTEX
  5
304
  8
DISEGNO
 10
-8.77146161750884
 20
-6.214499582121038
 30
0.0
  0
VERTEX
  5
305
  8
DISEGNO
 10
-8.831244022218272
 20
-6.210628788421926
 30
0.0
  0
VERTEX
  5
306
  8
DISEGNO
 10
-8.890588050915584
 20
-6.20620764103684
 30
0.0
  0
VERTEX
  5
307
  8
DISEGNO
 10
-8.949483171766767
 20
-6.201218982298879
 30
0.0
  0
VERTEX
  5
308
  8
DISEGNO
 10
-9.007918852937811
 20
-6.195645654541181
 30
0.0
  0
VERTEX
  5
309
  8
DISEGNO
 10
-9.065884562594725
 20
-6.189470500096867
 30
0.0
  0
VERTEX
  5
30A
  8
DISEGNO
 10
-9.1233697689035
 20
-6.182676361298954
 30
0.0
  0
VERTEX
  5
30B
  8
DISEGNO
 10
-9.180363940030125
 20
-6.175246080480623
 30
0.0
  0
VERTEX
  5
30C
  8
DISEGNO
 10
-9.23685654414061
 20
-6.16716249997493
 30
0.0
  0
VERTEX
  5
30D
  8
DISEGNO
 10
-9.292837049400942
 20
-6.158408462115017
 30
0.0
  0
VERTEX
  5
30E
  8
DISEGNO
 10
-9.348294923977116
 20
-6.148966809233962
 30
0.0
  0
VERTEX
  5
30F
  8
DISEGNO
 10
-9.403219636035141
 20
-6.138820383664884
 30
0.0
  0
VERTEX
  5
310
  8
DISEGNO
 10
-9.457600653741006
 20
-6.127952027740902
 30
0.0
  0
VERTEX
  5
311
  8
DISEGNO
 10
-9.511427445260699
 20
-6.116344583795074
 30
0.0
  0
VERTEX
  5
312
  8
DISEGNO
 10
-9.564689478760231
 20
-6.103980894160541
 30
0.0
  0
VERTEX
  5
313
  8
DISEGNO
 10
-9.617376222405593
 20
-6.090843801170401
 30
0.0
  0
VERTEX
  5
314
  8
DISEGNO
 10
-9.669477144362796
 20
-6.076916147157752
 30
0.0
  0
VERTEX
  5
315
  8
DISEGNO
 10
-9.720981712797807
 20
-6.062180774455695
 30
0.0
  0
VERTEX
  5
316
  8
DISEGNO
 10
-9.771879395876637
 20
-6.046620525397327
 30
0.0
  0
VERTEX
  5
317
  8
DISEGNO
 10
-9.822159661765314
 20
-6.03021824231579
 30
0.0
  0
VERTEX
  5
318
  8
DISEGNO
 10
-9.871811978629792
 20
-6.012956767544139
 30
0.0
  0
VERTEX
  5
319
  8
DISEGNO
 10
-9.920825814636059
 20
-5.994818943415537
 30
0.0
  0
VERTEX
  5
31A
  8
DISEGNO
 10
-9.969190637950165
 20
-5.97578761226302
 30
0.0
  0
VERTEX
  5
31B
  8
DISEGNO
 10
-10.01689591673808
 20
-5.955845616419749
 30
0.0
  0
VERTEX
  5
31C
  8
DISEGNO
 10
-10.06393111916577
 20
-5.934975798218762
 30
0.0
  0
VERTEX
  5
31D
  8
DISEGNO
 10
-10.11028571339927
 20
-5.913160999993258
 30
0.0
  0
VERTEX
  5
31E
  8
DISEGNO
 10
-10.15594916760457
 20
-5.890384064076237
 30
0.0
  0
VERTEX
  5
31F
  8
DISEGNO
 10
-10.20091094994768
 20
-5.866627832800896
 30
0.0
  0
VERTEX
  5
320
  8
DISEGNO
 10
-10.24516052859455
 20
-5.841875148500276
 30
0.0
  0
VERTEX
  5
321
  8
DISEGNO
 10
-10.28868737171122
 20
-5.816108853507496
 30
0.0
  0
VERTEX
  5
322
  8
DISEGNO
 10
-10.33148094746368
 20
-5.789311790155653
 30
0.0
  0
VERTEX
  5
323
  8
DISEGNO
 10
-10.37353072401792
 20
-5.761466800777888
 30
0.0
  0
VERTEX
  5
324
  8
DISEGNO
 10
-10.41482616953993
 20
-5.732556727707259
 30
0.0
  0
VERTEX
  5
325
  8
DISEGNO
 10
-10.45535675219572
 20
-5.702564413276926
 30
0.0
  0
VERTEX
  5
326
  8
DISEGNO
 10
-10.49511194015126
 20
-5.671472699819927
 30
0.0
  0
VERTEX
  5
327
  8
DISEGNO
 10
-10.5340812015726
 20
-5.639264429669422
 30
0.0
  0
VERTEX
  5
328
  8
DISEGNO
 10
-10.57225400462569
 20
-5.605922445158448
 30
0.0
  0
VERTEX
  5
329
  8
DISEGNO
 10
-10.60962045301098
 20
-5.571430550555832
 30
0.0
  0
VERTEX
  5
32A
  8
DISEGNO
 10
-10.64618301703765
 20
-5.535791268048432
 30
0.0
  0
VERTEX
  5
32B
  8
DISEGNO
 10
-10.68195539912216
 20
-5.499024120576475
 30
0.0
  0
VERTEX
  5
32C
  8
DISEGNO
 10
-10.71695170965632
 20
-5.461149248585761
 30
0.0
  0
VERTEX
  5
32D
  8
DISEGNO
 10
-10.75118605903197
 20
-5.422186792522123
 30
0.0
  0
VERTEX
  5
32E
  8
DISEGNO
 10
-10.78467255764092
 20
-5.38215689283132
 30
0.0
  0
VERTEX
  5
32F
  8
DISEGNO
 10
-10.81742531587502
 20
-5.341079689959169
 30
0.0
  0
VERTEX
  5
330
  8
DISEGNO
 10
-10.84945844412605
 20
-5.298975324351425
 30
0.0
  0
VERTEX
  5
331
  8
DISEGNO
 10
-10.88078605278587
 20
-5.255863936453906
 30
0.0
  0
VERTEX
  5
332
  8
DISEGNO
 10
-10.91142225224631
 20
-5.211765666712428
 30
0.0
  0
VERTEX
  5
333
  8
DISEGNO
 10
-10.94138115289915
 20
-5.166700655572768
 30
0.0
  0
VERTEX
  5
334
  8
DISEGNO
 10
-10.97067686513626
 20
-5.120689043480724
 30
0.0
  0
VERTEX
  5
335
  8
DISEGNO
 10
-10.99932349934943
 20
-5.07375097088209
 30
0.0
  0
VERTEX
  5
336
  8
DISEGNO
 10
-11.02733516593052
 20
-5.025906578222665
 30
0.0
  0
VERTEX
  5
337
  8
DISEGNO
 10
-11.05472597527131
 20
-4.977176005948245
 30
0.0
  0
VERTEX
  5
338
  8
DISEGNO
 10
-11.08151003776369
 20
-4.927579394504585
 30
0.0
  0
VERTEX
  5
339
  8
DISEGNO
 10
-11.10770146379941
 20
-4.877136884337585
 30
0.0
  0
VERTEX
  5
33A
  8
DISEGNO
 10
-11.13331436377035
 20
-4.825868615892919
 30
0.0
  0
VERTEX
  5
33B
  8
DISEGNO
 10
-11.1583628480683
 20
-4.773794729616466
 30
0.0
  0
VERTEX
  5
33C
  8
DISEGNO
 10
-11.1828610270851
 20
-4.720935365953979
 30
0.0
  0
VERTEX
  5
33D
  8
DISEGNO
 10
-11.20682301121257
 20
-4.667310665351259
 30
0.0
  0
VERTEX
  5
33E
  8
DISEGNO
 10
-11.23026291084255
 20
-4.61294076825412
 30
0.0
  0
VERTEX
  5
33F
  8
DISEGNO
 10
-11.25319483636684
 20
-4.55784581510836
 30
0.0
  0
VERTEX
  5
340
  8
DISEGNO
 10
-11.27563289817728
 20
-4.502045946359735
 30
0.0
  0
VERTEX
  5
341
  8
DISEGNO
 10
-11.2975912066657
 20
-4.445561302454083
 30
0.0
  0
VERTEX
  5
342
  8
DISEGNO
 10
-11.3190838722239
 20
-4.388412023837178
 30
0.0
  0
VERTEX
  5
343
  8
DISEGNO
 10
-11.34012500524372
 20
-4.330618250954819
 30
0.0
  0
VERTEX
  5
344
  8
DISEGNO
 10
-11.36072871611699
 20
-4.272200124252802
 30
0.0
  0
VERTEX
  5
345
  8
DISEGNO
 10
-11.38090911523552
 20
-4.213177784176924
 30
0.0
  0
VERTEX
  5
346
  8
DISEGNO
 10
-11.40068031299115
 20
-4.153571371172961
 30
0.0
  0
VERTEX
  5
347
  8
DISEGNO
 10
-11.42005641977569
 20
-4.093401025686751
 30
0.0
  0
VERTEX
  5
348
  8
DISEGNO
 10
-11.43905154598098
 20
-4.032686888164049
 30
0.0
  0
VERTEX
  5
349
  8
DISEGNO
 10
-11.45767980199882
 20
-3.971449099050694
 30
0.0
  0
VERTEX
  5
34A
  8
DISEGNO
 10
-11.47595529822106
 20
-3.90970779879242
 30
0.0
  0
VERTEX
  5
34B
  8
DISEGNO
 10
-11.49389214503952
 20
-3.847483127835065
 30
0.0
  0
VERTEX
  5
34C
  8
DISEGNO
 10
-11.51150445284601
 20
-3.784795226624426
 30
0.0
  0
VERTEX
  5
34D
  8
DISEGNO
 10
-11.5458118929904
 20
-3.658110295226422
 30
0.0
  0
VERTEX
  5
34E
  8
DISEGNO
 10
-11.57899050178885
 20
-3.529814128164802
 30
0.0
  0
VERTEX
  5
34F
  8
DISEGNO
 10
-11.61115316237593
 20
-3.400067849005898
 30
0.0
  0
VERTEX
  5
350
  8
DISEGNO
 10
-11.64241275788626
 20
-3.269032581316126
 30
0.0
  0
VERTEX
  5
351
  8
DISEGNO
 10
-11.67288217145441
 20
-3.136869448661778
 30
0.0
  0
VERTEX
  5
352
  8
DISEGNO
 10
-11.70267428621499
 20
-3.003739574609247
 30
0.0
  0
VERTEX
  5
353
  8
DISEGNO
 10
-11.7319019853026
 20
-2.869804082724909
 30
0.0
  0
VERTEX
  5
354
  8
DISEGNO
 10
-11.76067815185183
 20
-2.735224096575136
 30
0.0
  0
VERTEX
  5
355
  8
DISEGNO
 10
-11.78911566899727
 20
-2.600160739726241
 30
0.0
  0
SEQEND
  5
5C7
  8
DISEGNO
  0
POLYLINE
  5
76
  8
QUOTE
 66
     1
 10
0.0
 20
0.0
 30
0.0
  0
VERTEX
  5
356
  8
QUOTE
 10
4.596619237251025
 20
3.624987600964678
 30
0.0
  0
VERTEX
  5
357
  8
QUOTE
 10
1.130717164926473
 20
-18.62825152618802
 30
0.0
  0
SEQEND
  5
5C8
  8
QUOTE
  0
POLYLINE
  5
77
  8
QUOTE
 66
     1
 10
0.0
 20
0.0
 30
0.0
  0
VERTEX
  5
358
  8
QUOTE
 10
5.873463862298278
 20
3.426121341239455
 30
0.0
  0
VERTEX
  5
359
  8
QUOTE
 10
2.407561789973725
 20
-18.82711778591322
 30
0.0
  0
SEQEND
  5
5C9
  8
QUOTE
  0
POLYLINE
  5
78
  8
QUOTE
 66
     1
 10
0.0
 20
0.0
 30
0.0
  0
VERTEX
  5
35A
  8
QUOTE
 10
-1.193605978181822
 20
-17.55436252992458
 30
0.0
  0
VERTEX
  5
35B
  8
QUOTE
 10
-3.626177298181718
 20
-17.17549391080396
 30
0.0
  0
SEQEND
  5
5CA
  8
QUOTE
  0
POLYLINE
  5
79
  8
QUOTE
 66
     1
 10
0.0
 20
0.0
 30
0.0
  0
VERTEX
  5
35C
  8
QUOTE
 10
4.948381286865223
 20
-18.51096602789099
 30
0.0
  0
VERTEX
  5
35D
  8
QUOTE
 10
11.30288717024445
 20
-19.50066891940981
 30
0.0
  0
SEQEND
  5
5CB
  8
QUOTE
  0
POLYLINE
  5
7A
  8
QUOTE
 66
     1
 10
0.0
 20
0.0
 30
0.0
  0
VERTEX
  5
35E
  8
QUOTE
 10
1.238965341818096
 20
-17.93323114904516
 30
0.0
  0
VERTEX
  5
35F
  8
QUOTE
 10
2.515809966865346
 20
-18.1320974087704
 30
0.0
  0
SEQEND
  5
5CC
  8
QUOTE
  0
POLYLINE
  5
7B
  8
QUOTE
 66
     1
 10
0.0
 20
0.0
 30
0.0
 70
     1
  0
VERTEX
  5
360
  8
QUOTE
 10
8.585996480592213
 20
-18.00969831377844
 30
0.0
  0
VERTEX
  5
361
  8
QUOTE
 10
8.96486509971283
 20
-15.57712699377854
 30
0.0
  0
VERTEX
  5
362
  8
QUOTE
 10
9.877915541104032
 20
-15.71933296203658
 30
0.0
  0
VERTEX
  5
363
  8
QUOTE
 10
10.01735128934498
 20
-15.741049829681
 30
0.0
  0
VERTEX
  5
364
  8
QUOTE
 10
10.23528271676252
 20
-15.81281365563265
 30
0.0
  0
VERTEX
  5
365
  8
QUOTE
 10
10.31377839593916
 20
-15.86286061393986
 30
0.0
  0
VERTEX
  5
366
  8
QUOTE
 10
10.3922740751158
 20
-15.91290757224705
 30
0.0
  0
VERTEX
  5
367
  8
QUOTE
 10
10.50654586329133
 20
-16.0471378728413
 30
0.0
  0
VERTEX
  5
368
  8
QUOTE
 10
10.54232197229026
 20
-16.13132121512832
 30
0.0
  0
VERTEX
  5
369
  8
QUOTE
 10
10.57809808128915
 20
-16.21550455741538
 30
0.0
  0
VERTEX
  5
36A
  8
QUOTE
 10
10.60082098239496
 20
-16.38349758346179
 30
0.0
  0
VERTEX
  5
36B
  8
QUOTE
 10
10.5877677745018
 20
-16.46730726722113
 30
0.0
  0
VERTEX
  5
36C
  8
QUOTE
 10
10.57562029940126
 20
-16.54530158516865
 30
0.0
  0
VERTEX
  5
36D
  8
QUOTE
 10
10.51051818876372
 20
-16.68559115617859
 30
0.0
  0
VERTEX
  5
36E
  8
QUOTE
 10
10.45756355322675
 20
-16.74788640924105
 30
0.0
  0
VERTEX
  5
36F
  8
QUOTE
 10
10.40460891768975
 20
-16.81018166230349
 30
0.0
  0
VERTEX
  5
370
  8
QUOTE
 10
10.25977052825482
 20
-16.90151577448333
 30
0.0
  0
VERTEX
  5
371
  8
QUOTE
 10
10.16788677435683
 20
-16.93055463360073
 30
0.0
  0
VERTEX
  5
372
  8
QUOTE
 10
10.27278982667288
 20
-16.98002331600895
 30
0.0
  0
VERTEX
  5
373
  8
QUOTE
 10
10.42464126290285
 20
-17.11668065765761
 30
0.0
  0
VERTEX
  5
374
  8
QUOTE
 10
10.47158964681674
 20
-17.20386931689804
 30
0.0
  0
VERTEX
  5
375
  8
QUOTE
 10
10.51853803073063
 20
-17.29105797613847
 30
0.0
  0
VERTEX
  5
376
  8
QUOTE
 10
10.54894939140213
 20
-17.48442457260423
 30
0.0
  0
VERTEX
  5
377
  8
QUOTE
 10
10.53241236815973
 20
-17.59060250982953
 30
0.0
  0
VERTEX
  5
378
  8
QUOTE
 10
10.51910460791313
 20
-17.67604657744453
 30
0.0
  0
VERTEX
  5
379
  8
QUOTE
 10
10.45827175511455
 20
-17.82929351839629
 30
0.0
  0
VERTEX
  5
37A
  8
QUOTE
 10
10.41074666256258
 20
-17.8970963917331
 30
0.0
  0
VERTEX
  5
37B
  8
QUOTE
 10
10.36322157001061
 20
-17.96489926506991
 30
0.0
  0
VERTEX
  5
37C
  8
QUOTE
 10
10.25640649511896
 20
-18.06424797768704
 30
0.0
  0
VERTEX
  5
37D
  8
QUOTE
 10
10.1971165127793
 20
-18.09579381696741
 30
0.0
  0
VERTEX
  5
37E
  8
QUOTE
 10
10.13782653043963
 20
-18.12733965624777
 30
0.0
  0
VERTEX
  5
37F
  8
QUOTE
 10
9.995324123193802
 20
-18.1667436236766
 30
0.0
  0
VERTEX
  5
380
  8
QUOTE
 10
9.912111698287633
 20
-18.17460175182507
 30
0.0
  0
VERTEX
  5
381
  8
QUOTE
 10
9.828899273381465
 20
-18.18245987997354
 30
0.0
  0
VERTEX
  5
382
  8
QUOTE
 10
9.629550572408744
 20
-18.17222999147008
 30
0.0
  0
VERTEX
  5
383
  8
QUOTE
 10
9.513414296342175
 20
-18.15414197481817
 30
0.0
  0
SEQEND
  5
5CD
  8
QUOTE
  0
POLYLINE
  5
7C
  8
QUOTE
 66
     1
 10
0.0
 20
0.0
 30
0.0
 70
     1
  0
VERTEX
  5
384
  8
QUOTE
 10
8.951802391888455
 20
-17.77266555574237
 30
0.0
  0
VERTEX
  5
385
  8
QUOTE
 10
9.55910902549718
 20
-17.8672524744347
 30
0.0
  0
VERTEX
  5
386
  8
QUOTE
 10
9.637312392542478
 20
-17.87943250855722
 30
0.0
  0
VERTEX
  5
387
  8
QUOTE
 10
9.74802591507695
 20
-17.89071950900532
 30
0.0
  0
VERTEX
  5
388
  8
QUOTE
 10
9.780536070566084
 20
-17.88982647533091
 30
0.0
  0
VERTEX
  5
389
  8
QUOTE
 10
9.837827155237774
 20
-17.88854955570748
 30
0.0
  0
VERTEX
  5
38A
  8
QUOTE
 10
9.93617700414063
 20
-17.86986120214115
 30
0.0
  0
VERTEX
  5
38B
  8
QUOTE
 10
9.977235768371754
 20
-17.85244976819825
 30
0.0
  0
VERTEX
  5
38C
  8
QUOTE
 10
10.01829453260288
 20
-17.83503833425534
 30
0.0
  0
VERTEX
  5
38D
  8
QUOTE
 10
10.09039677537794
 20
-17.77697107638378
 30
0.0
  0
VERTEX
  5
38E
  8
QUOTE
 10
10.1214402539219
 20
-17.73631525245516
 30
0.0
  0
VERTEX
  5
38F
  8
QUOTE
 10
10.15248373246584
 20
-17.69565942852649
 30
0.0
  0
VERTEX
  5
390
  8
QUOTE
 10
10.19257861911347
 20
-17.59688795540598
 30
0.0
  0
VERTEX
  5
391
  8
QUOTE
 10
10.20163002721715
 20
-17.53877230621411
 30
0.0
  0
VERTEX
  5
392
  8
QUOTE
 10
10.21223242873037
 20
-17.470698318181
 30
0.0
  0
VERTEX
  5
393
  8
QUOTE
 10
10.19555663127712
 20
-17.34692857750509
 30
0.0
  0
VERTEX
  5
394
  8
QUOTE
 10
10.16827843231066
 20
-17.29123282486231
 30
0.0
  0
VERTEX
  5
395
  8
QUOTE
 10
10.14100023334424
 20
-17.23553707221953
 30
0.0
  0
VERTEX
  5
396
  8
QUOTE
 10
10.05494409066622
 20
-17.14985871351095
 30
0.0
  0
VERTEX
  5
397
  8
QUOTE
 10
9.996166146954662
 20
-17.11987610744516
 30
0.0
  0
VERTEX
  5
398
  8
QUOTE
 10
9.937388203243108
 20
-17.08989350137934
 30
0.0
  0
VERTEX
  5
399
  8
QUOTE
 10
9.762226925440297
 20
-17.04178439981746
 30
0.0
  0
VERTEX
  5
39A
  8
QUOTE
 10
9.645843591349047
 20
-17.02365790432143
 30
0.0
  0
VERTEX
  5
39B
  8
QUOTE
 10
9.08213319686593
 20
-16.9358610216624
 30
0.0
  0
SEQEND
  5
5CE
  8
QUOTE
  0
POLYLINE
  5
7D
  8
QUOTE
 66
     1
 10
0.0
 20
0.0
 30
0.0
 70
     1
  0
VERTEX
  5
39C
  8
QUOTE
 10
9.126839693922163
 20
-16.64881760590241
 30
0.0
  0
VERTEX
  5
39D
  8
QUOTE
 10
9.653947491824644
 20
-16.73091369980808
 30
0.0
  0
VERTEX
  5
39E
  8
QUOTE
 10
9.761208683465886
 20
-16.74761943798245
 30
0.0
  0
VERTEX
  5
39F
  8
QUOTE
 10
9.91722706455547
 20
-16.75747564644903
 30
0.0
  0
VERTEX
  5
3A0
  8
QUOTE
 10
9.965984254003812
 20
-16.75062611674125
 30
0.0
  0
VERTEX
  5
3A1
  8
QUOTE
 10
10.0303432167944
 20
-16.74196306402949
 30
0.0
  0
VERTEX
  5
3A2
  8
QUOTE
 10
10.13246480402252
 20
-16.69587081430731
 30
0.0
  0
VERTEX
  5
3A3
  8
QUOTE
 10
10.17022742846003
 20
-16.6584416172969
 30
0.0
  0
VERTEX
  5
3A4
  8
QUOTE
 10
10.20799005289757
 20
-16.6210124202865
 30
0.0
  0
VERTEX
  5
3A5
  8
QUOTE
 10
10.25569797858701
 20
-16.51972822612608
 30
0.0
  0
VERTEX
  5
3A6
  8
QUOTE
 10
10.26564327983892
 20
-16.45587322897607
 30
0.0
  0
VERTEX
  5
3A7
  8
QUOTE
 10
10.27506763673955
 20
-16.39536301739108
 30
0.0
  0
VERTEX
  5
3A8
  8
QUOTE
 10
10.26256358481425
 20
-16.28430187371818
 30
0.0
  0
VERTEX
  5
3A9
  8
QUOTE
 10
10.24063517598831
 20
-16.23375094163026
 30
0.0
  0
VERTEX
  5
3AA
  8
QUOTE
 10
10.21870676716236
 20
-16.18320000954235
 30
0.0
  0
VERTEX
  5
3AB
  8
QUOTE
 10
10.14537730478742
 20
-16.10723159777849
 30
0.0
  0
VERTEX
  5
3AC
  8
QUOTE
 10
10.09397625123836
 20
-16.08181411810255
 30
0.0
  0
VERTEX
  5
3AD
  8
QUOTE
 10
10.04257519768934
 20
-16.05639663842663
 30
0.0
  0
VERTEX
  5
3AE
  8
QUOTE
 10
9.85981529286031
 20
-16.01052025331818
 30
0.0
  0
VERTEX
  5
3AF
  8
QUOTE
 10
9.728456441580319
 20
-15.99006134788569
 30
0.0
  0
VERTEX
  5
3B0
  8
QUOTE
 10
9.241258016896586
 20
-15.91418106726242
 30
0.0
  0
SEQEND
  5
5CF
  8
QUOTE
  0
POLYLINE
  5
7E
  8
QUOTE
 66
     1
 10
0.0
 20
0.0
 30
0.0
  0
VERTEX
  5
3B1
  8
QUOTE
 10
-1.442151849231039
 20
3.623634176676733
 30
0.0
  0
VERTEX
  5
3B2
  8
QUOTE
 10
0.7776683900921826
 20
-11.9641226472499
 30
0.0
  0
SEQEND
  5
5D0
  8
QUOTE
  0
POLYLINE
  5
7F
  8
QUOTE
 66
     1
 10
0.0
 20
0.0
 30
0.0
  0
VERTEX
  5
3B3
  8
QUOTE
 10
-2.707364326437157
 20
3.443457882186719
 30
0.0
  0
VERTEX
  5
3B4
  8
QUOTE
 10
-0.4875440871139374
 20
-12.1442989417399
 30
0.0
  0
SEQEND
  5
5D1
  8
QUOTE
  0
POLYLINE
  5
80
  8
QUOTE
 66
     1
 10
0.0
 20
0.0
 30
0.0
  0
VERTEX
  5
3B5
  8
QUOTE
 10
3.11580754099956
 20
-10.92065680646796
 30
0.0
  0
VERTEX
  5
3B6
  8
QUOTE
 10
5.553115846007257
 20
-10.57356476711679
 30
0.0
  0
SEQEND
  5
5D2
  8
QUOTE
  0
POLYLINE
  5
81
  8
QUOTE
 66
     1
 10
0.0
 20
0.0
 30
0.0
  0
VERTEX
  5
3B7
  8
QUOTE
 10
-3.024021546221967
 20
-11.7950171796603
 30
0.0
  0
VERTEX
  5
3B8
  8
QUOTE
 10
-9.826491548533923
 20
-12.76374287631364
 30
0.0
  0
SEQEND
  5
5D3
  8
QUOTE
  0
POLYLINE
  5
82
  8
QUOTE
 66
     1
 10
0.0
 20
0.0
 30
0.0
  0
VERTEX
  5
3B9
  8
QUOTE
 10
0.6784992359918662
 20
-11.26774884581912
 30
0.0
  0
VERTEX
  5
3BA
  8
QUOTE
 10
-0.586713241214252
 20
-11.44792514030913
 30
0.0
  0
SEQEND
  5
5D4
  8
QUOTE
  0
POLYLINE
  5
83
  8
QUOTE
 66
     1
 10
0.0
 20
0.0
 30
0.0
 70
     1
  0
VERTEX
  5
3BB
  8
QUOTE
 10
-8.933819796025334
 20
-11.57087492300323
 30
0.0
  0
VERTEX
  5
3BC
  8
QUOTE
 10
-8.344985446253537
 20
-9.000283274884694
 30
0.0
  0
VERTEX
  5
3BD
  8
QUOTE
 10
-7.99766901278994
 20
-8.950822659277168
 30
0.0
  0
VERTEX
  5
3BE
  8
QUOTE
 10
-6.656612180302831
 20
-11.24658249198695
 30
0.0
  0
VERTEX
  5
3BF
  8
QUOTE
 10
-7.023693660802357
 20
-11.29885780710112
 30
0.0
  0
VERTEX
  5
3C0
  8
QUOTE
 10
-7.411057150914912
 20
-10.60054014086488
 30
0.0
  0
VERTEX
  5
3C1
  8
QUOTE
 10
-8.431146842445182
 20
-10.74580900595959
 30
0.0
  0
VERTEX
  5
3C2
  8
QUOTE
 10
-8.593320209227297
 20
-11.52238508044325
 30
0.0
  0
SEQEND
  5
5D5
  8
QUOTE
  0
POLYLINE
  5
84
  8
QUOTE
 66
     1
 10
0.0
 20
0.0
 30
0.0
 70
     1
  0
VERTEX
  5
3C3
  8
QUOTE
 10
-8.377043306545987
 20
-10.46953664097751
 30
0.0
  0
VERTEX
  5
3C4
  8
QUOTE
 10
-7.548929726977359
 20
-10.35160669729485
 30
0.0
  0
VERTEX
  5
3C5
  8
QUOTE
 10
-7.899784983881771
 20
-9.71538728812513
 30
0.0
  0
VERTEX
  5
3C6
  8
QUOTE
 10
-7.978958236000265
 20
-9.569512067742975
 30
0.0
  0
VERTEX
  5
3C7
  8
QUOTE
 10
-8.10143876777771
 20
-9.32825591228212
 30
0.0
  0
VERTEX
  5
3C8
  8
QUOTE
 10
-8.1447460474367
 20
-9.232874977203462
 30
0.0
  0
VERTEX
  5
3C9
  8
QUOTE
 10
-8.152178753344971
 20
-9.353801946264683
 30
0.0
  0
VERTEX
  5
3CA
  8
QUOTE
 10
-8.184697542180231
 20
-9.596382523136363
 30
0.0
  0
VERTEX
  5
3CB
  8
QUOTE
 10
-8.20978362510722
 20
-9.71803613094682
 30
0.0
  0
SEQEND
  5
5D6
  8
QUOTE
  0
POLYLINE
  5
85
  8
QUOTE
 66
     1
 10
0.0
 20
0.0
 30
0.0
  0
VERTEX
  5
3CC
  8
QUOTE
 10
11.99842242513967
 20
8.428565021628376
 30
0.0
  0
VERTEX
  5
3CD
  8
QUOTE
 10
23.23099006895704
 20
8.428565021628376
 30
0.0
  0
SEQEND
  5
5D7
  8
QUOTE
  0
POLYLINE
  5
86
  8
QUOTE
 66
     1
 10
0.0
 20
0.0
 30
0.0
  0
VERTEX
  5
3CE
  8
QUOTE
 10
8.356219314139599
 20
9.698904693020056
 30
0.0
  0
VERTEX
  5
3CF
  8
QUOTE
 10
23.23099006895704
 20
9.698904693020056
 30
0.0
  0
SEQEND
  5
5D8
  8
QUOTE
  0
POLYLINE
  5
87
  8
QUOTE
 66
     1
 10
0.0
 20
0.0
 30
0.0
  0
VERTEX
  5
3D0
  8
QUOTE
 10
22.52759047239467
 20
5.966666433660055
 30
0.0
  0
VERTEX
  5
3D1
  8
QUOTE
 10
22.52759047239467
 20
3.504767845691754
 30
0.0
  0
SEQEND
  5
5D9
  8
QUOTE
  0
POLYLINE
  5
88
  8
QUOTE
 66
     1
 10
0.0
 20
0.0
 30
0.0
  0
VERTEX
  5
3D2
  8
QUOTE
 10
22.52759047239467
 20
12.16080328098836
 30
0.0
  0
VERTEX
  5
3D3
  8
QUOTE
 10
22.52759047239467
 20
18.90931305291868
 30
0.0
  0
SEQEND
  5
5DA
  8
QUOTE
  0
POLYLINE
  5
89
  8
QUOTE
 66
     1
 10
0.0
 20
0.0
 30
0.0
  0
VERTEX
  5
3D4
  8
QUOTE
 10
22.52759047239467
 20
8.428565021628376
 30
0.0
  0
VERTEX
  5
3D5
  8
QUOTE
 10
22.52759047239467
 20
9.698904693020056
 30
0.0
  0
SEQEND
  5
5DB
  8
QUOTE
  0
POLYLINE
  5
8A
  8
QUOTE
 66
     1
 10
0.0
 20
0.0
 30
0.0
 70
     1
  0
VERTEX
  5
3D6
  8
QUOTE
 10
20.56749695719344
 20
17.52796507391386
 30
0.0
  0
VERTEX
  5
3D7
  8
QUOTE
 10
20.64981669122862
 20
17.85293568752567
 30
0.0
  0
VERTEX
  5
3D8
  8
QUOTE
 10
20.85042295898262
 20
17.80177435749445
 30
0.0
  0
VERTEX
  5
3D9
  8
QUOTE
 10
21.15636194249447
 20
17.61768012050433
 30
0.0
  0
VERTEX
  5
3DA
  8
QUOTE
 10
21.26169465825234
 20
17.48474721354538
 30
0.0
  0
VERTEX
  5
3DB
  8
QUOTE
 10
21.36702737401022
 20
17.35181430658645
 30
0.0
  0
VERTEX
  5
3DC
  8
QUOTE
 10
21.47236008976811
 20
17.02683407618329
 30
0.0
  0
VERTEX
  5
3DD
  8
QUOTE
 10
21.47236008976811
 20
16.83478675273905
 30
0.0
  0
VERTEX
  5
3DE
  8
QUOTE
 10
21.47236008976811
 20
16.63600767534331
 30
0.0
  0
VERTEX
  5
3DF
  8
QUOTE
 10
21.39133862256642
 20
16.31269114984528
 30
0.0
  0
VERTEX
  5
3E0
  8
QUOTE
 10
21.31031715536471
 20
16.18815370174298
 30
0.0
  0
VERTEX
  5
3E1
  8
QUOTE
 10
21.22929568816303
 20
16.06361625364067
 30
0.0
  0
VERTEX
  5
3E2
  8
QUOTE
 10
20.99463636220595
 20
15.87407891274117
 30
0.0
  0
VERTEX
  5
3E3
  8
QUOTE
 10
20.84099850345055
 20
15.80907901994399
 30
0.0
  0
VERTEX
  5
3E4
  8
QUOTE
 10
20.68736064469514
 20
15.74407912714683
 30
0.0
  0
VERTEX
  5
3E5
  8
QUOTE
 10
20.35740853315924
 20
15.67907923434965
 30
0.0
  0
VERTEX
  5
3E6
  8
QUOTE
 10
20.18109428037871
 20
15.67907923434965
 30
0.0
  0
VERTEX
  5
3E7
  8
QUOTE
 10
19.98883538752456
 20
15.67907923434965
 30
0.0
  0
VERTEX
  5
3E8
  8
QUOTE
 10
19.65342093849662
 20
15.7524649692121
 30
0.0
  0
VERTEX
  5
3E9
  8
QUOTE
 10
19.51026538232281
 20
15.82585070407454
 30
0.0
  0
VERTEX
  5
3EA
  8
QUOTE
 10
19.36710982614897
 20
15.89923643893699
 30
0.0
  0
VERTEX
  5
3EB
  8
QUOTE
 10
19.14965493993358
 20
16.10807468009451
 30
0.0
  0
VERTEX
  5
3EC
  8
QUOTE
 10
19.07535560989202
 20
16.24352718638954
 30
0.0
  0
VERTEX
  5
3ED
  8
QUOTE
 10
19.00105627985043
 20
16.3789796926846
 30
0.0
  0
VERTEX
  5
3EE
  8
QUOTE
 10
18.92675694980885
 20
16.67714830877819
 30
0.0
  0
VERTEX
  5
3EF
  8
QUOTE
 10
18.92675694980885
 20
16.8398644185767
 30
0.0
  0
VERTEX
  5
3F0
  8
QUOTE
 10
18.92675694980885
 20
17.02437217759532
 30
0.0
  0
VERTEX
  5
3F1
  8
QUOTE
 10
19.02075146855418
 20
17.33468680117562
 30
0.0
  0
VERTEX
  5
3F2
  8
QUOTE
 10
19.1147459872995
 20
17.46049366573735
 30
0.0
  0
VERTEX
  5
3F3
  8
QUOTE
 10
19.20874050604483
 20
17.58630053029908
 30
0.0
  0
VERTEX
  5
3F4
  8
QUOTE
 10
19.47308686692794
 20
17.76159540319552
 30
0.0
  0
VERTEX
  5
3F5
  8
QUOTE
 10
19.64343870906569
 20
17.81108341153021
 30
0.0
  0
VERTEX
  5
3F6
  8
QUOTE
 10
19.71906515631485
 20
17.49103659509434
 30
0.0
  0
VERTEX
  5
3F7
  8
QUOTE
 10
19.58466088027795
 20
17.44824187354568
 30
0.0
  0
VERTEX
  5
3F8
  8
QUOTE
 10
19.38893032574309
 20
17.32403139634958
 30
0.0
  0
VERTEX
  5
3F9
  8
QUOTE
 10
19.32760404724518
 20
17.24261564070216
 30
0.0
  0
VERTEX
  5
3FA
  8
QUOTE
 10
19.26627776874722
 20
17.16119988505473
 30
0.0
  0
VERTEX
  5
3FB
  8
QUOTE
 10
19.2049514902493
 20
16.95641992985084
 30
0.0
  0
VERTEX
  5
3FC
  8
QUOTE
 10
19.2049514902493
 20
16.83305573029438
 30
0.0
  0
VERTEX
  5
3FD
  8
QUOTE
 10
19.2049514902493
 20
16.69120805774541
 30
0.0
  0
VERTEX
  5
3FE
  8
QUOTE
 10
19.27299028911596
 20
16.45410606678306
 30
0.0
  0
VERTEX
  5
3FF
  8
QUOTE
 10
19.34102908798269
 20
16.35885174836968
 30
0.0
  0
VERTEX
  5
400
  8
QUOTE
 10
19.4090678868494
 20
16.26359742995631
 30
0.0
  0
VERTEX
  5
401
  8
QUOTE
 10
19.59177730588381
 20
16.12973169423551
 30
0.0
  0
VERTEX
  5
402
  8
QUOTE
 10
19.70644792605151
 20
16.09112027692811
 30
0.0
  0
VERTEX
  5
403
  8
QUOTE
 10
19.82111854621921
 20
16.05250885962075
 30
0.0
  0
VERTEX
  5
404
  8
QUOTE
 10
20.05759544574321
 20
16.01389744231336
 30
0.0
  0
VERTEX
  5
405
  8
QUOTE
 10
20.1794017250995
 20
16.01389744231336
 30
0.0
  0
VERTEX
  5
406
  8
QUOTE
 10
20.3364823951615
 20
16.01389744231336
 30
0.0
  0
VERTEX
  5
407
  8
QUOTE
 10
20.61075328472733
 20
16.05963490201795
 30
0.0
  0
VERTEX
  5
408
  8
QUOTE
 10
20.72794350423119
 20
16.10537236172254
 30
0.0
  0
VERTEX
  5
409
  8
QUOTE
 10
20.84513372373501
 20
16.15110982142713
 30
0.0
  0
VERTEX
  5
40A
  8
QUOTE
 10
21.02028434476106
 20
16.29337101600455
 30
0.0
  0
VERTEX
  5
40B
  8
QUOTE
 10
21.07824474628327
 20
16.38989475087737
 30
0.0
  0
VERTEX
  5
40C
  8
QUOTE
 10
21.13620514780548
 20
16.48641848575015
 30
0.0
  0
VERTEX
  5
40D
  8
QUOTE
 10
21.19416554932767
 20
16.69540097877804
 30
0.0
  0
VERTEX
  5
40E
  8
QUOTE
 10
21.19416554932767
 20
16.80785973693313
 30
0.0
  0
VERTEX
  5
40F
  8
QUOTE
 10
21.19416554932767
 20
16.94466821080984
 30
0.0
  0
VERTEX
  5
410
  8
QUOTE
 10
21.11520207547688
 20
17.17631748107148
 30
0.0
  0
VERTEX
  5
411
  8
QUOTE
 10
21.03623860162606
 20
17.27115827745641
 30
0.0
  0
VERTEX
  5
412
  8
QUOTE
 10
20.95727512777523
 20
17.36599907384135
 30
0.0
  0
VERTEX
  5
413
  8
QUOTE
 10
20.72290430555894
 20
17.49440247207007
 30
0.0
  0
SEQEND
  5
5DC
  8
QUOTE
  0
POLYLINE
  5
8B
  8
QUOTE
 66
     1
 10
0.0
 20
0.0
 30
0.0
 70
     1
  0
VERTEX
  5
414
  8
QUOTE
 10
-22.80288503483812
 20
13.6773838407005
 30
0.0
  0
VERTEX
  5
415
  8
QUOTE
 10
-22.80288503483812
 20
13.86448263807673
 30
0.0
  0
VERTEX
  5
416
  8
QUOTE
 10
-22.76444809360253
 20
14.16590310347708
 30
0.0
  0
VERTEX
  5
417
  8
QUOTE
 10
-22.72601115236694
 20
14.28022477150118
 30
0.0
  0
VERTEX
  5
418
  8
QUOTE
 10
-22.68757421113135
 20
14.39454643952531
 30
0.0
  0
VERTEX
  5
419
  8
QUOTE
 10
-22.57333497274746
 20
14.57049250657948
 30
0.0
  0
VERTEX
  5
41A
  8
QUOTE
 10
-22.49753267559917
 20
14.63211690560958
 30
0.0
  0
VERTEX
  5
41B
  8
QUOTE
 10
-22.42173037845087
 20
14.69374130463966
 30
0.0
  0
VERTEX
  5
41C
  8
QUOTE
 10
-22.23097170504877
 20
14.75536570366974
 30
0.0
  0
VERTEX
  5
41D
  8
QUOTE
 10
-22.11601532879495
 20
14.75536570366974
 30
0.0
  0
VERTEX
  5
41E
  8
QUOTE
 10
-22.03122820086245
 20
14.75536570366974
 30
0.0
  0
VERTEX
  5
41F
  8
QUOTE
 10
-21.88223662616091
 20
14.72118213186961
 30
0.0
  0
VERTEX
  5
420
  8
QUOTE
 10
-21.81803217939187
 20
14.68699856006947
 30
0.0
  0
VERTEX
  5
421
  8
QUOTE
 10
-21.75382773262283
 20
14.65281498826935
 30
0.0
  0
VERTEX
  5
422
  8
QUOTE
 10
-21.64821063460619
 20
14.55422913856365
 30
0.0
  0
VERTEX
  5
423
  8
QUOTE
 10
-21.60679798335859
 20
14.48982686065808
 30
0.0
  0
VERTEX
  5
424
  8
QUOTE
 10
-21.56538533211097
 20
14.42542458275252
 30
0.0
  0
VERTEX
  5
425
  8
QUOTE
 10
-21.50026591633547
 20
14.26855273444574
 30
0.0
  0
VERTEX
  5
426
  8
QUOTE
 10
-21.47655915180757
 20
14.17608316404451
 30
0.0
  0
VERTEX
  5
427
  8
QUOTE
 10
-21.45285238727969
 20
14.08361359364332
 30
0.0
  0
VERTEX
  5
428
  8
QUOTE
 10
-21.42914562275179
 20
13.83426393197129
 30
0.0
  0
VERTEX
  5
429
  8
QUOTE
 10
-21.42914562275179
 20
13.6773838407005
 30
0.0
  0
VERTEX
  5
42A
  8
QUOTE
 10
-21.42914562275179
 20
13.49171931906412
 30
0.0
  0
VERTEX
  5
42B
  8
QUOTE
 10
-21.46722811653443
 20
13.19173312940363
 30
0.0
  0
VERTEX
  5
42C
  8
QUOTE
 10
-21.50531061031707
 20
13.07741146137951
 30
0.0
  0
VERTEX
  5
42D
  8
QUOTE
 10
-21.5433931040997
 20
12.96308979335541
 30
0.0
  0
VERTEX
  5
42E
  8
QUOTE
 10
-21.65726965206661
 20
12.78678927884826
 30
0.0
  0
VERTEX
  5
42F
  8
QUOTE
 10
-21.73306370625087
 20
12.72481043236525
 30
0.0
  0
VERTEX
  5
430
  8
QUOTE
 10
-21.80885776043515
 20
12.6628315858822
 30
0.0
  0
VERTEX
  5
431
  8
QUOTE
 10
-22.00033357170718
 20
12.60085273939915
 30
0.0
  0
VERTEX
  5
432
  8
QUOTE
 10
-22.11601532879495
 20
12.60085273939915
 30
0.0
  0
VERTEX
  5
433
  8
QUOTE
 10
-22.26832881799746
 20
12.60085273939915
 30
0.0
  0
VERTEX
  5
434
  8
QUOTE
 10
-22.50758909170627
 20
12.70970932227654
 30
0.0
  0
VERTEX
  5
435
  8
QUOTE
 10
-22.59453587621261
 20
12.81856590515392
 30
0.0
  0
VERTEX
  5
436
  8
QUOTE
 10
-22.69871045552537
 20
12.95078304807025
 30
0.0
  0
VERTEX
  5
437
  8
QUOTE
 10
-22.80288503483812
 20
13.38019201584354
 30
0.0
  0
SEQEND
  5
5DD
  8
QUOTE
  0
POLYLINE
  5
8C
  8
QUOTE
 66
     1
 10
0.0
 20
0.0
 30
0.0
 70
     1
  0
VERTEX
  5
438
  8
QUOTE
 10
-22.53699998733754
 20
13.67705412213961
 30
0.0
  0
VERTEX
  5
439
  8
QUOTE
 10
-22.53699998733754
 20
13.41688969167044
 30
0.0
  0
VERTEX
  5
43A
  8
QUOTE
 10
-22.47629880027794
 20
13.07103965019036
 30
0.0
  0
VERTEX
  5
43B
  8
QUOTE
 10
-22.41559761321836
 20
12.98535403917941
 30
0.0
  0
VERTEX
  5
43C
  8
QUOTE
 10
-22.35489642615876
 20
12.89966842816849
 30
0.0
  0
VERTEX
  5
43D
  8
QUOTE
 10
-22.20510528394707
 20
12.81398281715757
 30
0.0
  0
VERTEX
  5
43E
  8
QUOTE
 10
-22.11601532879495
 20
12.81398281715757
 30
0.0
  0
VERTEX
  5
43F
  8
QUOTE
 10
-22.02692537364285
 20
12.81398281715757
 30
0.0
  0
VERTEX
  5
440
  8
QUOTE
 10
-21.87713423143116
 20
12.90002287562144
 30
0.0
  0
VERTEX
  5
441
  8
QUOTE
 10
-21.81643304437156
 20
12.98606293408534
 30
0.0
  0
VERTEX
  5
442
  8
QUOTE
 10
-21.75573185731197
 20
13.07210299254923
 30
0.0
  0
VERTEX
  5
443
  8
QUOTE
 10
-21.69503067025238
 20
13.41759858657634
 30
0.0
  0
VERTEX
  5
444
  8
QUOTE
 10
-21.69503067025238
 20
13.67705412213961
 30
0.0
  0
VERTEX
  5
445
  8
QUOTE
 10
-21.69503067025238
 20
13.93741638374532
 30
0.0
  0
VERTEX
  5
446
  8
QUOTE
 10
-21.75559996988762
 20
14.28336534079366
 30
0.0
  0
VERTEX
  5
447
  8
QUOTE
 10
-21.81616926952286
 20
14.3689520362363
 30
0.0
  0
VERTEX
  5
448
  8
QUOTE
 10
-21.87673856915809
 20
14.45453873167897
 30
0.0
  0
VERTEX
  5
449
  8
QUOTE
 10
-22.02809587453401
 20
14.54012542712165
 30
0.0
  0
VERTEX
  5
44A
  8
QUOTE
 10
-22.11888388027469
 20
14.54012542712165
 30
0.0
  0
VERTEX
  5
44B
  8
QUOTE
 10
-22.20797383542679
 20
14.54012542712165
 30
0.0
  0
VERTEX
  5
44C
  8
QUOTE
 10
-22.35047819744285
 20
14.46460339075009
 30
0.0
  0
VERTEX
  5
44D
  8
QUOTE
 10
-22.4038926043068
 20
14.38908135437858
 30
0.0
  0
VERTEX
  5
44E
  8
QUOTE
 10
-22.47044629582217
 20
14.29270461903082
 30
0.0
  0
VERTEX
  5
44F
  8
QUOTE
 10
-22.53699998733754
 20
13.93669100291133
 30
0.0
  0
SEQEND
  5
5DE
  8
QUOTE
  0
POLYLINE
  5
8D
  8
QUOTE
 66
     1
 10
0.0
 20
0.0
 30
0.0
 70
     1
  0
VERTEX
  5
450
  8
QUOTE
 10
-21.02609765392155
 20
12.63672611882383
 30
0.0
  0
VERTEX
  5
451
  8
QUOTE
 10
-21.02609765392155
 20
12.93215394938005
 30
0.0
  0
VERTEX
  5
452
  8
QUOTE
 10
-20.73066982336536
 20
12.93215394938005
 30
0.0
  0
VERTEX
  5
453
  8
QUOTE
 10
-20.73066982336536
 20
12.63672611882383
 30
0.0
  0
VERTEX
  5
454
  8
QUOTE
 10
-20.73066982336536
 20
12.55573075434157
 30
0.0
  0
VERTEX
  5
455
  8
QUOTE
 10
-20.759478982623
 20
12.42492315827302
 30
0.0
  0
VERTEX
  5
456
  8
QUOTE
 10
-20.78828814188064
 20
12.37511092668677
 30
0.0
  0
VERTEX
  5
457
  8
QUOTE
 10
-20.81709730113829
 20
12.32529869510053
 30
0.0
  0
VERTEX
  5
458
  8
QUOTE
 10
-20.90856947289281
 20
12.24825171038489
 30
0.0
  0
VERTEX
  5
459
  8
QUOTE
 10
-20.97123248538968
 20
12.22101695725548
 30
0.0
  0
VERTEX
  5
45A
  8
QUOTE
 10
-21.04297924423904
 20
12.33074729431921
 30
0.0
  0
VERTEX
  5
45B
  8
QUOTE
 10
-21.00201171304863
 20
12.34870046995957
 30
0.0
  0
VERTEX
  5
45C
  8
QUOTE
 10
-20.94164024454994
 20
12.40148841155787
 30
0.0
  0
VERTEX
  5
45D
  8
QUOTE
 10
-20.92223630724164
 20
12.43632317751575
 30
0.0
  0
VERTEX
  5
45E
  8
QUOTE
 10
-20.90283236993334
 20
12.47115794347362
 30
0.0
  0
VERTEX
  5
45F
  8
QUOTE
 10
-20.88126877605123
 20
12.57135941412768
 30
0.0
  0
VERTEX
  5
460
  8
QUOTE
 10
-20.8791091194774
 20
12.63672611882383
 30
0.0
  0
SEQEND
  5
5DF
  8
QUOTE
  0
POLYLINE
  5
8E
  8
QUOTE
 66
     1
 10
0.0
 20
0.0
 30
0.0
 70
     1
  0
VERTEX
  5
461
  8
QUOTE
 10
-20.34661364364229
 20
13.18959820172188
 30
0.0
  0
VERTEX
  5
462
  8
QUOTE
 10
-20.07439799977266
 20
13.21281038840843
 30
0.0
  0
VERTEX
  5
463
  8
QUOTE
 10
-20.059313375612
 20
13.11346618601269
 30
0.0
  0
VERTEX
  5
464
  8
QUOTE
 10
-19.98954492812797
 20
12.96408719200212
 30
0.0
  0
VERTEX
  5
465
  8
QUOTE
 10
-19.9348611048046
 20
12.91405240038725
 30
0.0
  0
VERTEX
  5
466
  8
QUOTE
 10
-19.88017728148122
 20
12.86401760877241
 30
0.0
  0
VERTEX
  5
467
  8
QUOTE
 10
-19.74739961701137
 20
12.81398281715757
 30
0.0
  0
VERTEX
  5
468
  8
QUOTE
 10
-19.6693057758649
 20
12.81398281715757
 30
0.0
  0
VERTEX
  5
469
  8
QUOTE
 10
-19.57513815487511
 20
12.81398281715757
 30
0.0
  0
VERTEX
  5
46A
  8
QUOTE
 10
-19.41672487229618
 20
12.8845673180798
 30
0.0
  0
VERTEX
  5
46B
  8
QUOTE
 10
-19.35247921070703
 20
12.95515181900204
 30
0.0
  0
VERTEX
  5
46C
  8
QUOTE
 10
-19.28823354911788
 20
13.02573631992426
 30
0.0
  0
VERTEX
  5
46D
  8
QUOTE
 10
-19.22398788752873
 20
13.21299173361693
 30
0.0
  0
VERTEX
  5
46E
  8
QUOTE
 10
-19.22398788752873
 20
13.32966264638737
 30
0.0
  0
VERTEX
  5
46F
  8
QUOTE
 10
-19.22398788752873
 20
13.44057997027029
 30
0.0
  0
VERTEX
  5
470
  8
QUOTE
 10
-19.28574417398317
 20
13.61559458238997
 30
0.0
  0
VERTEX
  5
471
  8
QUOTE
 10
-19.34750046043761
 20
13.6796918706267
 30
0.0
  0
VERTEX
  5
472
  8
QUOTE
 10
-19.40925674689205
 20
13.74378915886346
 30
0.0
  0
VERTEX
  5
473
  8
QUOTE
 10
-19.57240149081974
 20
13.8078864471002
 30
0.0
  0
VERTEX
  5
474
  8
QUOTE
 10
-19.67378994829298
 20
13.8078864471002
 30
0.0
  0
VERTEX
  5
475
  8
QUOTE
 10
-19.73683213713489
 20
13.8078864471002
 30
0.0
  0
VERTEX
  5
476
  8
QUOTE
 10
-19.84991736055566
 20
13.77941524936746
 30
0.0
  0
VERTEX
  5
477
  8
QUOTE
 10
-19.89996039513453
 20
13.75094405163474
 30
0.0
  0
VERTEX
  5
478
  8
QUOTE
 10
-19.9500034297134
 20
13.72247285390202
 30
0.0
  0
VERTEX
  5
479
  8
QUOTE
 10
-20.02878143687371
 20
13.64859941033491
 30
0.0
  0
VERTEX
  5
47A
  8
QUOTE
 10
-20.05751640945516
 20
13.60319716450054
 30
0.0
  0
VERTEX
  5
47B
  8
QUOTE
 10
-20.30018927026918
 20
13.63485014634584
 30
0.0
  0
VERTEX
  5
47C
  8
QUOTE
 10
-20.09549998766953
 20
14.71738212545535
 30
0.0
  0
VERTEX
  5
47D
  8
QUOTE
 10
-19.04884138798471
 20
14.71738212545535
 30
0.0
  0
VERTEX
  5
47E
  8
QUOTE
 10
-19.04884138798471
 20
14.47048886706196
 30
0.0
  0
VERTEX
  5
47F
  8
QUOTE
 10
-19.88870050628018
 20
14.47048886706196
 30
0.0
  0
VERTEX
  5
480
  8
QUOTE
 10
-20.00248638164285
 20
13.90393346388705
 30
0.0
  0
VERTEX
  5
481
  8
QUOTE
 10
-19.90769229538737
 20
13.96986069013673
 30
0.0
  0
VERTEX
  5
482
  8
QUOTE
 10
-19.70875660167522
 20
14.03578791638642
 30
0.0
  0
VERTEX
  5
483
  8
QUOTE
 10
-19.60461499421855
 20
14.03578791638642
 30
0.0
  0
VERTEX
  5
484
  8
QUOTE
 10
-19.46672669205494
 20
14.03578791638642
 30
0.0
  0
VERTEX
  5
485
  8
QUOTE
 10
-19.23404430363583
 20
13.94007886112447
 30
0.0
  0
VERTEX
  5
486
  8
QUOTE
 10
-19.13925021738035
 20
13.84436980586254
 30
0.0
  0
VERTEX
  5
487
  8
QUOTE
 10
-19.04445613112487
 20
13.7486607506006
 30
0.0
  0
VERTEX
  5
488
  8
QUOTE
 10
-18.94966204486942
 20
13.50255057378932
 30
0.0
  0
VERTEX
  5
489
  8
QUOTE
 10
-18.94966204486942
 20
13.35214945223998
 30
0.0
  0
VERTEX
  5
48A
  8
QUOTE
 10
-18.94966204486942
 20
13.208936195318
 30
0.0
  0
VERTEX
  5
48B
  8
QUOTE
 10
-19.03301489706205
 20
12.96138349980282
 30
0.0
  0
VERTEX
  5
48C
  8
QUOTE
 10
-19.11636774925469
 20
12.85704406120963
 30
0.0
  0
VERTEX
  5
48D
  8
QUOTE
 10
-19.21769026301577
 20
12.7289484003044
 30
0.0
  0
VERTEX
  5
48E
  8
QUOTE
 10
-19.4943571074574
 20
12.60085273939915
 30
0.0
  0
VERTEX
  5
48F
  8
QUOTE
 10
-19.66970143813797
 20
12.60085273939915
 30
0.0
  0
VERTEX
  5
490
  8
QUOTE
 10
-19.81342575882931
 20
12.60085273939915
 30
0.0
  0
VERTEX
  5
491
  8
QUOTE
 10
-20.04804524379363
 20
12.6814606845724
 30
0.0
  0
VERTEX
  5
492
  8
QUOTE
 10
-20.1389404080666
 20
12.76206862974565
 30
0.0
  0
VERTEX
  5
493
  8
QUOTE
 10
-20.22983557233957
 20
12.84267657491888
 30
0.0
  0
VERTEX
  5
494
  8
QUOTE
 10
-20.33367219012742
 20
13.056441360907
 30
0.0
  0
SEQEND
  5
5E0
  8
QUOTE
  0
POLYLINE
  5
8F
  8
QUOTE
 66
     1
 10
0.0
 20
0.0
 30
0.0
 70
     1
  0
VERTEX
  5
495
  8
QUOTE
 10
-18.81038892475005
 20
12.63672611882383
 30
0.0
  0
VERTEX
  5
496
  8
QUOTE
 10
-18.25194459817301
 20
13.42903982063918
 30
0.0
  0
VERTEX
  5
497
  8
QUOTE
 10
-18.76818494895632
 20
14.16662024134701
 30
0.0
  0
VERTEX
  5
498
  8
QUOTE
 10
-18.44740176106779
 20
14.16662024134701
 30
0.0
  0
VERTEX
  5
499
  8
QUOTE
 10
-18.20776231101394
 20
13.80778753153195
 30
0.0
  0
VERTEX
  5
49A
  8
QUOTE
 10
-18.1747245112129
 20
13.75668115459419
 30
0.0
  0
VERTEX
  5
49B
  8
QUOTE
 10
-18.12257952080837
 20
13.67261940749565
 30
0.0
  0
VERTEX
  5
49C
  8
QUOTE
 10
-18.10347233020486
 20
13.63966403733483
 30
0.0
  0
VERTEX
  5
49D
  8
QUOTE
 10
-18.07175340464739
 20
13.68467062089613
 30
0.0
  0
VERTEX
  5
49E
  8
QUOTE
 10
-18.01393725499556
 20
13.76672108477325
 30
0.0
  0
VERTEX
  5
49F
  8
QUOTE
 10
-17.98784003090122
 20
13.80376496508907
 30
0.0
  0
VERTEX
  5
4A0
  8
QUOTE
 10
-17.73207734321993
 20
14.16662024134701
 30
0.0
  0
VERTEX
  5
4A1
  8
QUOTE
 10
-17.42144948700677
 20
14.16662024134701
 30
0.0
  0
VERTEX
  5
4A2
  8
QUOTE
 10
-17.93686554138786
 20
13.43362290863555
 30
0.0
  0
VERTEX
  5
4A3
  8
QUOTE
 10
-17.38178434413187
 20
12.63672611882383
 30
0.0
  0
VERTEX
  5
4A4
  8
QUOTE
 10
-17.69742392247054
 20
12.63672611882383
 30
0.0
  0
VERTEX
  5
4A5
  8
QUOTE
 10
-18.01332727565792
 20
13.11020197225992
 30
0.0
  0
VERTEX
  5
4A6
  8
QUOTE
 10
-18.08731612072133
 20
13.22698828652664
 30
0.0
  0
VERTEX
  5
4A7
  8
QUOTE
 10
-18.49718926376197
 20
12.63672611882383
 30
0.0
  0
SEQEND
  5
5E1
  8
QUOTE
  0
POLYLINE
  5
90
  8
QUOTE
 66
     1
 10
0.0
 20
0.0
 30
0.0
 70
     1
  0
VERTEX
  5
4A8
  8
QUOTE
 10
-16.40687250329641
 20
12.63672611882383
 30
0.0
  0
VERTEX
  5
4A9
  8
QUOTE
 10
-16.40687250329641
 20
13.14106362955907
 30
0.0
  0
VERTEX
  5
4AA
  8
QUOTE
 10
-17.32058857923095
 20
13.14106362955907
 30
0.0
  0
VERTEX
  5
4AB
  8
QUOTE
 10
-17.32058857923095
 20
13.37740589400404
 30
0.0
  0
VERTEX
  5
4AC
  8
QUOTE
 10
-16.35833793113361
 20
14.74481470972129
 30
0.0
  0
VERTEX
  5
4AD
  8
QUOTE
 10
-16.14731805216489
 20
14.74481470972129
 30
0.0
  0
VERTEX
  5
4AE
  8
QUOTE
 10
-16.14731805216489
 20
13.37740589400404
 30
0.0
  0
VERTEX
  5
4AF
  8
QUOTE
 10
-15.86244121555714
 20
13.37740589400404
 30
0.0
  0
VERTEX
  5
4B0
  8
QUOTE
 10
-15.86244121555714
 20
13.14106362955907
 30
0.0
  0
VERTEX
  5
4B1
  8
QUOTE
 10
-16.14731805216489
 20
13.14106362955907
 30
0.0
  0
VERTEX
  5
4B2
  8
QUOTE
 10
-16.14731805216489
 20
12.63672611882383
 30
0.0
  0
SEQEND
  5
5E2
  8
QUOTE
  0
POLYLINE
  5
91
  8
QUOTE
 66
     1
 10
0.0
 20
0.0
 30
0.0
 70
     1
  0
VERTEX
  5
4B3
  8
QUOTE
 10
-16.40687250329641
 20
13.37740589400404
 30
0.0
  0
VERTEX
  5
4B4
  8
QUOTE
 10
-16.40687250329641
 20
14.32874285773595
 30
0.0
  0
VERTEX
  5
4B5
  8
QUOTE
 10
-17.06601287836884
 20
13.37740589400404
 30
0.0
  0
SEQEND
  5
5E3
  8
QUOTE
  0
POLYLINE
  5
92
  8
QUOTE
 66
     1
 10
0.0
 20
0.0
 30
0.0
 70
     1
  0
VERTEX
  5
4B6
  8
QUOTE
 10
-15.59866636684624
 20
13.18959820172188
 30
0.0
  0
VERTEX
  5
4B7
  8
QUOTE
 10
-15.3264507229766
 20
13.21281038840843
 30
0.0
  0
VERTEX
  5
4B8
  8
QUOTE
 10
-15.31136609881595
 20
13.11346618601269
 30
0.0
  0
VERTEX
  5
4B9
  8
QUOTE
 10
-15.24159765133192
 20
12.96408719200212
 30
0.0
  0
VERTEX
  5
4BA
  8
QUOTE
 10
-15.18691382800854
 20
12.91405240038725
 30
0.0
  0
VERTEX
  5
4BB
  8
QUOTE
 10
-15.13223000468516
 20
12.86401760877241
 30
0.0
  0
VERTEX
  5
4BC
  8
QUOTE
 10
-14.99945234021532
 20
12.81398281715757
 30
0.0
  0
VERTEX
  5
4BD
  8
QUOTE
 10
-14.92135849906885
 20
12.81398281715757
 30
0.0
  0
VERTEX
  5
4BE
  8
QUOTE
 10
-14.82719087807905
 20
12.81398281715757
 30
0.0
  0
VERTEX
  5
4BF
  8
QUOTE
 10
-14.66877759550012
 20
12.8845673180798
 30
0.0
  0
VERTEX
  5
4C0
  8
QUOTE
 10
-14.60453193391098
 20
12.95515181900204
 30
0.0
  0
VERTEX
  5
4C1
  8
QUOTE
 10
-14.54028627232183
 20
13.02573631992426
 30
0.0
  0
VERTEX
  5
4C2
  8
QUOTE
 10
-14.47604061073268
 20
13.21299173361693
 30
0.0
  0
VERTEX
  5
4C3
  8
QUOTE
 10
-14.47604061073268
 20
13.32966264638737
 30
0.0
  0
VERTEX
  5
4C4
  8
QUOTE
 10
-14.47604061073268
 20
13.44057997027029
 30
0.0
  0
VERTEX
  5
4C5
  8
QUOTE
 10
-14.53779689718712
 20
13.61559458238997
 30
0.0
  0
VERTEX
  5
4C6
  8
QUOTE
 10
-14.59955318364156
 20
13.6796918706267
 30
0.0
  0
VERTEX
  5
4C7
  8
QUOTE
 10
-14.66130947009599
 20
13.74378915886346
 30
0.0
  0
VERTEX
  5
4C8
  8
QUOTE
 10
-14.82445421402368
 20
13.8078864471002
 30
0.0
  0
VERTEX
  5
4C9
  8
QUOTE
 10
-14.92584267149693
 20
13.8078864471002
 30
0.0
  0
VERTEX
  5
4CA
  8
QUOTE
 10
-14.98888486033884
 20
13.8078864471002
 30
0.0
  0
VERTEX
  5
4CB
  8
QUOTE
 10
-15.10197008375961
 20
13.77941524936746
 30
0.0
  0
VERTEX
  5
4CC
  8
QUOTE
 10
-15.15201311833847
 20
13.75094405163474
 30
0.0
  0
VERTEX
  5
4CD
  8
QUOTE
 10
-15.20205615291736
 20
13.72247285390202
 30
0.0
  0
VERTEX
  5
4CE
  8
QUOTE
 10
-15.28083416007767
 20
13.64859941033491
 30
0.0
  0
VERTEX
  5
4CF
  8
QUOTE
 10
-15.30956913265911
 20
13.60319716450054
 30
0.0
  0
VERTEX
  5
4D0
  8
QUOTE
 10
-15.55224199347312
 20
13.63485014634584
 30
0.0
  0
VERTEX
  5
4D1
  8
QUOTE
 10
-15.34755271087347
 20
14.71738212545535
 30
0.0
  0
VERTEX
  5
4D2
  8
QUOTE
 10
-14.30089411118866
 20
14.71738212545535
 30
0.0
  0
VERTEX
  5
4D3
  8
QUOTE
 10
-14.30089411118866
 20
14.47048886706196
 30
0.0
  0
VERTEX
  5
4D4
  8
QUOTE
 10
-15.14075322948414
 20
14.47048886706196
 30
0.0
  0
VERTEX
  5
4D5
  8
QUOTE
 10
-15.25453910484679
 20
13.90393346388705
 30
0.0
  0
VERTEX
  5
4D6
  8
QUOTE
 10
-15.15974501859131
 20
13.96986069013673
 30
0.0
  0
VERTEX
  5
4D7
  8
QUOTE
 10
-14.96080932487917
 20
14.03578791638642
 30
0.0
  0
VERTEX
  5
4D8
  8
QUOTE
 10
-14.8566677174225
 20
14.03578791638642
 30
0.0
  0
VERTEX
  5
4D9
  8
QUOTE
 10
-14.71877941525888
 20
14.03578791638642
 30
0.0
  0
VERTEX
  5
4DA
  8
QUOTE
 10
-14.48609702683979
 20
13.94007886112447
 30
0.0
  0
VERTEX
  5
4DB
  8
QUOTE
 10
-14.39130294058431
 20
13.84436980586254
 30
0.0
  0
VERTEX
  5
4DC
  8
QUOTE
 10
-14.29650885432883
 20
13.7486607506006
 30
0.0
  0
VERTEX
  5
4DD
  8
QUOTE
 10
-14.20171476807336
 20
13.50255057378932
 30
0.0
  0
VERTEX
  5
4DE
  8
QUOTE
 10
-14.20171476807336
 20
13.35214945223998
 30
0.0
  0
VERTEX
  5
4DF
  8
QUOTE
 10
-14.20171476807336
 20
13.208936195318
 30
0.0
  0
VERTEX
  5
4E0
  8
QUOTE
 10
-14.28506762026601
 20
12.96138349980282
 30
0.0
  0
VERTEX
  5
4E1
  8
QUOTE
 10
-14.36842047245864
 20
12.85704406120963
 30
0.0
  0
VERTEX
  5
4E2
  8
QUOTE
 10
-14.46974298621971
 20
12.7289484003044
 30
0.0
  0
VERTEX
  5
4E3
  8
QUOTE
 10
-14.74640983066135
 20
12.60085273939915
 30
0.0
  0
VERTEX
  5
4E4
  8
QUOTE
 10
-14.92175416134192
 20
12.60085273939915
 30
0.0
  0
VERTEX
  5
4E5
  8
QUOTE
 10
-15.06547848203325
 20
12.60085273939915
 30
0.0
  0
VERTEX
  5
4E6
  8
QUOTE
 10
-15.30009796699757
 20
12.6814606845724
 30
0.0
  0
VERTEX
  5
4E7
  8
QUOTE
 10
-15.39099313127054
 20
12.76206862974565
 30
0.0
  0
VERTEX
  5
4E8
  8
QUOTE
 10
-15.48188829554352
 20
12.84267657491888
 30
0.0
  0
VERTEX
  5
4E9
  8
QUOTE
 10
-15.58572491333137
 20
13.056441360907
 30
0.0
  0
SEQEND
  5
5E4
  8
QUOTE
  0
POLYLINE
  5
93
  8
QUOTE
 66
     1
 10
0.0
 20
0.0
 30
0.0
 70
     1
  0
VERTEX
  5
4EA
  8
QUOTE
 10
-13.8999563411481
 20
14.38469609751874
 30
0.0
  0
VERTEX
  5
4EB
  8
QUOTE
 10
-13.8999563411481
 20
14.46734005480548
 30
0.0
  0
VERTEX
  5
4EC
  8
QUOTE
 10
-13.84139008177026
 20
14.60818758105306
 30
0.0
  0
VERTEX
  5
4ED
  8
QUOTE
 10
-13.78282382239241
 20
14.66639115001394
 30
0.0
  0
VERTEX
  5
4EE
  8
QUOTE
 10
-13.72425756301458
 20
14.72459471897479
 30
0.0
  0
VERTEX
  5
4EF
  8
QUOTE
 10
-13.58377272718396
 20
14.78279828793566
 30
0.0
  0
VERTEX
  5
4F0
  8
QUOTE
 10
-13.50185415073119
 20
14.78279828793566
 30
0.0
  0
VERTEX
  5
4F1
  8
QUOTE
 10
-13.41848481261049
 20
14.78279828793566
 30
0.0
  0
VERTEX
  5
4F2
  8
QUOTE
 10
-13.27691190552895
 20
14.72459471897479
 30
0.0
  0
VERTEX
  5
4F3
  8
QUOTE
 10
-13.21870833656808
 20
14.66639115001394
 30
0.0
  0
VERTEX
  5
4F4
  8
QUOTE
 10
-13.16050476760723
 20
14.60818758105306
 30
0.0
  0
VERTEX
  5
4F5
  8
QUOTE
 10
-13.10230119864636
 20
14.46734005480548
 30
0.0
  0
VERTEX
  5
4F6
  8
QUOTE
 10
-13.10230119864636
 20
14.38469609751874
 30
0.0
  0
VERTEX
  5
4F7
  8
QUOTE
 10
-13.10230119864636
 20
14.30205214023201
 30
0.0
  0
VERTEX
  5
4F8
  8
QUOTE
 10
-13.1608674580242
 20
14.16084192356745
 30
0.0
  0
VERTEX
  5
4F9
  8
QUOTE
 10
-13.21943371740205
 20
14.10227566418959
 30
0.0
  0
VERTEX
  5
4FA
  8
QUOTE
 10
-13.27799997677987
 20
14.04370940481176
 30
0.0
  0
VERTEX
  5
4FB
  8
QUOTE
 10
-13.41921019344445
 20
13.98514314543394
 30
0.0
  0
VERTEX
  5
4FC
  8
QUOTE
 10
-13.50185415073119
 20
13.98514314543394
 30
0.0
  0
VERTEX
  5
4FD
  8
QUOTE
 10
-13.58377272718396
 20
13.98514314543394
 30
0.0
  0
VERTEX
  5
4FE
  8
QUOTE
 10
-13.72425756301458
 20
14.04334671439479
 30
0.0
  0
VERTEX
  5
4FF
  8
QUOTE
 10
-13.78282382239241
 20
14.10155028335564
 30
0.0
  0
VERTEX
  5
500
  8
QUOTE
 10
-13.84139008177026
 20
14.15975385231651
 30
0.0
  0
VERTEX
  5
501
  8
QUOTE
 10
-13.8999563411481
 20
14.30132675939807
 30
0.0
  0
SEQEND
  5
5E5
  8
QUOTE
  0
POLYLINE
  5
94
  8
QUOTE
 66
     1
 10
0.0
 20
0.0
 30
0.0
 70
     1
  0
VERTEX
  5
502
  8
QUOTE
 10
-13.74380163071125
 20
14.3839707166848
 30
0.0
  0
VERTEX
  5
503
  8
QUOTE
 10
-13.74380163071125
 20
14.33370512207731
 30
0.0
  0
VERTEX
  5
504
  8
QUOTE
 10
-13.70815905427919
 20
14.24790410957008
 30
0.0
  0
VERTEX
  5
505
  8
QUOTE
 10
-13.67251647784713
 20
14.21236869167031
 30
0.0
  0
VERTEX
  5
506
  8
QUOTE
 10
-13.63687390141507
 20
14.17683327377054
 30
0.0
  0
VERTEX
  5
507
  8
QUOTE
 10
-13.55081735702315
 20
14.14129785587079
 30
0.0
  0
VERTEX
  5
508
  8
QUOTE
 10
-13.50040338906328
 20
14.14129785587079
 30
0.0
  0
VERTEX
  5
509
  8
QUOTE
 10
-13.45071480193736
 20
14.14129785587079
 30
0.0
  0
VERTEX
  5
50A
  8
QUOTE
 10
-13.36538363837939
 20
14.17683327377054
 30
0.0
  0
VERTEX
  5
50B
  8
QUOTE
 10
-13.32974106194733
 20
14.21236869167031
 30
0.0
  0
VERTEX
  5
50C
  8
QUOTE
 10
-13.29409848551527
 20
14.24790410957008
 30
0.0
  0
VERTEX
  5
50D
  8
QUOTE
 10
-13.25845590908321
 20
14.33370512207731
 30
0.0
  0
VERTEX
  5
50E
  8
QUOTE
 10
-13.25845590908321
 20
14.3839707166848
 30
0.0
  0
VERTEX
  5
50F
  8
QUOTE
 10
-13.25845590908321
 20
14.43423631129227
 30
0.0
  0
VERTEX
  5
510
  8
QUOTE
 10
-13.29409848551527
 20
14.5200373237995
 30
0.0
  0
VERTEX
  5
511
  8
QUOTE
 10
-13.32974106194733
 20
14.55557274169927
 30
0.0
  0
VERTEX
  5
512
  8
QUOTE
 10
-13.36538363837939
 20
14.59110815959904
 30
0.0
  0
VERTEX
  5
513
  8
QUOTE
 10
-13.45071480193736
 20
14.62664357749881
 30
0.0
  0
VERTEX
  5
514
  8
QUOTE
 10
-13.50040338906328
 20
14.62664357749881
 30
0.0
  0
VERTEX
  5
515
  8
QUOTE
 10
-13.55081735702315
 20
14.62664357749881
 30
0.0
  0
VERTEX
  5
516
  8
QUOTE
 10
-13.63687390141507
 20
14.59110815959904
 30
0.0
  0
VERTEX
  5
517
  8
QUOTE
 10
-13.67251647784713
 20
14.55557274169927
 30
0.0
  0
VERTEX
  5
518
  8
QUOTE
 10
-13.70815905427919
 20
14.5200373237995
 30
0.0
  0
VERTEX
  5
519
  8
QUOTE
 10
-13.74380163071125
 20
14.43423631129227
 30
0.0
  0
SEQEND
  5
5E6
  8
QUOTE
  0
POLYLINE
  5
95
  8
QUOTE
 66
     1
 10
0.0
 20
0.0
 30
0.0
  0
VERTEX
  5
51A
  8
QUOTE
 10
-9.780657473409939
 20
9.649759012680674
 30
0.0
  0
VERTEX
  5
51B
  8
QUOTE
 10
-12.96940435653868
 20
11.91252547416521
 30
0.0
  0
VERTEX
  5
51C
  8
QUOTE
 10
-22.86917717371844
 20
11.91252547416521
 30
0.0
  0
SEQEND
  5
5E7
  8
QUOTE
  0
POLYLINE
  5
96
  8
QUOTE
 66
     1
 10
0.0
 20
0.0
 30
0.0
 70
     1
  0
VERTEX
  5
51D
  8
QUOTE
 10
-20.53719061959669
 20
2.997690228755811
 30
0.0
  0
VERTEX
  5
51E
  8
QUOTE
 10
-20.53719061959669
 20
5.10788901844294
 30
0.0
  0
VERTEX
  5
51F
  8
QUOTE
 10
-19.60336171144795
 20
5.10788901844294
 30
0.0
  0
VERTEX
  5
520
  8
QUOTE
 10
-19.46253891409243
 20
5.10788901844294
 30
0.0
  0
VERTEX
  5
521
  8
QUOTE
 10
-19.24842792361538
 20
5.079459035530304
 30
0.0
  0
VERTEX
  5
522
  8
QUOTE
 10
-19.17513973049386
 20
5.051029052617688
 30
0.0
  0
VERTEX
  5
523
  8
QUOTE
 10
-19.10185153737235
 20
5.022599069705072
 30
0.0
  0
VERTEX
  5
524
  8
QUOTE
 10
-18.98473550454472
 20
4.922199767914494
 30
0.0
  0
VERTEX
  5
525
  8
QUOTE
 10
-18.94090766483859
 20
4.850230449036532
 30
0.0
  0
VERTEX
  5
526
  8
QUOTE
 10
-18.89707982513248
 20
4.778261130158571
 30
0.0
  0
VERTEX
  5
527
  8
QUOTE
 10
-18.85325198542636
 20
4.61921313934992
 30
0.0
  0
VERTEX
  5
528
  8
QUOTE
 10
-18.85325198542636
 20
4.532134467419231
 30
0.0
  0
VERTEX
  5
529
  8
QUOTE
 10
-18.85325198542636
 20
4.419865297436655
 30
0.0
  0
VERTEX
  5
52A
  8
QUOTE
 10
-18.92582304067794
 20
4.230590357558569
 30
0.0
  0
VERTEX
  5
52B
  8
QUOTE
 10
-18.99839409592953
 20
4.153584587663017
 30
0.0
  0
VERTEX
  5
52C
  8
QUOTE
 10
-19.07096515118111
 20
4.076578817767487
 30
0.0
  0
VERTEX
  5
52D
  8
QUOTE
 10
-19.29514080072928
 20
3.978701862967695
 30
0.0
  0
VERTEX
  5
52E
  8
QUOTE
 10
-19.44674539502587
 20
3.957830678063432
 30
0.0
  0
VERTEX
  5
52F
  8
QUOTE
 10
-19.39138564865266
 20
3.931205904271698
 30
0.0
  0
VERTEX
  5
530
  8
QUOTE
 10
-19.30727444376997
 20
3.878698223450172
 30
0.0
  0
VERTEX
  5
531
  8
QUOTE
 10
-19.27852298526049
 20
3.852815316420424
 30
0.0
  0
VERTEX
  5
532
  8
QUOTE
 10
-19.21742613592783
 20
3.796697217357197
 30
0.0
  0
VERTEX
  5
533
  8
QUOTE
 10
-19.10197518183268
 20
3.656319540058853
 30
0.0
  0
VERTEX
  5
534
  8
QUOTE
 10
-19.04762107707019
 20
3.572059961823754
 30
0.0
  0
VERTEX
  5
535
  8
QUOTE
 10
-18.68282046130304
 20
2.997690228755811
 30
0.0
  0
VERTEX
  5
536
  8
QUOTE
 10
-19.03143189573056
 20
2.997690228755811
 30
0.0
  0
VERTEX
  5
537
  8
QUOTE
 10
-19.3102089389619
 20
3.436743464435082
 30
0.0
  0
VERTEX
  5
538
  8
QUOTE
 10
-19.37128930236651
 20
3.531751867755139
 30
0.0
  0
VERTEX
  5
539
  8
QUOTE
 10
-19.47188643529362
 20
3.677141267178969
 30
0.0
  0
VERTEX
  5
53A
  8
QUOTE
 10
-19.51140320481613
 20
3.727522263282765
 30
0.0
  0
VERTEX
  5
53B
  8
QUOTE
 10
-19.55091997433862
 20
3.777903259386541
 30
0.0
  0
VERTEX
  5
53C
  8
QUOTE
 10
-19.62169406343337
 20
3.84840533066855
 30
0.0
  0
VERTEX
  5
53D
  8
QUOTE
 10
-19.65295138300561
 20
3.868526405846765
 30
0.0
  0
VERTEX
  5
53E
  8
QUOTE
 10
-19.68420870257784
 20
3.88864748102498
 30
0.0
  0
VERTEX
  5
53F
  8
QUOTE
 10
-19.74779492704522
 20
3.916665315736521
 30
0.0
  0
VERTEX
  5
540
  8
QUOTE
 10
-19.78012383194034
 20
3.924562075269785
 30
0.0
  0
VERTEX
  5
541
  8
QUOTE
 10
-19.80383059646824
 20
3.929590283323334
 30
0.0
  0
VERTEX
  5
542
  8
QUOTE
 10
-19.88142985977337
 20
3.934618491376883
 30
0.0
  0
VERTEX
  5
543
  8
QUOTE
 10
-19.93532235855061
 20
3.934618491376883
 30
0.0
  0
VERTEX
  5
544
  8
QUOTE
 10
-20.258644379358
 20
3.934618491376883
 30
0.0
  0
VERTEX
  5
545
  8
QUOTE
 10
-20.258644379358
 20
2.997690228755811
 30
0.0
  0
SEQEND
  5
5E8
  8
QUOTE
  0
POLYLINE
  5
97
  8
QUOTE
 66
     1
 10
0.0
 20
0.0
 30
0.0
 70
     1
  0
VERTEX
  5
546
  8
QUOTE
 10
-20.258644379358
 20
4.177291352190913
 30
0.0
  0
VERTEX
  5
547
  8
QUOTE
 10
-19.65941386679902
 20
4.177291352190913
 30
0.0
  0
VERTEX
  5
548
  8
QUOTE
 10
-19.56384494192546
 20
4.177291352190913
 30
0.0
  0
VERTEX
  5
549
  8
QUOTE
 10
-19.41432581752649
 20
4.19709095177228
 30
0.0
  0
VERTEX
  5
54A
  8
QUOTE
 10
-19.36037561800109
 20
4.216890551353625
 30
0.0
  0
VERTEX
  5
54B
  8
QUOTE
 10
-19.3064254184757
 20
4.236690150934992
 30
0.0
  0
VERTEX
  5
54C
  8
QUOTE
 10
-19.22441616941867
 20
4.300053815373765
 30
0.0
  0
VERTEX
  5
54D
  8
QUOTE
 10
-19.19635711988705
 20
4.343617880231173
 30
0.0
  0
VERTEX
  5
54E
  8
QUOTE
 10
-19.16829807035542
 20
4.38718194508858
 30
0.0
  0
VERTEX
  5
54F
  8
QUOTE
 10
-19.14023902082381
 20
4.48188535873981
 30
0.0
  0
VERTEX
  5
550
  8
QUOTE
 10
-19.14023902082381
 20
4.533024707533631
 30
0.0
  0
VERTEX
  5
551
  8
QUOTE
 10
-19.14023902082381
 20
4.607903792711452
 30
0.0
  0
VERTEX
  5
552
  8
QUOTE
 10
-19.19453542483814
 20
4.731028946311257
 30
0.0
  0
VERTEX
  5
553
  8
QUOTE
 10
-19.24883182885247
 20
4.779275014733301
 30
0.0
  0
VERTEX
  5
554
  8
QUOTE
 10
-19.3031282328668
 20
4.827521083155325
 30
0.0
  0
VERTEX
  5
555
  8
QUOTE
 10
-19.47465607120509
 20
4.875767151577371
 30
0.0
  0
VERTEX
  5
556
  8
QUOTE
 10
-19.59188750552903
 20
4.875767151577371
 30
0.0
  0
VERTEX
  5
557
  8
QUOTE
 10
-20.258644379358
 20
4.875767151577371
 30
0.0
  0
SEQEND
  5
5E9
  8
QUOTE
  0
POLYLINE
  5
98
  8
QUOTE
 66
     1
 10
0.0
 20
0.0
 30
0.0
 70
     1
  0
VERTEX
  5
558
  8
QUOTE
 10
-16.72617160542173
 20
2.997690228755811
 30
0.0
  0
VERTEX
  5
559
  8
QUOTE
 10
-16.98572605655325
 20
2.997690228755811
 30
0.0
  0
VERTEX
  5
55A
  8
QUOTE
 10
-16.98572605655325
 20
4.648558091269019
 30
0.0
  0
VERTEX
  5
55B
  8
QUOTE
 10
-17.03239771884703
 20
4.603947169980758
 30
0.0
  0
VERTEX
  5
55C
  8
QUOTE
 10
-17.15482222050498
 20
4.514717084440298
 30
0.0
  0
VERTEX
  5
55D
  8
QUOTE
 10
-17.23057505986913
 20
4.470097920188037
 30
0.0
  0
VERTEX
  5
55E
  8
QUOTE
 10
-17.30632789923329
 20
4.425478755935796
 30
0.0
  0
VERTEX
  5
55F
  8
QUOTE
 10
-17.44240274931202
 20
4.358554131039424
 30
0.0
  0
VERTEX
  5
560
  8
QUOTE
 10
-17.5027247600266
 20
4.336248670395316
 30
0.0
  0
VERTEX
  5
561
  8
QUOTE
 10
-17.5027247600266
 20
4.586669917390218
 30
0.0
  0
VERTEX
  5
562
  8
QUOTE
 10
-17.39423086756619
 20
4.637759808399917
 30
0.0
  0
VERTEX
  5
563
  8
QUOTE
 10
-17.20454377948697
 20
4.761536156157499
 30
0.0
  0
VERTEX
  5
564
  8
QUOTE
 10
-17.12335058386815
 20
4.834222612905384
 30
0.0
  0
VERTEX
  5
565
  8
QUOTE
 10
-17.04215738824933
 20
4.906909069653269
 30
0.0
  0
VERTEX
  5
566
  8
QUOTE
 10
-16.92720101199551
 20
5.047962670001434
 30
0.0
  0
VERTEX
  5
567
  8
QUOTE
 10
-16.89343783136052
 20
5.116329813601673
 30
0.0
  0
VERTEX
  5
568
  8
QUOTE
 10
-16.72617160542173
 20
5.116329813601673
 30
0.0
  0
SEQEND
  5
5EA
  8
QUOTE
  0
POLYLINE
  5
99
  8
QUOTE
 66
     1
 10
0.0
 20
0.0
 30
0.0
 70
     1
  0
VERTEX
  5
569
  8
QUOTE
 10
-15.9242960653406
 20
2.997690228755811
 30
0.0
  0
VERTEX
  5
56A
  8
QUOTE
 10
-15.9242960653406
 20
3.293118059312008
 30
0.0
  0
VERTEX
  5
56B
  8
QUOTE
 10
-15.62886823478441
 20
3.293118059312008
 30
0.0
  0
VERTEX
  5
56C
  8
QUOTE
 10
-15.62886823478441
 20
2.997690228755811
 30
0.0
  0
VERTEX
  5
56D
  8
QUOTE
 10
-15.62886823478441
 20
2.916694864273524
 30
0.0
  0
VERTEX
  5
56E
  8
QUOTE
 10
-15.65767739404206
 20
2.785887268204952
 30
0.0
  0
VERTEX
  5
56F
  8
QUOTE
 10
-15.6864865532997
 20
2.736075036618729
 30
0.0
  0
VERTEX
  5
570
  8
QUOTE
 10
-15.71529571255735
 20
2.686262805032506
 30
0.0
  0
VERTEX
  5
571
  8
QUOTE
 10
-15.80676788431187
 20
2.60921582031683
 30
0.0
  0
VERTEX
  5
572
  8
QUOTE
 10
-15.86943089680875
 20
2.58198106718744
 30
0.0
  0
VERTEX
  5
573
  8
QUOTE
 10
-15.94117765565811
 20
2.691711404251151
 30
0.0
  0
VERTEX
  5
574
  8
QUOTE
 10
-15.9002101244677
 20
2.709664579891554
 30
0.0
  0
VERTEX
  5
575
  8
QUOTE
 10
-15.83983865596899
 20
2.762452521489822
 30
0.0
  0
VERTEX
  5
576
  8
QUOTE
 10
-15.8204347186607
 20
2.797287287447711
 30
0.0
  0
VERTEX
  5
577
  8
QUOTE
 10
-15.80103078135241
 20
2.832122053405579
 30
0.0
  0
VERTEX
  5
578
  8
QUOTE
 10
-15.77946718747029
 20
2.932323524059639
 30
0.0
  0
VERTEX
  5
579
  8
QUOTE
 10
-15.77730753089647
 20
2.997690228755811
 30
0.0
  0
SEQEND
  5
5EB
  8
QUOTE
  0
POLYLINE
  5
9A
  8
QUOTE
 66
     1
 10
0.0
 20
0.0
 30
0.0
 70
     1
  0
VERTEX
  5
57A
  8
QUOTE
 10
-15.24481205506136
 20
3.550562311653836
 30
0.0
  0
VERTEX
  5
57B
  8
QUOTE
 10
-14.97259641119172
 20
3.573774498340407
 30
0.0
  0
VERTEX
  5
57C
  8
QUOTE
 10
-14.95751178703107
 20
3.474430295944664
 30
0.0
  0
VERTEX
  5
57D
  8
QUOTE
 10
-14.88774333954703
 20
3.325051301934057
 30
0.0
  0
VERTEX
  5
57E
  8
QUOTE
 10
-14.83305951622366
 20
3.275016510319213
 30
0.0
  0
VERTEX
  5
57F
  8
QUOTE
 10
-14.77837569290028
 20
3.224981718704369
 30
0.0
  0
VERTEX
  5
580
  8
QUOTE
 10
-14.64559802843044
 20
3.174946927089525
 30
0.0
  0
VERTEX
  5
581
  8
QUOTE
 10
-14.56750418728396
 20
3.174946927089525
 30
0.0
  0
VERTEX
  5
582
  8
QUOTE
 10
-14.47333656629418
 20
3.174946927089525
 30
0.0
  0
VERTEX
  5
583
  8
QUOTE
 10
-14.31492328371524
 20
3.245531428011763
 30
0.0
  0
VERTEX
  5
584
  8
QUOTE
 10
-14.2506776221261
 20
3.31611592893398
 30
0.0
  0
VERTEX
  5
585
  8
QUOTE
 10
-14.18643196053696
 20
3.386700429856218
 30
0.0
  0
VERTEX
  5
586
  8
QUOTE
 10
-14.1221862989478
 20
3.573955843548864
 30
0.0
  0
VERTEX
  5
587
  8
QUOTE
 10
-14.1221862989478
 20
3.690626756319313
 30
0.0
  0
VERTEX
  5
588
  8
QUOTE
 10
-14.1221862989478
 20
3.80154408020225
 30
0.0
  0
VERTEX
  5
589
  8
QUOTE
 10
-14.18394258540224
 20
3.976558692321904
 30
0.0
  0
VERTEX
  5
58A
  8
QUOTE
 10
-14.24569887185668
 20
4.040655980558663
 30
0.0
  0
VERTEX
  5
58B
  8
QUOTE
 10
-14.30745515831111
 20
4.104753268795422
 30
0.0
  0
VERTEX
  5
58C
  8
QUOTE
 10
-14.47059990223881
 20
4.16885055703216
 30
0.0
  0
VERTEX
  5
58D
  8
QUOTE
 10
-14.57198835971205
 20
4.16885055703216
 30
0.0
  0
VERTEX
  5
58E
  8
QUOTE
 10
-14.63503054855396
 20
4.16885055703216
 30
0.0
  0
VERTEX
  5
58F
  8
QUOTE
 10
-14.74811577197473
 20
4.14037935929942
 30
0.0
  0
VERTEX
  5
590
  8
QUOTE
 10
-14.79815880655359
 20
4.111908161566699
 30
0.0
  0
VERTEX
  5
591
  8
QUOTE
 10
-14.84820184113247
 20
4.083436963833959
 30
0.0
  0
VERTEX
  5
592
  8
QUOTE
 10
-14.92697984829279
 20
4.009563520266889
 30
0.0
  0
VERTEX
  5
593
  8
QUOTE
 10
-14.95571482087422
 20
3.964161274432518
 30
0.0
  0
VERTEX
  5
594
  8
QUOTE
 10
-15.19838768168824
 20
3.995814256277821
 30
0.0
  0
VERTEX
  5
595
  8
QUOTE
 10
-14.9936983990886
 20
5.078346235387325
 30
0.0
  0
VERTEX
  5
596
  8
QUOTE
 10
-13.94703979940378
 20
5.078346235387325
 30
0.0
  0
VERTEX
  5
597
  8
QUOTE
 10
-13.94703979940378
 20
4.831452976993917
 30
0.0
  0
VERTEX
  5
598
  8
QUOTE
 10
-14.78689891769925
 20
4.831452976993917
 30
0.0
  0
VERTEX
  5
599
  8
QUOTE
 10
-14.90068479306192
 20
4.264897573819029
 30
0.0
  0
VERTEX
  5
59A
  8
QUOTE
 10
-14.80589070680644
 20
4.330824800068692
 30
0.0
  0
VERTEX
  5
59B
  8
QUOTE
 10
-14.60695501309429
 20
4.396752026318373
 30
0.0
  0
VERTEX
  5
59C
  8
QUOTE
 10
-14.50281340563762
 20
4.396752026318373
 30
0.0
  0
VERTEX
  5
59D
  8
QUOTE
 10
-14.364925103474
 20
4.396752026318373
 30
0.0
  0
VERTEX
  5
59E
  8
QUOTE
 10
-14.1322427150549
 20
4.301042971056415
 30
0.0
  0
VERTEX
  5
59F
  8
QUOTE
 10
-14.03744862879942
 20
4.205333915794474
 30
0.0
  0
VERTEX
  5
5A0
  8
QUOTE
 10
-13.94265454254394
 20
4.109624860532536
 30
0.0
  0
VERTEX
  5
5A1
  8
QUOTE
 10
-13.84786045628847
 20
3.863514683721258
 30
0.0
  0
VERTEX
  5
5A2
  8
QUOTE
 10
-13.84786045628847
 20
3.71311356217192
 30
0.0
  0
VERTEX
  5
5A3
  8
QUOTE
 10
-13.84786045628847
 20
3.569900305249941
 30
0.0
  0
VERTEX
  5
5A4
  8
QUOTE
 10
-13.93121330848111
 20
3.322347609734775
 30
0.0
  0
VERTEX
  5
5A5
  8
QUOTE
 10
-14.01456616067376
 20
3.218008171141587
 30
0.0
  0
VERTEX
  5
5A6
  8
QUOTE
 10
-14.11588867443483
 20
3.089912510236358
 30
0.0
  0
VERTEX
  5
5A7
  8
QUOTE
 10
-14.39255551887647
 20
2.961816849331109
 30
0.0
  0
VERTEX
  5
5A8
  8
QUOTE
 10
-14.56789984955704
 20
2.961816849331109
 30
0.0
  0
VERTEX
  5
5A9
  8
QUOTE
 10
-14.71162417024838
 20
2.961816849331109
 30
0.0
  0
VERTEX
  5
5AA
  8
QUOTE
 10
-14.9462436552127
 20
3.042424794504361
 30
0.0
  0
VERTEX
  5
5AB
  8
QUOTE
 10
-15.03713881948567
 20
3.123032739677614
 30
0.0
  0
VERTEX
  5
5AC
  8
QUOTE
 10
-15.12803398375863
 20
3.203640684850866
 30
0.0
  0
VERTEX
  5
5AD
  8
QUOTE
 10
-15.23187060154649
 20
3.417405470838977
 30
0.0
  0
SEQEND
  5
5EC
  8
QUOTE
  0
POLYLINE
  5
9B
  8
QUOTE
 66
     1
 10
0.0
 20
0.0
 30
0.0
  0
VERTEX
  5
5AE
  8
QUOTE
 10
-10.94843526709188
 20
-0.6026520731226501
 30
0.0
  0
VERTEX
  5
5AF
  8
QUOTE
 10
-12.96940435653868
 20
2.273489584097163
 30
0.0
  0
VERTEX
  5
5B0
  8
QUOTE
 10
-20.71321309554071
 20
2.273489584097163
 30
0.0
  0
SEQEND
  5
5ED
  8
QUOTE
  0
POLYLINE
  5
9C
  8
QUOTE
 66
     1
 10
0.0
 20
0.0
 30
0.0
 70
     1
  0
VERTEX
  5
5B1
  8
QUOTE
 10
22.52759047239467
 20
9.698904693020056
 30
0.0
  0
VERTEX
  5
5B2
  8
QUOTE
 10
22.11727404106662
 20
12.16080328098836
 30
0.0
  0
VERTEX
  5
5B3
  8
QUOTE
 10
22.93790690372273
 20
12.16080328098836
 30
0.0
  0
SEQEND
  5
5EE
  8
QUOTE
  0
POLYLINE
  5
9D
  8
QUOTE
 66
     1
 10
0.0
 20
0.0
 30
0.0
 70
     1
  0
VERTEX
  5
5B4
  8
QUOTE
 10
22.11727404106662
 20
5.966666433660055
 30
0.0
  0
VERTEX
  5
5B5
  8
QUOTE
 10
22.93790690372273
 20
5.966666433660055
 30
0.0
  0
VERTEX
  5
5B6
  8
QUOTE
 10
22.52759047239468
 20
8.428565021628376
 30
0.0
  0
SEQEND
  5
5EF
  8
QUOTE
  0
POLYLINE
  5
9E
  8
QUOTE
 66
     1
 10
0.0
 20
0.0
 30
0.0
 70
     1
  0
VERTEX
  5
5B7
  8
QUOTE
 10
0.6784992359918662
 20
-11.26774884581912
 30
0.0
  0
VERTEX
  5
5B8
  8
QUOTE
 10
3.173656214224765
 20
-11.32687485730258
 30
0.0
  0
VERTEX
  5
5B9
  8
QUOTE
 10
3.057958867774376
 20
-10.51443875563334
 30
0.0
  0
SEQEND
  5
5F0
  8
QUOTE
  0
POLYLINE
  5
9F
  8
QUOTE
 66
     1
 10
0.0
 20
0.0
 30
0.0
 70
     1
  0
VERTEX
  5
5BA
  8
QUOTE
 10
-3.081870219447131
 20
-11.38879912882568
 30
0.0
  0
VERTEX
  5
5BB
  8
QUOTE
 10
-2.966172872996763
 20
-12.20123523049492
 30
0.0
  0
VERTEX
  5
5BC
  8
QUOTE
 10
-0.5867132412142593
 20
-11.44792514030914
 30
0.0
  0
SEQEND
  5
5F1
  8
QUOTE
  0
POLYLINE
  5
A0
  8
QUOTE
 66
     1
 10
0.0
 20
0.0
 30
0.0
 70
     1
  0
VERTEX
  5
5BD
  8
QUOTE
 10
2.515809966865325
 20
-18.1320974087704
 30
0.0
  0
VERTEX
  5
5BE
  8
QUOTE
 10
5.011526056718678
 20
-18.10553747455766
 30
0.0
  0
VERTEX
  5
5BF
  8
QUOTE
 10
4.885236517011789
 20
-18.91639458122431
 30
0.0
  0
SEQEND
  5
5F2
  8
QUOTE
  0
POLYLINE
  5
A1
  8
QUOTE
 66
     1
 10
0.0
 20
0.0
 30
0.0
 70
     1
  0
VERTEX
  5
5C0
  8
QUOTE
 10
-1.130461208328388
 20
-17.14893397659127
 30
0.0
  0
VERTEX
  5
5C1
  8
QUOTE
 10
-1.256750748035254
 20
-17.95979108325789
 30
0.0
  0
VERTEX
  5
5C2
  8
QUOTE
 10
1.238965341818087
 20
-17.93323114904516
 30
0.0
  0
SEQEND
  5
5F3
  8
QUOTE
  0
ENDSEC
  0
EOF
