<?xml version="1.0" encoding="UTF-8" standalone="no"?>
<!-- Created by Vectric (http://www.vectric.com/) -->

<svg
   width="50.00000000mm"
   height="50.00000000mm"
   viewBox="-25.00000000 -25.00000000 50.00000000 50.00000000"
   id="svg2"
   version="1.1"
   sodipodi:docname="screw.svg"
   inkscape:version="1.2.2 (732a01da63, 2022-12-09)"
   xmlns:inkscape="http://www.inkscape.org/namespaces/inkscape"
   xmlns:sodipodi="http://sodipodi.sourceforge.net/DTD/sodipodi-0.dtd"
   xmlns="http://www.w3.org/2000/svg"
   xmlns:svg="http://www.w3.org/2000/svg">
  <defs
     id="defs105">
    <linearGradient
       id="linearGradient1090"
       inkscape:swatch="solid">
      <stop
         style="stop-color:#000000;stop-opacity:1;"
         offset="0"
         id="stop1088" />
    </linearGradient>
  </defs>
  <sodipodi:namedview
     id="namedview103"
     pagecolor="#ffffff"
     bordercolor="#000000"
     borderopacity="0.25"
     inkscape:showpageshadow="2"
     inkscape:pageopacity="0.0"
     inkscape:pagecheckerboard="0"
     inkscape:deskcolor="#d1d1d1"
     inkscape:document-units="mm"
     showgrid="false"
     inkscape:zoom="2.4976667"
     inkscape:cx="43.840918"
     inkscape:cy="105.49847"
     inkscape:window-width="2400"
     inkscape:window-height="1261"
     inkscape:window-x="-9"
     inkscape:window-y="-9"
     inkscape:window-maximized="1"
     inkscape:current-layer="f518e19d-cfce-4ae0-8429-d0b0d033fe89" />
  <g
     inkscape:groupmode="layer"
     id="d3f77339-4587-4986-9f51-375d40dc0fbe"
     inkscape:label="Disegno"
     style="stroke:#000000;">
    <path
       style="fill:none;stroke:#000000;stroke-width:0.28;stroke-linecap:round;stroke-linejoin:round;stroke-opacity:1"
       d="m -9.9857971,-5.6743277 h 4.642437"
       id="path2"
       inkscape:export-filename="GAP.png"
       inkscape:export-xdpi="96"
       inkscape:export-ydpi="96" />
    <path
       style="fill:none;stroke:#000000;stroke-width:0.28;stroke-linecap:round;stroke-linejoin:round;stroke-opacity:1"
       d="m 4.7265079,-5.6743277 h 4.642438"
       id="path4" />
    <path
       style="fill:none;stroke:#000000;stroke-width:0.28;stroke-linecap:round;stroke-linejoin:round;stroke-opacity:1"
       d="m 1.9410369,3.8131263 h -4.642437"
       id="path6" />
    <path
       style="fill:#000000;fill-opacity:0.271967;stroke:#000000;stroke-width:0.3;stroke-linecap:round;stroke-linejoin:round;stroke-dasharray:none;stroke-opacity:1"
       d="m -4.2333961,-6.9446677 h -2.110198 l 0.029,-0.135634 0.029192,-0.13535 0.029575,-0.134783 0.014991,-0.06709 0.015159,-0.066842 0.015351,-0.066559 0.015567,-0.066239 0.015806,-0.065885 0.01607,-0.065495 0.016357,-0.065069 0.016669,-0.064609 0.017005,-0.064112 0.017363,-0.063581 0.017748,-0.063013 0.018155,-0.062411 0.018586,-0.061772 0.019041,-0.061099 0.019521,-0.06039 0.020024,-0.059645 0.020551,-0.058866 0.010481,-0.029129 0.010622,-0.028921 0.010765,-0.028708 0.010913,-0.028491 0.011062,-0.02827 0.011214,-0.028043 0.011371,-0.027813 0.011529,-0.027578 0.011691,-0.027339 0.011856,-0.027095 0.012024,-0.026847 0.012194,-0.026595 0.012368,-0.026337 0.012545,-0.026076 0.012725,-0.02581 0.012907,-0.02554 0.013093,-0.025265 0.013282,-0.024986 0.013474,-0.024702 0.013668,-0.024414 0.013866,-0.024122 0.014067,-0.023825 0.01427,-0.023523 0.014477,-0.023218 0.014687,-0.022907 0.014899,-0.022593 0.015115,-0.022274 0.015334,-0.02195 0.015556,-0.021622 0.01578,-0.02129 0.016008,-0.020954 0.016238,-0.020612 0.016472,-0.020266 0.016709,-0.019916 0.016949,-0.019562 0.017191,-0.019203 0.017437,-0.018839 0.017685,-0.018472 0.017937,-0.018099 0.018192,-0.017723 0.018449,-0.017342 0.01871,-0.016956 0.018974,-0.016566 0.01924,-0.016171 0.019509,-0.015773 0.019783,-0.01537 0.020058,-0.014962 0.020336,-0.01455 0.020619,-0.014133 0.020902,-0.013712 0.021191,-0.013287 0.02148,-0.012857 0.021771,-0.01243 0.022055,-0.012009 0.022338,-0.011595 0.022614,-0.011188 0.022889,-0.010788 0.023158,-0.010396 0.023423,-0.010009 0.023685,-0.00963 0.023942,-0.00926 0.024195,-0.00889 0.024445,-0.00854 0.024691,-0.00818 0.024931,-0.00784 0.025169,-0.0075 0.025403,-0.00717 0.025631,-0.00685 0.025857,-0.00653 0.026078,-0.00622 0.026296,-0.00592 0.026508,-0.00563 0.026718,-0.00534 0.026923,-0.00506 0.027124,-0.00478 0.027322,-0.00451 0.027514,-0.00425 0.027704,-0.004 0.027888,-0.00375 0.02807,-0.00351 0.028247,-0.00328 0.02842,-0.00305 0.028589,-0.00284 0.028753,-0.00262 0.028915,-0.00242 0.029072,-0.00222 0.058598,-0.00388 0.059178,-0.00317 0.059725,-0.00252 0.060241,-0.00192 0.060724,-0.00138 0.061174,-8.94e-4 0.061594,-4.64e-4 0.06198,-9.1e-5 0.062335,2.27e-4 0.062657,4.89e-4 0.062948,6.95e-4 0.063205,8.46e-4 0.127057,0.00192 0.127703,0.00186 0.128093,0.00134 0.064112,3.4e-4 0.064112,4.5e-5 0.064082,-3.07e-4 0.064018,-7.13e-4 0.063922,-0.00117 0.063795,-0.00169 0.063635,-0.00227 0.063443,-0.0029 0.063218,-0.00358 0.062963,-0.00432 0.062673,-0.00512 0.062353,-0.00597 0.031047,-0.00332 0.030954,-0.00356 0.030858,-0.0038 0.03076,-0.00404 0.030665,-0.00427 0.03057,-0.00449 0.060865,-0.00962 0.06051,-0.010409 0.060167,-0.011124 0.05984,-0.011769 0.059525,-0.012343 0.059226,-0.012846 0.058939,-0.013279 0.058668,-0.013641 0.058408,-0.013931 0.058165,-0.014152 0.057934,-0.014301 0.115233,-0.028767 0.114479,-0.02851 0.056991,-0.01399 0.056844,-0.01371 0.056711,-0.01337 0.056593,-0.01295 0.056487,-0.01246 0.056397,-0.0119 0.056319,-0.01127 0.056255,-0.01057 0.056207,-0.0098 0.056171,-0.009 0.05615,-0.008 0.028071,-0.0037 0.028071,-0.0034 0.028073,-0.0031 0.028075,-0.0029 0.028081,-0.0026 0.028088,-0.0023 0.028097,-0.002 0.028106,-0.0017 0.028119,-0.0014 0.028129,-0.0011 0.028143,-7.79e-4 0.028155,-4.84e-4 0.028168,-1.96e-4 0.028182,8.9e-5 0.028197,3.68e-4 0.028211,6.42e-4 0.028226,9.11e-4 0.028241,0.0012 0.028258,0.0014 0.028274,0.0017 0.028291,0.0019 0.028309,0.0022 0.056671,0.0051 0.056746,0.006 0.056826,0.0069 0.056908,0.0077 0.056994,0.0085 0.057084,0.0092 0.057178,0.0099 0.057276,0.01059 0.057376,0.01122 0.057481,0.01181 0.05759,0.01235 0.057702,0.01285 0.057818,0.01332 0.057937,0.01374 0.05806,0.01412 0.058188,0.01446 0.058318,0.01476 0.058452,0.015018 0.11732301,0.030649 0.117904,0.031194 0.118515,0.031413 0.119156,0.031303 0.119827,0.030869 0.060174,0.015169 0.060352,0.014938 0.060535,0.014665 0.060715,0.014368 0.060878,0.01409 0.061019,0.013839 0.122378,0.027036 0.122693,0.026364 0.122838,0.025912 0.245443,0.05135 0.122269,0.025879 0.121744,0.026307 0.060622,0.013384 0.060428,0.013574 0.060212,0.013791 0.059976,0.014036 0.059719,0.014308 0.05944,0.014609 0.059141,0.014936 0.058821,0.015292 0.058479,0.015674 0.058117,0.016084 0.057734,0.016522 0.057329,0.016988 0.056905,0.01748 0.056458,0.018001 0.055991,0.018548 0.055502,0.019124 0.054994,0.019727 0.054463,0.020358 0.053912,0.021015 0.05334,0.021702 0.052746,0.022414 0.026145,0.011483 0.025988,0.011672 0.025829,0.011864 0.025668,0.012059 0.025504,0.012258 0.025337,0.012461 0.025168,0.012667 0.024997,0.012875 0.024821,0.013089 0.024645,0.013305 0.024464,0.013524 0.024282,0.013747 0.024098,0.013974 0.023909,0.014203 0.02372,0.014437 0.023526,0.014674 0.023331,0.014914 0.023133,0.015158 0.022932,0.015405 0.022728,0.015655 0.022523,0.01591 0.022314,0.016166 0.022103,0.016428 0.021889,0.016692 0.021672,0.01696 0.021453,0.017231 0.021232,0.017506 0.021007,0.017784 0.02078,0.018066 0.02055,0.01835 0.020319,0.018638 0.020089,0.018923 0.019863,0.019205 0.01964,0.019481 0.01942,0.019755 0.019203,0.020024 0.018989,0.020289 0.018779,0.02055 0.018573,0.020808 0.018368,0.02106 0.018168,0.02131 0.017971,0.021554 0.017776,0.021796 0.017586,0.022033 0.017398,0.022265 0.017214,0.022495 0.017032,0.02272 0.016855,0.02294 0.01668,0.023158 0.016509,0.02337 0.01634,0.023579 0.016176,0.023785 0.016013,0.023985 0.015856,0.024182 0.0157,0.024374 0.015548,0.024564 0.030652,0.049677 0.030084,0.050385 0.02954,0.05106 0.029023,0.051702 0.02853,0.052313 0.028066,0.052891 0.027625,0.053438 0.027211,0.053952 0.026823,0.054434 0.026461,0.054884 0.026124,0.055302 0.025814,0.055688 0.02553,0.056041 0.02527,0.056362 0.025038,0.056652 0.02483,0.056908 0.02465,0.057134 0.048859,0.114814 0.048445,0.115328 0.048238,0.115585 h -2.110199 l -1.675507,10.757794 h -4.642437 l -1.531996,-10.757794"
       id="path8" />
    <path
       style="fill:#000000;fill-opacity:0.271967;stroke:#000000;stroke-width:0.3;stroke-linecap:round;stroke-linejoin:round;stroke-dasharray:none;stroke-opacity:1"
       d="m -13.771503,5.0834653 h 2.110199 l 1.6755069,-10.757793 h 4.642437 l 1.531995,10.757793 h 6.862366 l 1.675507,-10.757793 h 4.642438 l 1.5319951,10.757793 h 2.110199 l -0.14804,0.248342 -0.148247,0.247609 -0.148663,0.246145 -0.07455,0.122295 -0.07473,0.121654 -0.07494,0.120922 -0.07518,0.120099 -0.07544,0.119184 -0.07572,0.118177 -0.07603,0.117079 -0.07637,0.11589 -0.07674,0.114609 -0.07712,0.113236 -0.07754,0.111772 -0.07798,0.110217 -0.07845,0.108569 -0.07894,0.106831 -0.07946,0.105002 -0.08001,0.103079 -0.08058,0.101067 -0.04051,0.04975 -0.04066,0.049212 -0.04082,0.048663 -0.04098,0.048103 -0.04114,0.047531 -0.04131,0.046947 -0.04148,0.046353 -0.04165,0.045747 -0.04183,0.045129 -0.042,0.0445 -0.04219,0.043859 -0.04237,0.043208 -0.04256,0.042544 -0.04275,0.041869 -0.04295,0.041183 -0.04314,0.040486 -0.04335,0.039776 -0.04355,0.039055 -0.04376,0.038324 -0.04397,0.03758 -0.04418,0.036826 -0.0444,0.036059 -0.04462,0.035281 -0.04485,0.034492 -0.04507,0.033691 -0.0453,0.03288 -0.04554,0.032055 -0.04578,0.031221 -0.04602,0.030375 -0.046259,0.029516 -0.046507,0.028648 -0.046756,0.027767 -0.04701,0.026874 -0.047266,0.025971 -0.047527,0.025056 -0.047789,0.02413 -0.048056,0.023191 -0.048325,0.022243 -0.048599,0.021281 -0.048874,0.02031 -0.049154,0.019326 -0.049436,0.01833 -0.049722,0.017324 -0.050011,0.016307 -0.050304,0.015277 -0.050599,0.014236 -0.050898,0.013183 -0.051201,0.01212 -0.051505,0.011045 -0.051814,0.00996 -0.052126,0.00886 -0.052441,0.00775 -0.052759,0.00663 -0.053077,0.00552 -0.053388,0.00443 -0.053695,0.00337 -0.053998,0.00234 -0.054293,0.00134 -0.054586,3.56e-4 -0.054871,-5.95e-4 -0.055152,-0.00152 -0.055429,-0.00242 -0.055699,-0.00329 -0.055964,-0.00414 -0.056225,-0.00495 -0.05648,-0.00575 -0.05673,-0.00651 -0.056975,-0.00725 -0.057214,-0.00796 -0.057449,-0.00864 -0.057678,-0.0093 -0.057902,-0.00993 -0.058121,-0.010533 -0.058334,-0.01111 -0.058543,-0.011659 -0.058747,-0.012182 -0.118082,-0.025827 -0.118834,-0.027598 -0.119543,-0.029153 -0.120212,-0.030496 -0.120838,-0.031622 -0.121424,-0.032535 -0.121968,-0.033234 -0.245402,-0.067703 -0.247081,-0.067922 -0.124066,-0.033507 -0.124362,-0.032918 -0.124616,-0.032115 -0.124828,-0.031097 -0.124999,-0.029865 -0.125128,-0.028418 -0.125217,-0.026758 -0.125264,-0.024881 -0.062636,-0.011671 -0.062632,-0.011121 -0.062624,-0.010545 -0.062609,-0.00994 -0.06259,-0.00931 -0.062565,-0.00866 -0.062535,-0.00797 -0.062501,-0.00726 -0.06246,-0.00652 -0.062415,-0.00576 -0.062369,-0.005 -0.062321,-0.00425 -0.062274,-0.00351 -0.062228,-0.00279 -0.06218,-0.00208 -0.062134,-0.00138 -0.062087,-6.93e-4 -0.06204,-2.3e-5 -0.061994,6.35e-4 -0.061947,0.00128 -0.061901,0.00191 -0.061854,0.00253 -0.061807,0.00313 -0.061761,0.00372 -0.061715,0.0043 -0.061669,0.00486 -0.061622,0.00542 -0.061576,0.00595 -0.123014,0.013464 -0.122829,0.015455 -0.122646,0.017337 -0.122462,0.019115 -0.122279,0.020784 -0.122097,0.022348 -0.121914,0.023804 -0.121733,0.025154 -0.121551,0.026398 -0.12137,0.027534 -0.12119,0.028564 -0.121009,0.029486 -0.12083,0.030304 -0.12065,0.031013 -0.240763,0.063729 -0.24005,0.065287 -0.239341,0.065993 -0.23863401,0.065844 -0.23793,0.064842 -0.118703,0.031779 -0.118527,0.031208 -0.118354,0.030531 -0.11818,0.029748 -0.118006,0.028856 -0.117833,0.027859 -0.117661,0.026755 -0.117488,0.025545 -0.117316,0.024227 -0.117145,0.022803 -0.116974,0.021272 -0.116803,0.019635 -0.116633,0.017891 -0.11646299,0.01604 -0.116294,0.014082 -0.116124,0.012018 -0.057999,0.0052 -0.057957,0.00465 -0.057914,0.00408 -0.057873,0.00349 -0.057831,0.0029 -0.057789,0.00229 -0.057747,0.00167 -0.057705,0.00103 -0.057663,3.79e-4 -0.057622,-2.83e-4 -0.05758,-9.59e-4 -0.057539,-0.00164 -0.057501,-0.00232 -0.057468,-0.00297 -0.057438,-0.00361 -0.057413,-0.00423 -0.057391,-0.00483 -0.057374,-0.00542 -0.05736,-0.00599 -0.057352,-0.00654 -0.11469,-0.014674 -0.114702,-0.016675 -0.114746,-0.018538 -0.114822,-0.020265 -0.114931,-0.021854 -0.115071,-0.023304 -0.115245,-0.024616 -0.115451,-0.025791 -0.115689,-0.026828 -0.115959,-0.027728 -0.116262,-0.028489 -0.116597,-0.029112 -0.234331,-0.059544 -0.23606,-0.060385 -0.118759,-0.030163 -0.11929,-0.02996 -0.119851,-0.029619 -0.120446,-0.029139 -0.121072,-0.028523 -0.121732,-0.027769 -0.122423,-0.026876 -0.123147,-0.025845 -0.123904,-0.024678 -0.124692,-0.023372 -0.125513,-0.021928 -0.126367,-0.020347 -0.127253,-0.018628 -0.128171,-0.01677 -0.06444,-0.00765 -0.064682,-0.00713 -0.064928,-0.0066 -0.065177,-0.00605 -0.065431,-0.00548 -0.065686,-0.0049 -0.065933,-0.00434 -0.066168,-0.00379 -0.066393,-0.00326 -0.066607,-0.00274 -0.133817,-0.00402 -0.134549,-0.00217 -0.135197,-4.59e-4 -0.13576,0.00111 -0.136239,0.00255 -0.136635,0.00385 -0.136945,0.00501 -0.137172,0.00603 -0.137314,0.00692 -0.137372,0.00767 -0.137345,0.00828 -0.274275,0.017857 -0.27316,0.018659 -0.13595,0.00929 -0.135418,0.00908 -0.134803,0.00873 -0.134102,0.00824 -0.133318,0.00762 -0.132448,0.00686 -0.131496,0.00596 -0.130458,0.00493 -0.129337,0.00376 -0.1281309,0.00245 -0.126841,9.99e-4 -0.06291,-8.6e-5 -0.06256,-4.98e-4 -0.06219,-9.29e-4 -0.06182,-0.00138 -0.06143,-0.00184 -0.06104,-0.00232 -0.06063,-0.00282 -0.06021,-0.00334 -0.05978,-0.00387 -0.05934,-0.00442 -0.05889,-0.00499 -0.05844,-0.00557 -0.05797,-0.00617 -0.05749,-0.0068 -0.05699,-0.00743 -0.05649,-0.00808 -0.05598,-0.00875 -0.05546,-0.00944 -0.05493,-0.010147 -0.05438,-0.010868 -0.05383,-0.011607 -0.05326,-0.012364 -0.05269,-0.013137 -0.0521,-0.013928 -0.05151,-0.014735 -0.0509,-0.01556 -0.05028,-0.016403 -0.04965,-0.017261 -0.04901,-0.018138 -0.04837,-0.019031 -0.04771,-0.019942 -0.04703,-0.02087 -0.04636,-0.021815 -0.04566,-0.022777 -0.04496,-0.023756 -0.04425,-0.024753 -0.04353,-0.025766 -0.04279,-0.026797 -0.04205,-0.027845 -0.0413,-0.02891 -0.04053,-0.029993 -0.03975,-0.031091 -0.03897,-0.032209 -0.03817,-0.033342 -0.03737,-0.034491 -0.03656,-0.03564 -0.03577,-0.036767 -0.035,-0.037875 -0.03423,-0.038962 -0.03349,-0.04003 -0.03275,-0.041077 -0.03203,-0.042105 -0.03133,-0.043111 -0.03064,-0.044098 -0.02996,-0.045065 -0.0293,-0.046012 -0.02865,-0.046938 -0.02801,-0.047844 -0.02739,-0.048731 -0.02678,-0.049597 -0.02619,-0.050442 -0.02561,-0.051268 -0.02505,-0.052074 -0.0245,-0.05286 -0.02396,-0.053624 -0.02344,-0.05437 -0.02293,-0.055095 -0.02244,-0.0558 -0.02196,-0.056485 -0.02149,-0.057149 -0.02104,-0.057794 -0.0206,-0.058418 -0.02018,-0.059022 -0.01977,-0.059607 -0.01938,-0.06017 -0.019,-0.060714 -0.01863,-0.061238 -0.01828,-0.061741 -0.01794,-0.062225 -0.01761,-0.062688 -0.03431,-0.126685 -0.03318,-0.128296 -0.03216,-0.129746 -0.03126,-0.131035 -0.03047,-0.132164 -0.02979,-0.133129 -0.02923,-0.133936 -0.02878,-0.13458 -0.02844,-0.135063 -0.05631,-0.270933"
       id="path10" />
  </g>
  <g
     inkscape:groupmode="layer"
     id="f518e19d-cfce-4ae0-8429-d0b0d033fe89"
     inkscape:label="Quote"
     style="stroke:#000000;">
    <path
       style="fill:none;stroke:#000000;stroke-width:0.1;stroke-linecap:round;stroke-linejoin:round;stroke-dasharray:none;stroke-opacity:1"
       d="M -3.3682291,-0.86939671 -1.1484091,14.71836"
       id="path29" />
    <path
       style="fill:none;stroke:#000000;stroke-width:0.1;stroke-linecap:round;stroke-linejoin:round;stroke-dasharray:none;stroke-opacity:1"
       d="m -4.6334411,-0.68922071 2.21982,15.58775671"
       id="path31" />
    <path
       style="fill:none;stroke:#000000;stroke-width:0.1;stroke-linecap:round;stroke-linejoin:round;stroke-dasharray:none;stroke-opacity:1"
       d="m 1.1897309,13.674894 2.437308,-0.347092"
       id="path33" />
    <path
       style="fill:none;stroke:#000000;stroke-width:0.1;stroke-linecap:round;stroke-linejoin:round;stroke-dasharray:none;stroke-opacity:1"
       d="M -4.9500991,14.549254 -11.752569,15.51798"
       id="path35" />
    <path
       style="fill:none;stroke:#000000;stroke-width:0.1;stroke-linecap:round;stroke-linejoin:round;stroke-dasharray:none;stroke-opacity:1"
       d="m -1.2475781,14.021986 -1.265212,0.180176"
       id="path37" />
    <path
       style="fill:none;stroke:#000000;stroke-width:0.1;stroke-linecap:round;stroke-linejoin:round;stroke-dasharray:none;stroke-opacity:1"
       d="M 10.072345,-5.6743277 H 21.304913"
       id="path43" />
    <path
       style="fill:none;stroke:#000000;stroke-width:0.1;stroke-linecap:round;stroke-linejoin:round;stroke-dasharray:none;stroke-opacity:1"
       d="M 6.4301419,-6.9446677 H 21.304913"
       id="path45" />
    <path
       style="fill:none;stroke:#000000;stroke-width:0.1;stroke-linecap:round;stroke-linejoin:round;stroke-dasharray:none;stroke-opacity:1"
       d="m 20.601513,-3.2124287 v 2.46189799"
       id="path47" />
    <path
       style="fill:none;stroke:#000000;stroke-width:0.1;stroke-linecap:round;stroke-linejoin:round;stroke-dasharray:none;stroke-opacity:1"
       d="M 20.601513,-9.4065657 V -16.155076"
       id="path49" />
    <path
       style="fill:none;stroke:#000000;stroke-width:0.1;stroke-linecap:round;stroke-linejoin:round;stroke-dasharray:none;stroke-opacity:1"
       d="m 20.601513,-5.6743277 v -1.27034"
       id="path51" />
    <path
       style="fill:#000000;fill-opacity:1;stroke:#000000;stroke-width:0.1;stroke-linecap:round;stroke-linejoin:round;stroke-dasharray:none;stroke-opacity:1"
       d="m 20.601513,-6.9446677 -0.410316,-2.461898 h 0.820633 l -0.410317,2.461898"
       id="path89" />
    <path
       style="fill:#000000;fill-opacity:1;stroke:#000000;stroke-width:0.1;stroke-linecap:round;stroke-linejoin:round;stroke-dasharray:none;stroke-opacity:1"
       d="m 20.191197,-3.2124287 h 0.820633 l -0.410317,-2.461899 -0.410316,2.461899"
       id="path91" />
    <path
       style="fill:#000000;fill-opacity:1;stroke:#000000;stroke-width:0.1;stroke-linecap:round;stroke-linejoin:round;stroke-dasharray:none;stroke-opacity:1"
       d="m -1.2475781,14.021986 2.495157,0.05913 -0.115697,-0.812436 -2.37946,0.75331"
       id="path93" />
    <path
       style="fill:#000000;fill-opacity:1;stroke:#000000;stroke-width:0.1;stroke-linecap:round;stroke-linejoin:round;stroke-dasharray:none;stroke-opacity:1"
       d="m -5.0079471,14.143036 0.115697,0.812436 2.37946,-0.75331 -2.495157,-0.05913"
       id="path95" />
    <text
       xml:space="preserve"
       style="font-style:normal;font-variant:normal;font-weight:normal;font-stretch:normal;font-size:3.88056px;font-family:Arial;-inkscape-font-specification:'Arial, Normal';font-variant-ligatures:normal;font-variant-caps:normal;font-variant-numeric:normal;font-variant-east-asian:normal;text-align:center;text-anchor:middle;fill:#000000;fill-opacity:1;stroke:#000000;stroke-width:0.3;stroke-linecap:round;stroke-linejoin:round;stroke-dasharray:none;stroke-opacity:0"
       x="12.35395"
       y="-12.978191"
       id="text3351"><tspan
         sodipodi:role="line"
         id="tspan3349"
         style="stroke-width:0.3"
         x="12.35395"
         y="-12.978191">GAP B</tspan></text>
    <text
       xml:space="preserve"
       style="font-style:normal;font-variant:normal;font-weight:normal;font-stretch:normal;font-size:3.88056px;font-family:Arial;-inkscape-font-specification:'Arial, Normal';font-variant-ligatures:normal;font-variant-caps:normal;font-variant-numeric:normal;font-variant-east-asian:normal;text-align:center;text-anchor:middle;fill:#000000;fill-opacity:1;stroke:#000000;stroke-width:0.3;stroke-linecap:round;stroke-linejoin:round;stroke-dasharray:none;stroke-opacity:0"
       x="-14.499643"
       y="13.555964"
       id="text3351-0"><tspan
         sodipodi:role="line"
         id="tspan3349-8"
         style="stroke-width:0.3"
         x="-14.499643"
         y="13.555964">GAP A</tspan></text>
  </g>
</svg>
